/* XPM */
static char * EFFECT_3_xpm[] = {
"64 64 54 1",
" 	c None",
".	c #28009E",
"+	c #3000A9",
"@	c #3B00BB",
"#	c #2B00A3",
"$	c #4100C2",
"%	c #6A18D1",
"&	c #731DD4",
"*	c #8326D9",
"=	c #6113CE",
"-	c #6414CE",
";	c #3300AF",
">	c #761FD5",
",	c #8F2DDE",
"'	c #7F24D8",
")	c #9531E0",
"!	c #B744EC",
"~	c #A83CE6",
"{	c #A238E4",
"]	c #8C2BDC",
"^	c #4C07C6",
"/	c #3800B6",
"(	c #2C00A4",
"_	c #B342EA",
":	c #C24BEF",
"<	c #A63AE5",
"[	c #BC47ED",
"}	c #D555F6",
"|	c #DD59F9",
"1	c #C64DF1",
"2	c #D454F6",
"3	c #B141E9",
"4	c #9C34E2",
"5	c #6C19D1",
"6	c #4704C4",
"7	c #E25CFA",
"8	c #3D00BD",
"9	c #560CCA",
"0	c #3600B3",
"a	c #5A0FCB",
"b	c #8528DA",
"c	c #4E08C7",
"d	c #F57DF6",
"e	c #CA4FF2",
"f	c #E860FD",
"g	c #F068FE",
"h	c #F373FA",
"i	c #240097",
"j	c #ED63FE",
"k	c #220095",
"l	c #F26FFB",
"m	c #F681F5",
"n	c #F47AF7",
"o	c #1F0090",
"                                                                ",
"                                                                ",
"                                                                ",
"                                                                ",
"                                                                ",
"                                                                ",
"                                                                ",
"                                                                ",
"                                                                ",
"                                                                ",
"                           .+..+@#                              ",
"                        .#$%&%&%*=--%;                          ",
"                      #=>>,'))!,~){>]=^/.                       ",
"                    (^&'_:{<[}|1<2}344]5&6                      ",
"                   6)1*5*'>54,~<7<$8>|[<]%90                    ",
"                 #a5=%%%=&>-&&&&{{,=-4,4~[5&8.                  ",
"                (,'&%])]&9 @]*'>%']13,]]_},b96                  ",
"               .ac>]{<8     8%]~<b-',[[~4,))]%6                 ",
"              @%>'_7<;    /&b<_[de<&&bf:!:{e|&&@                ",
"             ;c5b{15     /')3fg1}45=%=b!eh2!3~'^                ",
"            #-541f|     8')7:7:0     -&,[~<72{)%>               ",
"            a5)43e9    +-4_d1^        =5:- >}_|*%;              ",
"           ^={_[}%    84::[}$         ic*<  ;_e,*^i             ",
"           ->:2hf  =:2j}|ff7-          +>,5  @{)&^9             ",
"          a5{<_![44_<*'b,,~[7*          =,1    4_%>i            ",
"          a]!~!1_<b%-5]}}$#a~7!     k#..c%3^   5!5&9            ",
"         /=~|2f2{50 #-<e7(  (b|1  ./6'5&&&{3   .b]&&            ",
"         ab)4_2{%;  .>ej*    .&f%@-~!gff[>]|^   9]a](           ",
"         =>4,1[&0   /,2l0     #1g!fm7!33|~'_,+  a15<-           ",
"         5_|*456    c{}7       %1|}      =>e3&0  &-&&           ",
"        ;%<:14>a     4ne      o [2       ('}}{- .,'&&i          ",
"        $'{4!'b&    ={f1i     k=<|       (>ef|,$/,=>'i          ",
"        /5~!~%]^    9{|[       %37       6&:_2_& 1%<4.          ",
"        ;b77{>:%    $:j|      (4:|       c*~ 1fb],->>(          ",
"        @5{[]&21    ,l:[a     i4[4       6)- c:4b]>b*8          ",
"        6b~{>'<!.  8},!h'#o     f@    o i5~$ @f<3>a*b.          ",
"        054|b][[#  4*c<f1      5f     /;^*[( ;|3e*5:&           ",
"        i5_f]&!d) ie8+,}h/     e-i    6[b4{  @e~b%'[5           ",
"         a*_b'_f}  e( 8~je(  aec  o    '*~/  $j<)&bb-           ",
"         =]3_>33_% 3@ .*_f!<)%        ('~)   ]:~=a]*;           ",
"         05{:5]4|f%4%  (=:|e         k-'4    7_,a{)%            ",
"          9)~''<}g2)<(  +b!j~0       8]40   -[,5%!4=            ",
"          (&){&{{!:*,*(  +-<ef,@ . /5*e8   @73*>),&6            ",
"          i5,:'543el2!,$   $&4[}f!]*3_6   ;<}3c5,,^.            ",
"           /-,4&b1!fe_!~>$#0/= ]*b4~b     {{]->}]-(             ",
"            @']{%b)~_2[_)4)]'b*4~~&(    @'2]b>)4b9              ",
"            ka]_'>b:~|j1* 4%9%&$;     .6_{<--]!*^i              ",
"             ;5&{*&]4)!1gl[          &21,,-&:<>a                ",
"              #=]]_%*,2{e}!7je4')b3f<<4~5>]~<,%#                ",
"                9b44&a544e<<f!~gf3~e:4&=&]{~*9/                 ",
"                #%5))_%&5b]*__<4e,b&%-b,[~]58                   ",
"                  +c'~*'b>&%--*%%->&]{<3{&>@                    ",
"                    9>%,<!]*,b&>4{,4_{)&=+#                     ",
"                     (0$5*&,]{),))]&*5>6k                       ",
"                        ;ac69'5-a%&c+                           ",
"                             ##  i                              ",
"                                                                ",
"                                                                ",
"                                                                ",
"                                                                ",
"                                                                ",
"                                                                ",
"                                                                ",
"                                                                "};
