/* XPM */
static char * EFFECT_7_xpm[] = {
"64 64 58 1",
" 	c None",
".	c #3400B1",
"+	c #550CC9",
"@	c #5F11CD",
"#	c #3D00BD",
"$	c #2D00A6",
"%	c #3B00BB",
"&	c #5A0FCB",
"*	c #E75FFC",
"=	c #F16DFC",
"-	c #F479F8",
";	c #F375F9",
">	c #F67FF6",
",	c #F785F4",
"'	c #F782F5",
")	c #ED63FE",
"!	c #F068FE",
"~	c #CF52F4",
"{	c #B845EC",
"]	c #B241EA",
"^	c #C049EF",
"/	c #7E23D8",
"(	c #FC98ED",
"_	c #E05CFA",
":	c #FB95EE",
"<	c #F98CF1",
"[	c #A339E5",
"}	c #9832E1",
"|	c #4B06C6",
"1	c #4201C3",
"2	c #DA58F8",
"3	c #D857F7",
"4	c #FA91F0",
"5	c #7A21D6",
"6	c #8326D9",
"7	c #FEA1EA",
"8	c #26009C",
"9	c #6C19D1",
"0	c #FFA4E9",
"a	c #AB3DE7",
"b	c #731DD4",
"c	c #932FDF",
"d	c #9C34E2",
"e	c #CA4FF2",
"f	c #A238E4",
"g	c #AE3FE8",
"h	c #892ADB",
"i	c #8C2BDC",
"j	c #FE9FEB",
"k	c #6A18D1",
"l	c #3900B7",
"m	c #4805C5",
"n	c #6214CE",
"o	c #3100AB",
"p	c #2A00A1",
"q	c #3200AC",
"r	c #510AC8",
"s	c #210094",
"                                                                ",
"                                                                ",
"                                                                ",
"                                                                ",
"                                                                ",
"                                                                ",
"                                                                ",
"                                                                ",
"                                                                ",
"                                                                ",
"                                                                ",
"                           ..+@@#.@$                            ",
"                       %&*=-;>,'=)!~{]^.                        ",
"                     /]-)=('_'(';:(<-~)^[}|                     ",
"                   1[):'-2>3!*,-=(4,'443{__5                    ",
"                  6=-)_)4:,47'-'_'<,<(:,*~2~]@                  ",
"                89*'!(:4>44),0(0(->!;7''<'~a!)b                 ",
"                ~));;;!*c}[dc~e)7(0>);;>(:;e~,*@                ",
"               e-3(43f}]g]_^f]}h~~<7-<)'(,<=^e2~[               ",
"              @e==[fe3_4><(>!=eg[c^><0'<4=<(4^e<~i              ",
"             #e''e^3'':7:(7(((,>)a}f~07<-;7:4*[<=-#             ",
"             a_2g*><j((0((((7(77-__ah=70-)(:4;^)-))             ",
"            c*)e_'(4(7<(:40(0(7777,eci)0:=,,4:>^_)!k            ",
"            =,2;<:74-4,=,-4<('(((0:!2if(0:;<7('~^(__%           ",
"           1^a~4('-,;!'4(0::<=4(077()[}~47)::,,3d4-4}           ",
"           d~{-:0:=,:00000000<,<0777,_a}-0=!->4!^=)32           ",
"          l**-<>>=<004,==):000(><(0(7,^c!0(=!474e{<=2m          ",
"          +*~,(4><7:=^afdd{2=00(>0077,ec{<0='7:'ea4!~}          ",
"          n]!<4<<0<2dd^33^g}d>00(((7(j-ag(0>(:4'^g:;<~          ",
"          c!<,>,04a}e)><,=-3fg;07'(007=a]704<><:!^'*>2          ",
"         o2_:(,:4{[~-(0007(;~f^(0:,077'~{,0'!(((;{=<-)          ",
"          e)'==(!d^'(000000(-gf;004000>^f-0'((:4_['<2)p         ",
"          ^=<'4(^g;(700770007~f)07:007>]f'0,<<:<2]:>!'          ",
"          g>(,'-[e:0000070000;g)0((070<{],0',7(()g'_<;.         ",
"         ${==*(;[-(70(<(:((00<e)0(:07(*d~0(>((7<2{4'';          ",
"          f=>)(ea=(07707:4(00-2-047007_}~07;444-[~(!))8         ",
"          k-:;:_a>(7<77!32;:(2*((:777>{[-04;4:()[,,*:^          ",
"           )'_(~f-(:>04[)4;'=~'(,(77(*d_0(,((7()[4*,4i          ",
"          q2'-<*]40('7'^;0((<((,:77:-ga-0:!<44!^^(!!>           ",
"           344,,[)(74(<{>007(4:(7((,~};0()>(:'e}'>***           ",
"           &'>-:[2((>>(^e<0700007(-^a_(0;((77,{!';;4b           ",
"            ~!;;)^':4;(-a~><77((<*{a)0(--,::-~{,)=4-|           ",
"            f'4;<[)((,'0;{^3_))3]a~-70=4(7:'3d_7-=>]            ",
"            %*(_4~~-:(>=0:!e]fa]{'77'!4'4(:=f=()~*3.            ",
"             |=)_;3]'(:<;(077:(7(0<-'(744-3[g,)4:,1             ",
"              d->)4{e!:(<:<<><,-;<::44:4,~de4(!',e              ",
"              %*<~-;3[*<4(<4;4-;:,4(7:-3~{=4-*;;3               ",
"               l^)))'_{^=:<:(4:,(7(<,,~]^;(3'>4e%               ",
"                $2'>!:<^ge_=4>::-->~{g['(:')',*.                ",
"                  a'!;>,'!~^age~gff{!-(>);2_-^                  ",
"                   r),4!))<<,>)),,-4'');-::;n                   ",
"                    ld;!!')>),'4)<=>),)=-;am                    ",
"                      %d-',))4!=_:-!-'<)d|                      ",
"                       sqr{~;>4-->')egm$                        ",
"                              n5b&#                             ",
"                                                                ",
"                                                                ",
"                                                                ",
"                                                                ",
"                                                                ",
"                                                                ",
"                                                                ",
"                                                                ",
"                                                                "};
