/* XPM */
static char * EFFECT_5_xpm[] = {
"64 64 60 1",
" 	c None",
".	c #2B00A3",
"+	c #3700B4",
"@	c #3800B6",
"#	c #3B00BB",
"$	c #4905C5",
"%	c #3F00C0",
"&	c #530BC9",
"*	c #B141E9",
"=	c #B744EC",
"-	c #A83CE6",
";	c #C54CF0",
">	c #7E23D8",
",	c #6414CE",
"'	c #520AC8",
")	c #C049EF",
"!	c #C74DF1",
"~	c #EC62FE",
"{	c #F068FE",
"]	c #D957F7",
"^	c #EE63FF",
"/	c #F16EFC",
"(	c #F374FA",
"_	c #FB95EE",
":	c #F782F5",
"<	c #E05CFA",
"[	c #5A0FCB",
"}	c #4000C1",
"|	c #6113CE",
"1	c #761FD5",
"2	c #9933E1",
"3	c #D052F4",
"4	c #9E36E3",
"5	c #892ADB",
"6	c #8326D9",
"7	c #CC50F3",
"8	c #F477F8",
"9	c #4704C4",
"0	c #9430DF",
"a	c #6A18D1",
"b	c #FC99ED",
"c	c #F98BF2",
"d	c #F887F3",
"e	c #711CD3",
"f	c #6E1AD2",
"g	c #F57CF7",
"h	c #E55FFC",
"i	c #2C00A4",
"j	c #3300AF",
"k	c #FFA4E9",
"l	c #FA92EF",
"m	c #FFA2E9",
"n	c #A439E5",
"o	c #DB59F8",
"p	c #FD9DEC",
"q	c #8D2CDD",
"r	c #932FDF",
"s	c #2F00A8",
"t	c #210093",
"u	c #27009D",
"                                                                ",
"                                                                ",
"                                                                ",
"                                                                ",
"                                                                ",
"                                                                ",
"                                                                ",
"                                                                ",
"                                                                ",
"                             .++@#$%.                           ",
"                          &*=-;;*>,&&',$                        ",
"                       )!~{]^/(((_:<=[}'|1%                     ",
"                    [23=!445=64*7~(:8(=;69[|                    ",
"                  @!;0a|a'&'&&[156!]{bcd)e''a|                  ",
"                 a05e&'f|5!**;*e$[1**3{8gh**'a0i                ",
"               j*7[aaa*~/bklmkl:<*a[e-3~_b(<e$&|9               ",
"               5>f9no/kkbmp_lp_c_do0>|*;~:l/!qa[*               ",
"             jr,[,q/plmkd:{__dd:/^(b{e&5!^:mb^-'1;              ",
"             069>7ck_dpmbkmmkl^7;)oh({>[>!(kml7'9fj             ",
"            'e$&!lgpp_kplbbpkkk_(dbmkmd5aq;{lc:4[$r|            ",
"            ,&1*g_lbpddd8cdlbbmkpbckkkmhf,*!(pm/*|f4i           ",
"           n,'=(:k_8/~~o]<o/(cbmkkbbmkkm(f5!(kp/3&,*e           ",
"          %1'1hbc:(3=40f5>5*7(d_ppkb8kkkbna-3dld86}af           ",
"          9&f)lb/<;5a1;>*>**1n3(bmkk:dcpp<[1){__kh>[-[          ",
"         jf')(d832a5o/_~!=c_~q5;{pmkm/h/^(ne=gck:(0'5*          ",
"         &a'7c:3ra-(kk:]*/kkk:oq)8bkkgn-*7!f*^bml_r907          ",
"         [&e/_^na6_bkk8]):kkkkc=q3cmkb;=*-*|67glck)}a0          ",
"         aa<8{2,q{kmp:^=*hgbkkk{4*/pkk8::8g66]8cbk{>[*}         ",
"         '|{:7>a8^kkc{/:l:/38m_~1fockkdpkk_557:kl:/0&n'         ",
"        [e[(g4,*(!lglkkkkkkl~gg= $)dmkllkkbef*(_bk/,,*r         ",
"        },>g^q[(88blkkkkkkkkc]oe 1)gpk_bkkm013g_:k/[[n[         ",
"        +|*c75fd{^ckkmpbpkkkk~!@ q*(mmpckkmq678__p(6$r9         ",
"        s$2:*a=c{]kkmc~o~gmkkc*% n3dmk_:_k:a2]lk::~2|*2         ",
"        #|1^*|3p^gkkdonn)^bkkd=}i =ckk; {l(a4hl_pk]|1*|         ",
"        i,2(=[;l8bmd<)])=:bkk:o[ ao_k_+  <oe-/l_bk*9r3[         ",
"         &4(-[]pgpb(n;:]*{bmk{(4 28bk~  ta15!:bbld-$fo          ",
"         $>/4[*kcppg2hm^hdkpp_k~[(bmp~* #1ar7lkgb{r[2~          ",
"         %';;ancdmp/0{k~gkm_kkl3~kkk~{kk*1e7/_cmk='e)^          ",
"         $1371qdpc_8-<kc8kc]oo~gbkkp^_kb=[=~gplp_f&)h=          ",
"          a2{6'7mdkd-=kk(bkk_lbkkmbpkkk~5r!8m_cb<e$r~@          ",
"          j,<=|nd_m_]q^pbc_mkkkkl_bmkkgf5!(_l_kl0|>=3           ",
"           ,7;e>~k_bg*rgkkbgb:{<{_pb_hn5*/:mdbm!'f-h2           ",
"           5n~q&6b:pbhn2/bkkkc/o]ohh=|43<dkcpch[[=3=+           ",
"            |3o0|7bpmb8*r0~lkmk_g(465*={:pcmk^4[,;]$            ",
"            +,!*ea<klb_(o2r>2*42>5r*h~gbp_cp~e&f*^5             ",
"             @*h2ffocbbpd^o=n02**!o{dlmcbb_^69r-h3j             ",
"              ,*!=a6*dpbbbd:/^/g{d:llmmdpd-4ae){)$              ",
"               [2o-|'q{_kb_pllppbpkpdkkch>$|q;^7$               ",
"                '*<*2a10</dkbcm_pbkmcchrr'f;)^]1                ",
"                 a43!2|&&n*;h^dd8{o)7r'afq2~7r$                 ",
"                  u,)^*)1e''aqe161$&,a,**o^<|.                  ",
"                    #=o~3->2f[|1|,a2r)-<3!4|                    ",
"                     i@f3<<]7=*!*))o7{~)|%u                     ",
"                        +>5>-h/!<^;4ef,[                        ",
"                            i+,99'@i                            ",
"                                                                ",
"                                                                ",
"                                                                ",
"                                                                ",
"                                                                ",
"                                                                ",
"                                                                ",
"                                                                ",
"                                                                "};
