/* XPM */
static char * EFFECT_6_xpm[] = {
"64 64 62 1",
" 	c None",
".	c #2C00A4",
"+	c #3000AA",
"@	c #26009B",
"#	c #210094",
"$	c #3E00BE",
"%	c #6012CD",
"&	c #6716D0",
"*	c #B643EB",
"=	c #A238E4",
"-	c #A73BE6",
";	c #BF48EE",
">	c #8728DB",
",	c #6214CE",
"'	c #3600B3",
")	c #2B00A2",
"!	c #741ED4",
"~	c #5B0FCB",
"{	c #570DCA",
"]	c #E961FD",
"^	c #F270FB",
"/	c #CB50F2",
"(	c #AE3FE8",
"_	c #922FDF",
":	c #4C07C6",
"<	c #3300AF",
"[	c #510AC8",
"}	c #7E23D8",
"|	c #C64DF1",
"1	c #F57DF6",
"2	c #F782F5",
"3	c #701BD3",
"4	c #3A00B9",
"5	c #D857F7",
"6	c #C14AEF",
"7	c #9732E0",
"8	c #F785F4",
"9	c #F477F8",
"0	c #3800B6",
"a	c #B744EC",
"b	c #FA91F0",
"c	c #FC99ED",
"d	c #FFA4E9",
"e	c #F889F2",
"f	c #7920D6",
"g	c #F16CFC",
"h	c #9B34E2",
"i	c #FD9DEC",
"j	c #FFA2E9",
"k	c #EF64FF",
"l	c #27009D",
"m	c #DF5BF9",
"n	c #FB94EE",
"o	c #8A2ADC",
"p	c #D354F5",
"q	c #4704C4",
"r	c #F271FA",
"s	c #8326D9",
"t	c #4100C2",
"u	c #E45EFB",
"v	c #DD59F9",
"w	c #1F0090",
"                                                                ",
"                                                                ",
"                                                                ",
"                                                                ",
"                                                                ",
"                                                                ",
"                                                                ",
"                                                                ",
"                                                                ",
"                                                                ",
"                                .+ @#                           ",
"                         $ %&*=-=*;=>,')                        ",
"                     ) !!,~{,{{~,!;]^/(_&:@                     ",
"                    <&[{,%,,!,,,%{{%}|12|>3$                    ",
"                  .4~~,!_==-5-_663%,~~75895>%0                  ",
"                 $[~&_a]8bbcde885;a|f~{&ae8gh&$#                ",
"                0,3h5bicddjiddddib8kh&%~,(e1^63$l               ",
"              #4%>m8nic12c29jbbdddd8](*3~%=2be;&[               ",
"              4%opdc91c18ni8n28iebddce57%%&h229h&q              ",
"             4,_rebcbne8]^bebjcn9eicddek|s~3me98=%+             ",
"            .{>9n9b95=s}!!}sh/gincb2cddnk;,[!knikf[l            ",
"            qfmecbps&,%{,%~,%3s69cb8ijdd97,~%=b8e(&t            ",
"           +&/28^-!&%&s}>>>>%,&!s^icieddju=_~3988]7%<           ",
"           {_nnr}~{f=;]65ppv7>3,3_5ibedddi55%%;n2d/%4           ",
"          )&abk>~!o(^knnijcbg/7>%3s^jeendd5-&~}2bju3[           ",
"          $791>~,hu1idddddddj8k5_&&=8n1bdd2-},&ub8^>%$          ",
"          &/8a%&(|ndddddddddddj^p}%!5d8jjdjm=~~ae9np!%          ",
"         '3]u,%_gbddjnjjjjdddddik6s3=bbncddk_~{hbed]![          ",
"         t71=,h5bddbncnjcnddddddb^7&}kc8ndd87&%s8ndu3[@         ",
"         $;9!%|2djbindcdddddjddddk-}!pdicjdnk_~}e9bk3{.         ",
"         tpp{&6idd8ndc2g98jddjjddn5f3*jb2jd26s[}8^b2h,&         ",
"        #{/=%=kdi8njg-h>=-mddiidddko3*dbcdde-&~f8edeh~,         ",
"        #~5}%abdcejko&!}-a;^djiddd1h3;iicddn5o%s2nd9f~+         ",
"         ~|3~_ei1e17s=|]9rr]8iiddju_f6j8bdd1k_~hn8ikf~[         ",
"         [/3,|iibca3=52djj9(9ddddik_!5jccddk}%,6erj^}%'         ",
"         q*&&;jib8>fa9ddddd18ddddn6f_8e8nddu(3,/nciuf~_         ",
"         t*3%*icb2f3;ndddddcjddddgh3acbndd85=,}9ejeh%[          ",
"         'hf%*idcgf>mdddddjcdddd1|>h^bbcddko%%;i1ck}~[          ",
"         @=(,=ec8r3f5ddddr1dddj15s>udbejdnp!~3g19d]s~}          ",
"          {a{!^jb1f&pddjjm62b2u-!s5ibcidip*&%=ncd2/f,&          ",
"          qh%3]d887,a2dcne/==7>_a9cccjdd9-,~fr8ei5}%,0          ",
"          l7f&(2bn|&7mjdcnb95apkiincddd^mh,,58^i9_,~!           ",
"           [=~&5jb8>3(9ddjjdjcicccjddd1(f~&-ebndr_~&<           ",
"            =f{=nen53f|gddjcicinjdddb597~%(b8idm_&,!w           ",
"            q=~}6eje533-medddddddderuff%&=er8j2h,~}[            ",
"             _s~!5j28/f,f*r]192rm8a>_,~f51cijim&~,%             ",
"             )=!~_9bnb]o%3s!(_h=!>f~~&hg81nj9|=,{3              ",
"               7,!_5ib11/7!%,&%,~%&f(u1b8ndk=3{%=               ",
"               q=~%fucni28r/(h=o_;m9n91bdb9|&~&f0               ",
"                 3&{o-|bjbc1921918r2cide57f!%3=                 ",
"                  %&%~3*urnicdnbididcru]o%{{>h                  ",
"                  #%_}~&>>=kkg9bkg]^6s3!&{!!q                   ",
"                     %f3%~%f}3}(>3&f}~~~fs~@                    ",
"                      )}=s&%~[[{,~~~,&>f%0                      ",
"                         . 7=o-=}h*>h%                          ",
"                            #  )  #                             ",
"                                                                ",
"                                                                ",
"                                                                ",
"                                                                ",
"                                                                ",
"                                                                ",
"                                                                ",
"                                                                "};
