/* XPM */
static char * EFFECT_1_xpm[] = {
"64 64 5 1",
" 	c None",
".	c #1F0090",
"+	c #210094",
"@	c #240097",
"#	c #28009F",
"                                                                ",
"                                                                ",
"                                                                ",
"                                                                ",
"                                                                ",
"                                                                ",
"                                                                ",
"                                                                ",
"                                                                ",
"                                                                ",
"                                                                ",
"                            .. .+                               ",
"                        .. .     . .+                           ",
"                       +.            .                          ",
"                     +                  ++                      ",
"                   .                                            ",
"                 .    ... .. .+. ..  .. .  +                    ",
"                 + ..           .        .  +                   ",
"                @.         ..    ..         +                   ",
"                +                            .+                 ",
"              +         .                      +                ",
"             +                                 ..               ",
"             .                        .         .               ",
"            .         .                         +#              ",
"           @#                                    @+             ",
"           +         +                  .                       ",
"                    .                    .        ..            ",
"          ..                             . .      +             ",
"         + +     .  .                    .   .    . .           ",
"           .    .                                               ",
"                                                  . .           ",
"        .  .  .                                   . +           ",
"        +  +                                      .             ",
"           . .                                                  ",
"                    .                                .          ",
"        .                                       . +  .          ",
"        +  +                             .      . +  .          ",
"        .  .                                                    ",
"                                                .   .           ",
"         .   .                                  .+  +           ",
"         +  .         .                         .   +           ",
"         .   @                                  .               ",
"              .                                    .            ",
"          .                         .          @   +            ",
"           @   +          .                   +   .             ",
"               .         .  .                                   ",
"                 .                          ++   .              ",
"             +   +                          +   +               ",
"             ..   .                                             ",
"                   .@                    @+                     ",
"                +                     . .    +                  ",
"                 +     .+.           +                          ",
"                   .     ...... ++...     +.                    ",
"                    +.                   +                      ",
"                     . .              +                         ",
"                         +  ++. .++                             ",
"                                                                ",
"                                                                ",
"                                                                ",
"                                                                ",
"                                                                ",
"                                                                ",
"                                                                ",
"                                                                "};
