/* XPM */
static char * EFFECT_8_xpm[] = {
"64 64 55 1",
" 	c None",
".	c #3D00BD",
"+	c #3C00BC",
"@	c #6616CF",
"#	c #4603C4",
"$	c #580ECA",
"%	c #3700B5",
"&	c #520AC8",
"*	c #D052F4",
"=	c #C14AEF",
"-	c #B744EC",
";	c #9E36E3",
">	c #AE3FE8",
",	c #C64DF1",
"'	c #D555F6",
")	c #A73BE6",
"!	c #7F24D8",
"~	c #2B00A3",
"{	c #8E2DDD",
"]	c #7920D6",
"^	c #6C19D1",
"/	c #E961FD",
"(	c #B241EA",
"_	c #3300AF",
":	c #8829DB",
"<	c #6B19D1",
"[	c #5F11CD",
"}	c #4000C1",
"|	c #DF5BF9",
"1	c #F783F4",
"2	c #4D07C7",
"3	c #570DCA",
"4	c #2A00A1",
"5	c #27009D",
"6	c #CB50F2",
"7	c #DA58F8",
"8	c #F16AFD",
"9	c #9430DF",
"0	c #9832E1",
"a	c #F785F4",
"b	c #F270FB",
"c	c #F375F9",
"d	c #F98CF1",
"e	c #F067FE",
"f	c #F57BF7",
"g	c #F477F8",
"h	c #FB93EF",
"i	c #BC47ED",
"j	c #FD9BEC",
"k	c #751ED4",
"l	c #FA92EF",
"m	c #240097",
"n	c #FD9EEB",
"o	c #3700B4",
"p	c #3100AB",
"                                                                ",
"                                                                ",
"                                                                ",
"                                                                ",
"                                                                ",
"                                                                ",
"                                                                ",
"                                                                ",
"                                                                ",
"                                                                ",
"                            .+@#$+%                             ",
"                        &$*=-;;>,*'*')!~                        ",
"                      {-)!]^]!]]!]!{>=/({&_                     ",
"                    @!:<[@<&}&[&[]@]!:)|1'@}.                   ",
"                   {:<<$##}22}#2#2&$]!]{)|';[34                 ",
"                 5&]2###3-()67))(<223[[^!)|8923#                ",
"                 0$32&:)-abcdef188):22&^!!97b:&$<               ",
"                02.}@0f8/cgagee*:0)=)@&&$^:{7|;2}               ",
"               _^3&],gdcg|bc/chdc|{3]-<2&@!:)f'$}@^             ",
"              3&#$)cb/i)9990))*cdje=0[<32&kk{>ei23@&            ",
"              ^#[i8|>0{:::!:{:)>,cl1|<2]@#@[!:=e{&}:            ",
"             &[<,c=9:!]k^^^<!]{{9i8l1'{2&2&[]!>g|$.[$           ",
"             #&)b)!!k^@[[$#[[[]!99>*f1,#3^[&]!{71].${#          ",
"            @}9ei:k^[232}22#}33@]!0)/jei[[$[$]{)8'[&[0          ",
"            <^8i!^@&$2&#30{&$2#3$@{{>cae<2&&3^:;8c!##]          ",
"            @)|9!^&3@22}2^3##&(^#$]{0|j8]&@$#k!{8b{}2!2         ",
"           mk8)!<3223#&@0i{!2@@3$2$!9-fa=[2#@$]{=a9.2])         ",
"           ~0e!!&3-[&]*efg8cie]#{^$^{>ba|^&&[@<:(g*$&$-         ",
"           .i(!@2!:3ighnlhjnhe![9{}<:0'j8!&[&@:{-c,$#${         ",
"           $'9<&<|^-1jac||ghjj''> o$!{=ac)2&3@k{(a8k#@{         ",
"           ke!]&!7)bl/,>;0)6fndfi~_3]9>d8k2&3<^{)af]#^{p        ",
"           :7![2'7|l*0;{!]!{,hlg^~ 2!0-ac{2&#@!:)g/^&$9_        ",
"           {,k3&|b1f)9!@-@[^98hf@4~&!;6l80&#$@!!,g*$2$0+        ",
"           k(!327|a6{]&&)33$!=jl]4_$:>bd*$22@$!{7a'3&@)         ",
"           ],!2kaff;{^220,<$k7lh-~o<{(d16&232^!9/g>.3]-4        ",
"           2*!&&68b;][##!b :@ga'6 #!9,jc@#&[$!:-8b!23k-         ",
"           ~6!@#7g|;!<2#-na9:/(<)!^{)8h|$&&$$!{'g8^23!9         ",
"            ,]$&'1b9^$@37l-3@<0!3^{)'f|@3&23<!9bf)2#$9          ",
"            ;932:fc0!<2}=n7]&&&^^:)6df(}2$kk::,88:}[:-          ",
"             -k&^1g(:<&#@/c,{::{0-elf:3$3&<^:>g862&${0          ",
"             =!3&)8,{][3#:81|'6*bad60&3[[[!!;/1|;#2<i]          ",
"             <0[2^/b(:^&[&!*fa11c'-[&[@&[<!9'f8).#[!{           ",
"              i![}{bb;:<2[^@^!{:[$3[![[<^:{7ge02&<!;.           ",
"              }0@#2(f/9!<$3kk:{9{<<22$@k!9,de(<23^>2            ",
"               !9[2&ic70!]@[[$@@[![@$!:{>8b/-$}3[{-             ",
"                {:<230/e({!!^<@@@<]!!{>igcei22$]!-              ",
"                o)!$22^=|7=)09{::{{0)*1c7=!2#3<{)#              ",
"                 _({[&#3>68|gc,='67b8g/|92#2[<0,o               ",
"                   -0]3323{)|e/8ee7*6]]2223@!0=                 ",
"                    3)]@$##2&k@]]!@$32&&@$^9*                   ",
"                     +{){@$33#2#}#&#&&[^!:i0&                   ",
"                       .{);!!$$[@3$@!]{)>0@                     ",
"                        m+$)-()0{{;>(-)&p                       ",
"                               <]9$}                            ",
"                                                                ",
"                                                                ",
"                                                                ",
"                                                                ",
"                                                                ",
"                                                                ",
"                                                                ",
"                                                                ",
"                                                                ",
"                                                                "};
