/* XPM */
static char * EFFECT_10_xpm[] = {
"64 64 18 1",
" 	c None",
".	c #210093",
"+	c #3400B1",
"@	c #3A00B9",
"#	c #3800B6",
"$	c #3E00BE",
"%	c #4000C1",
"&	c #2F00A8",
"*	c #25009A",
"=	c #2B00A2",
"-	c #3300AF",
";	c #2D00A6",
">	c #4402C3",
",	c #1F0091",
"'	c #4D07C7",
")	c #28009E",
"!	c #570DCA",
"~	c #5009C7",
"                                                                ",
"                                                                ",
"                                                                ",
"                                                                ",
"                                                                ",
"                                                                ",
"                                                                ",
"                                                                ",
"                                                                ",
"                                                                ",
"                                                                ",
"                              ..                                ",
"                          +@#$%$#@&*                            ",
"                      =-#-$-;;#&;+%$$#&                         ",
"                     -#+;&--->+;&+#&&>>@;*,                     ",
"                  .&-;*;$%%#''$>%>+--'##%#&)                    ",
"                  ;#;; #>'>'#-  ;# @%##+@$$-),                  ",
"                 ); =>''''>$    &@+#@#-@%&@$+-&                 ",
"               .-;* +%%$%>>%$+-&;==));##+&&>@&;)                ",
"               =&)*&$>''!!!!''>%&  *. ;&-+>!>$&;*               ",
"              )&)*#>'>%'@>%@'%%!'+)      &@@@% *-)              ",
"              ;; @$#'%%@ &#@ *&>'!%),,. ,.&$-%# =&.             ",
"             =-#$%>@%@; *$@). * =$'@)*=* ) @>'%- =;             ",
"             ;$%@@'-+=  =% ..*.  *'!%@;.;-@#$>>% .;;            ",
"            .-%'%+&;#;*&'   . , =-->>%&*)*  $#@>@ ;#,           ",
"            &@#@$+;&;  %;, . ,*;-= -''>'>;**-%>'%#=-            ",
"           ,+%+++-); ,='      * .+'>-'%=&&$-=@!'%'&;&           ",
"           .@$%#@= +. #'=*) ,.;  $+ .'>.  +%+#$'%!+=@.          ",
"           *$&+%&.-# #>>%'!# ).*!  , ;'   .*-@'%>'@;$           ",
"           ;%+#'+ ->$>' .  %>@ %-  . )!#.  , &''>>@=-           ",
"           @$@#$+=->$&'  ,  $'-', ,   '$  .  &$!>>'&;           ",
"           @&-%$&;$>;)'    ,=%!#   .  >$   . &%>>'!$-+          ",
"           @--%%;@'+ )%) ,, .&!=      '>. * .-'@''>@#-          ",
"           $@#@>#''@ )'    .) >)  ,.  '+ ))  &>'>>$=&-          ",
"           $&@'>@'@#) $-     *@)     ='-& *.*@#'@>'&&-          ",
"           @&->>$'++) -$     =#    , @% *- &;$-%$$'#+-          ",
"           +#+%'>!#;; .%= .  = +  . .'$  )= +%%>>%#-%           ",
"           ;#@' >>-.&. >>   ..,*;,, +>;  .+->'!%>>-;@           ",
"            -&%%$'$ &= #>     ,, ; )'+  , %-%#%%''+;+           ",
"            @&#@@'%-=-)+>') ,,, . -'@   .;@@>%%>''##&           ",
"            ##@'%>>+ *; @%#  ,   #'%  .  #%$'%$>##+$            ",
"            =-;#%$>>).;-;#'$  =;%'&  ,. -+%@>%>'$&-&            ",
"             #&+'$%'#*.)));@>''%&.  .  #$%'%>>!'#;+.            ",
"             =$@!!%%@+ .-;* *=@%& *  --->@'%%%$'+$;             ",
"              +&&#'>>'%;))&=*.* =)=- +#>>%>>''-&#$              ",
"               +&#''>>'%%)*&-=)    ;-@@>>%>%!%&;@               ",
"                $#$%>>>>%$@@ @$+&+@>%'%>%>'$%@-#                ",
"                &@;&>>'>%'>>>>>%%%'$%%%%%!>@-+$;                ",
"                ,=@+@%>'>%%%>>>>$%%>>%>'%~%&;@=                 ",
"                   @+;&!'!''>>%%%%'>'%'%+-+$@                   ",
"                    ##+#++$!'$'''$!>@+%-;-@+                    ",
"                     *#$-&+@-&%>#+%#;;+@@&*                     ",
"                       )&+##&&+-;&+@++#&)                       ",
"                         ,.;++@$@+++&                           ",
"                                                                ",
"                                                                ",
"                                                                ",
"                                                                ",
"                                                                ",
"                                                                ",
"                                                                ",
"                                                                ",
"                                                                ",
"                                                                "};
