/* XPM */
static char * EFFECT_4_xpm[] = {
"64 64 58 1",
" 	c None",
".	c #240098",
"+	c #3000AA",
"@	c #3300AF",
"#	c #3E00BF",
"$	c #4E08C7",
"%	c #2D00A6",
"&	c #3A00B9",
"*	c #4C07C6",
"=	c #9B34E2",
"-	c #AE3FE8",
";	c #8F2DDE",
">	c #6113CE",
",	c #6616CF",
"'	c #570DCA",
")	c #4100C2",
"!	c #6F1BD2",
"~	c #3500B2",
"{	c #BD48EE",
"]	c #F57DF6",
"^	c #F373FA",
"/	c #E05CFA",
"(	c #F26FFB",
"_	c #F98BF2",
":	c #F16AFD",
"<	c #8528DA",
"[	c #711CD3",
"}	c #6B19D1",
"|	c #8427DA",
"1	c #4603C4",
"2	c #EA61FD",
"3	c #EE63FF",
"4	c #CB50F2",
"5	c #CA4FF2",
"6	c #A339E5",
"7	c #5B0FCB",
"8	c #F887F3",
"9	c #F47AF7",
"0	c #D857F7",
"a	c #7E23D8",
"b	c #B543EB",
"c	c #B845EC",
"d	c #8E2DDD",
"e	c #9531E0",
"f	c #AC3EE8",
"g	c #DD59F9",
"h	c #F782F5",
"i	c #FFA2E9",
"j	c #FC97EE",
"k	c #D052F4",
"l	c #C44BF0",
"m	c #FEA0EA",
"n	c #FD9AEC",
"o	c #FFA4E9",
"p	c #220095",
"q	c #2900A0",
"r	c #1F0090",
"s	c #27009D",
"                                                                ",
"                                                                ",
"                                                                ",
"                                                                ",
"                                                                ",
"                                                                ",
"                                                                ",
"                                                                ",
"                                                                ",
"                                                                ",
"                                                                ",
"                            .++.@#$%.                           ",
"                          &*=-;>,>')#$!*                        ",
"                       ~{]^/(_]//:-<[}$)'|)                     ",
"                    1=/222(34(:32_](:5=}$'};                    ",
"                  ~6542[<}77}[}6=8^9]_/05a$1!!                  ",
"                 [/b=,$1$,}[[>$*'[=/2(((2cd$)|=%                ",
"                ,/-71!eb20030{{f;7'!-/9(_:24!*[f#               ",
"               =b;1'e232^:^g;[}a6-d,)!/^8hijc[)>5               ",
"             +{k**[52_3_]/d[11>=l-/5['}2(^h_36,)e4              ",
"             =6$'fh^3h]i:[ &7;c:(3mmh-$$498_h_47'k*             ",
"            ';''=/n:_in8^g6c4//_o_oijm4'a{8:^i^67ac)            ",
"            b'$-/3/hi__8h_8_n__no_o__j^=7=3/:]^k[)<c%           ",
"           c!*|:o9h]h]8_h8]_8_jii^/l;[[;,*b(h_:j4'!5|           ",
"           6>[4:_8h9:2l4b{4/8_jnjk%p     1<k98(ng[*6=           ",
"          #$'l_j^^:-;}***>,[<k_jmh       ~,/2(93/=1[4           ",
"         q[1,/__8/;') &7=:93[!b(hik  r r %$;]88h9/,*0           ",
"         }|$-/h^0!!- r&<k]oo([*6^nn6ss+~~#>|/j_9]^a$bg          ",
"         >7}l883<,((~ ~d2nmo(~ ~-_n_<<f5c6d>/h9(30d*;k          ",
"         !#a:^(=7g_{ s'l]mo_-  p>/jm]_h_8(0$f]]://=*e2%         ",
"         [$;::{,lohd @>khnoh*    ;_njioooo:$b(_04_k$'4@         ",
"        7<'{_]<|hoob  *=/_j/     }9in9]jmo]}{hh5-95$[g<         ",
"        ~}>/]k,6h8_[ )l/2:g{   r !:n_ [[=337{89e-3{,[g*         ",
"        s*703->/mo]}$hmiii9=     </_h@   +;7ch]{=3c';h&         ",
"         1,k:a[(ooihnj__8hi3    #|2n-      ,-:_be8k1,k~         ",
"        @}!2/[</^_jjj9lf0]nj   r~;(me      7/9_k;2e1e2          ",
"        %,,23}6//mj_^;)a38^n'    ehn)     +[:]hk6k<$;/&         ",
"         $7/(,=/^on_g  }g8n_6    /_{    p $c9__/03!7/3          ",
"         #*g^aeg/8nnlq.*=^m8h~  =__} r,g>~>^h__092'>2g          ",
"         +'c3<[(0:jnb) .$kmn_5 79m=   )^5$;h9mn24d1<2b          ",
"         $!;/f75gg8j5[~r#=__(23_8!    b_|[g9h_9/5!7l([          ",
"          ,}(47b(48jg[dq.+6____j01   686'c98ii38e)6(g           ",
"          @1g0[a:l28^d=f  $a09mim_h]8j-[f]]__8(/}#l3a           ",
"           *;g=$62g(_0a47%qq}f2hjmnn9f,59hhm_/5[*|k5!           ",
"           |753[}^(4984a=l& % a<5//5!|58:_in]8=',53ds           ",
"            $a/l$<2kgj_(;[d[& ~ [;!ae^hh9_o:0c$$3h5~            ",
"            ~$bkd';3:/]_9g;|!7},[;l3^98ji]_2='$d//7             ",
"             +!4:[*f:0l:]]^^gkg03:98_jm_h/]-7$=/ke@             ",
"              'd24,$;5:/2:^^]^__(_8_hmh]3c<$$4/:=               ",
"               'ek4{',5///gk23(hhhj9g/(]l}1,=23a&               ",
"                 !0/=*)[=:(/:923^^39^ce!1>|0/l<$                ",
"                 7>4/{{>$>a|kg50^5=;|'',[4::{d                  ",
"                  s>fk94=a[*'$,,!$'**<c5//0;#q                  ",
"                     [62/:3=a<;|};-f52]2k;1$                    ",
"                     q@7[c0/g/://g(2g4c!$~                      ",
"                         $*!}==fbde!}$ *                        ",
"                            s ')1 qq                            ",
"                                                                ",
"                                                                ",
"                                                                ",
"                                                                ",
"                                                                ",
"                                                                ",
"                                                                "};
