/* XPM */
static char * EFFECT_2_xpm[] = {
"64 64 18 1",
" 	c None",
".	c #25009A",
"+	c #2A00A1",
"@	c #28009E",
"#	c #2C00A4",
"$	c #3100AB",
"%	c #3E00BF",
"&	c #4E08C7",
"*	c #4C07C6",
"=	c #530BC9",
"-	c #4402C3",
";	c #3500B2",
">	c #4100C2",
",	c #3C00BC",
"'	c #3800B6",
")	c #1F0091",
"!	c #220095",
"~	c #5B0FCB",
"                                                                ",
"                                                                ",
"                                                                ",
"                                                                ",
"                                                                ",
"                                                                ",
"                                                                ",
"                                                                ",
"                                                                ",
"                                                                ",
"                            .+@@#$                              ",
"                         .#%&*&=-;*=&>#                         ",
"                       +*>&-; ##+ $,$$&*'.                      ",
"                     @>&- + .       ) ;%>%$                     ",
"                    ,*-=-$$$#.         . +&-.                   ",
"                  !,*>>&%-*;'*>'+@$';;;;# >--#                  ",
"                  %=>';+      %*==*&=,$&&&>%>>@                 ",
"                 %*%#       +%-$$#;>&;!@$ -&-=&$                ",
"                %>>        '>%;!    '-  )  ,$*-&#               ",
"              !;&,        ,&$        $>      ;**,               ",
"              ,-$!       ,%#          #>.     $$&#              ",
"             '*-        $%             #;       -&              ",
"             **>+      #>$!             '$      ;-'             ",
"            >-&$       %                .*.     .>-$            ",
"           ;*&#      .>*,;$!             %$      #=*!           ",
"           **>;)   #$$&+   @$        !+.@;-      !*~%           ",
"          @*&=#  .,@ .,      ++   ).@@. @ %'+     +->           ",
"          ,'%*! !,   $>       .@ )@. )    $ ,$    +*&+          ",
"          =,>'  ,!   $+        . @!        ,@#$   @=&>          ",
"          ='>>#;@    ,+         '          %  >$  @&=&          ",
"         +-$-= ;      '        )'         !,   >   %&-.         ",
"         $' >,%+     >         )@!         ,   ;' !>*=.         ",
"         '>$*'%!     %+         !          '    >  =&*@         ",
"         ;& --%      %'        .          ##    -+@*$;+         ",
"         $-.'&,      #$        !          ;@     $ -,>$         ",
"         ;; $*$       >                )  ,     $*,$$=+         ",
"         #-+ &;      .%.        #       )$;     @*='#=          ",
"         .=$ >-@     ## )                %@      %&; &          ",
"          -' $*$     @ ;+     !          %      '&& '%          ",
"          ,$ @&#     @ ##!             )';      #-, =;          ",
"          #*$ ;$@)   .  +'             $ +      %& +&           ",
"           &- +--.    .  $$.          $' !     '*' +-           ",
"           #-  *=$    .   #% )       #  +      ,* +-$           ",
"           !> . -' !   .@  @$, !   @, $.      %-+ %>            ",
"            ;*, %--;     +@  +$ +$%%>+        *$ +*#            ",
"             %=@ %-&       .@+#+@          )$%, @,,             ",
"              %$ #--$+                     ;&'# *,!             ",
"              +&> #-**-                  .,&;  >&               ",
"               +*=$ '*-';              . ->, .$&+               ",
"                 -> $,&---$ $  )    ! %*&' +;&>$                ",
"                 @&--$ $&&&>>>+$$;$--*%,  !+*%                  ",
"                   $*- # #$>&=--&&,-$@ !+;-*;                   ",
"                     ,=-*>   + ;$   . @@%*$@                    ",
"                      +'>*%'*>  ,,+ -=**%!                      ",
"                         +---->*=&>&>$                          ",
"                              @.  !                             ",
"                                                                ",
"                                                                ",
"                                                                ",
"                                                                ",
"                                                                ",
"                                                                ",
"                                                                ",
"                                                                "};
