/* XPM */
static char * EFFECT_11_xpm[] = {
"64 64 6 1",
" 	c None",
".	c #1F0091",
"+	c #210093",
"@	c #240098",
"#	c #26009C",
"$	c #2900A0",
"                                                                ",
"                                                                ",
"                                                                ",
"                                                                ",
"                                                                ",
"                                                                ",
"                                                                ",
"                                                                ",
"                                                                ",
"                                                                ",
"                                                                ",
"                                                                ",
"                             ..  .                              ",
"                         .+     + @ @.                          ",
"                      @@   ++++@+  @+@@@                        ",
"                       . + @##@@+@##+ .++  .                    ",
"                   @. . +@. +.      @++ .+++                    ",
"                  .+  .++..  .                .                 ",
"                ..    #  +++    @@@@@@@$#@ . ++                 ",
"                @   @   @+++.@@         @##+                    ",
"                .  @+. +.   #  @++. ..   @$# . .+.              ",
"                 ..#@.          .@+    .  + @#  +               ",
"             .@ . $# . . @# .    . .   .   . @                  ",
"              @  ##  .    .       .+@       @##+  +             ",
"              ...$#    .+           .+   . .  @@  +.            ",
"            +   @+  .  ..           .@       .+                 ",
"             + @$      .            .++..+ .. # @.              ",
"             + @$+.   +@             .+   .  + + +. +           ",
"              +#@@     +  .                .+++@@# .+           ",
"           ++.##+. ++.      .               .++++#+             ",
"            @ + # ... +      .         +     + @  .             ",
"            ...+@++                    .      @ ++@.            ",
"             + + +.  . .               +      @+ @#+.           ",
"           @+@++#@.  .+       ..   .   .    . +@. +             ",
"           @@ . ##     +  .    .      +   .  . # .@ .           ",
"             +  ##    ..                  .   @# @$+            ",
"             +# @#                    .      .## +#+.           ",
"            ++@ .#      +                     #+ @              ",
"            + @ .#@. .           .   .    . +  ++@+             ",
"             +#@ ##    .. .        ..    .+ @@@ +$#+            ",
"             @.@  #+     ..      . +        +@+ @# .            ",
"             #+@ +@++     +     ..      +  .+@ @@+              ",
"               +#+ @@     .+++.+.      ..   @+ # @.             ",
"                +@. +@+. .    .+.  + .+  .+## @@ +              ",
"               @+@@. #@        . .    ++@ +@@@ @                ",
"               .+@#@. @#@+.   .    . ++ @#@ @+ #                ",
"                    +   @#+.+     +@ @ +@@@+@@ +                ",
"                 ++.###. @@@## @#+@@  #@  @ +                   ",
"                   + +.+ #  @#@#####+++@+@@ +                   ",
"                    .. @@++ @      @++#  +++                    ",
"                     .. .  # .+@+++@  #. @                      ",
"                       . +@+. +@. @+.+@...                      ",
"                           . ++  ++. +                          ",
"                               ...                              ",
"                                                                ",
"                                                                ",
"                                                                ",
"                                                                ",
"                                                                ",
"                                                                ",
"                                                                ",
"                                                                ",
"                                                                ",
"                                                                "};
