/* XPM */
static char * EFFECT_9_xpm[] = {
"64 64 48 1",
" 	c None",
".	c #26009C",
"+	c #2B00A3",
"@	c #3100AB",
"#	c #4E08C7",
"$	c #6716D0",
"%	c #6F1BD2",
"&	c #751ED4",
"*	c #711CD3",
"=	c #5D11CC",
"-	c #550CC9",
";	c #2C00A4",
">	c #580ECA",
",	c #7E23D8",
"'	c #4C07C6",
")	c #8829DB",
"!	c #3D00BD",
"~	c #4402C3",
"{	c #3A00B9",
"]	c #3900B7",
"^	c #8A2ADC",
"/	c #8225D9",
"(	c #3700B4",
"_	c #4201C3",
":	c #A83CE6",
"<	c #9E36E3",
"[	c #9732E0",
"}	c #BD48EE",
"|	c #3200AE",
"1	c #9C34E2",
"2	c #B141E9",
"3	c #B241EA",
"4	c #A439E5",
"5	c #922FDF",
"6	c #B845EC",
"7	c #25009A",
"8	c #DF5BF9",
"9	c #CA4FF2",
"0	c #EE63FF",
"a	c #E860FD",
"b	c #1F0090",
"c	c #CE51F3",
"d	c #EC62FE",
"e	c #220095",
"f	c #D153F5",
"g	c #DA58F8",
"h	c #D857F7",
"i	c #6214CE",
"                                                                ",
"                                                                ",
"                                                                ",
"                                                                ",
"                                                                ",
"                                                                ",
"                                                                ",
"                                                                ",
"                                                                ",
"                                                                ",
"                                                                ",
"                             . ++                               ",
"                         @#$$%&%*&*=-;                          ",
"                       >=>,$-'=$=*)$*&&-!'                      ",
"                    +!%%~!!{~!]'#!'=$^//)&'(@                   ",
"                   {=#!]{_!],*{=*_!=_-&&,/%~{{                  ",
"                  ]$~!!'>:<[}}&^<##%-!-#,,&/-!!;                ",
"                 |!!|#12}32:<)/&%=,*_!/~#%%,[-(~'               ",
"                {'__-,}1[<1^<^,)%((!'-=/_~$),$!]~               ",
"               +#]_)<[45^)5^^)[}:&$!]#~($=_%%^^=(']             ",
"              +{]{$<5&,^/,,/,//5[4}- {]_-&->,&[5]{-+            ",
"              -{',)/)/)=/-%&$5,//^41[,!{---~#)^)!|!(            ",
"              '(&5&,$=%~!{->#'-*/)5<6^>#~!=&_*/),>{']           ",
"             |{-)&)*-#'!|{$-|(@_#,^)51^$(~~%!**,</!'$+          ",
"            !!=)*%~'>>];|_'@(;;#,>%,):3$-];]'~$/[1{(#!          ",
"            #{,),->,{(@(=3-7(@#~#!'*)5:5<*@!,_=5,<*__{          ",
"            ~-,&-#'-|@@|-=_;@{^^]~=-,^<4*%_%*~*,/[2#!$          ",
"            ~&*%-/--#]|-^ '' -&>>>->>)[3|  =~~~*&4}={*_         ",
"            >^/'_#=!&*^163:6:4*][6]@]$^1^. ;(=!$)25{(-=         ",
"           (=%='/>|_/4}2<44}89*$[<; .!)2[|++|*=*,/1$~_#         ",
"           @$,-#*$!,6:11[#=*29}25. 7+{5[[].;;~~*%[3:{~=         ",
"           @//~'%-=34)*&&;; ^20a/ b7. /14,~;@#{=/43^{#=         ",
"           |/%~%[>/:/='== +|,[c8~ b7+!)<2$$({-_&^:<~|~>7        ",
"           #*$_')&6[*~@>3|..$1<d!b .+=/1[$#(_~-,&^2&_'~         ",
"           |&*_/<&[5$]@#< ..-[^a>bbe7!^}<f, !#_*&48<]~=         ",
"           +*=_)3[5/=~(-[#  {54g[eb7+>1:=%,'=--^[4:>!%=         ",
"            &${=:5),==;|,6 ]+^} <  +!^2/. ]_#-*)/:%@{==         ",
"           e**!/c<^*-_.@:8 + ,6_*# ;&[4  e_-'-&&5f3#_>          ",
"            =$!=245/#!!{:2=   $={'-')41 7.@&'=)5<h^!_=          ",
"             $~]%:4/''!|$}^!@+@~-~*/<4$ e.!'=^/5[-_!$~          ",
"             %=![}[/=#{{)3[&= {'&,[<[,-; ]>_,&)[c#(#i~          ",
"             _&_=5[)%='~%*<<^,,/144,! ;;(-'>)[160=!>=.          ",
"             .=#]'2[/=-~{( )1144<5_|;|(>=~$,/2<)<__=!           ",
"              !$~=f45*'=#~_(!'$>*>]|%=_=#-/,^13]|~&~            ",
"              ;*>!-$1/,#'&#-=]+(_||(>*--&)):4h}>{>%@            ",
"               (=#(%h:[*$--$*$'~>_>>!#>,&/)6/*=_~$              ",
"                ($>_)^4/,%=#>%->%-#>=&/)[[:0/(_>&#              ",
"                b=&~]{26<),/**====&)5)553^[1%_=%>               ",
"                 e>$#_-1&11)^5),,/,)1:5}d$|__>%'.               ",
"                    ==_{][})<2<55[^<c}'[%~_=&%#                 ",
"                    |===~!'($2&-:}>=5%({!_-$*                   ",
"                      ]-*#~~{!](~#]({{'>$&=!7                   ",
"                       .(#==='#-#'#-=>%>>!                      ",
"                         e7@====*$$-=-] b                       ",
"                                  ;                             ",
"                                                                ",
"                                                                ",
"                                                                ",
"                                                                ",
"                                                                ",
"                                                                ",
"                                                                ",
"                                                                ",
"                                                                "};
