/* XPM */
static char * wall_dark_xpm[] = {
"64 64 9 1",
" 	c #482B29",
".	c #5F3D34",
"+	c #7C6255",
"@	c #110000",
"#	c #6E5146",
"$	c #75594E",
"%	c #856F60",
"&	c #000000",
"*	c #271214",
" ......+ ......+ ......+ ......+ ......+ ......+ ......+ ......+",
"@ ##$$%.@ ##$$%.@ ##$$%.@ ##$$%.@ ##$$%.@ ##$$%.@ ##$$%.@ ##$$%.",
"&@****$.&@****$.&@****$.&@****$.&@****$.&@****$.&@****$.&@****$.",
"&&****$.&&****$.&&****$.&&****$.&&****$.&&****$.&&****$.&&****$.",
"&&****#.&&****#.&&****#.&&****#.&&****#.&&****#.&&****#.&&****#.",
"&&****#.&&****#.&&****#.&&****#.&&****#.&&****#.&&****#.&&****#.",
"&@&&&&@ &@&&&&@ &@&&&&@ &@&&&&@ &@&&&&@ &@&&&&@ &@&&&&@ &@&&&&@ ",
"@&&&&&&@@&&&&&&@@&&&&&&@@&&&&&&@@&&&&&&@@&&&&&&@@&&&&&&@@&&&&&&@",
" ......+ ......+ ......+ ......+ ......+ ......+ ......+ ......+",
"@ ##$$%.@ ##$$%.@ ##$$%.@ ##$$%.@ ##$$%.@ ##$$%.@ ##$$%.@ ##$$%.",
"&@****$.&@****$.&@****$.&@****$.&@****$.&@****$.&@****$.&@****$.",
"&&****$.&&****$.&&****$.&&****$.&&****$.&&****$.&&****$.&&****$.",
"&&****#.&&****#.&&****#.&&****#.&&****#.&&****#.&&****#.&&****#.",
"&&****#.&&****#.&&****#.&&****#.&&****#.&&****#.&&****#.&&****#.",
"&@&&&&@ &@&&&&@ &@&&&&@ &@&&&&@ &@&&&&@ &@&&&&@ &@&&&&@ &@&&&&@ ",
"@&&&&&&@@&&&&&&@@&&&&&&@@&&&&&&@@&&&&&&@@&&&&&&@@&&&&&&@@&&&&&&@",
" ......+ ......+ ......+ ......+ ......+ ......+ ......+ ......+",
"@ ##$$%.@ ##$$%.@ ##$$%.@ ##$$%.@ ##$$%.@ ##$$%.@ ##$$%.@ ##$$%.",
"&@****$.&@****$.&@****$.&@****$.&@****$.&@****$.&@****$.&@****$.",
"&&****$.&&****$.&&****$.&&****$.&&****$.&&****$.&&****$.&&****$.",
"&&****#.&&****#.&&****#.&&****#.&&****#.&&****#.&&****#.&&****#.",
"&&****#.&&****#.&&****#.&&****#.&&****#.&&****#.&&****#.&&****#.",
"&@&&&&@ &@&&&&@ &@&&&&@ &@&&&&@ &@&&&&@ &@&&&&@ &@&&&&@ &@&&&&@ ",
"@&&&&&&@@&&&&&&@@&&&&&&@@&&&&&&@@&&&&&&@@&&&&&&@@&&&&&&@@&&&&&&@",
" ......+ ......+ ......+ ......+ ......+ ......+ ......+ ......+",
"@ ##$$%.@ ##$$%.@ ##$$%.@ ##$$%.@ ##$$%.@ ##$$%.@ ##$$%.@ ##$$%.",
"&@****$.&@****$.&@****$.&@****$.&@****$.&@****$.&@****$.&@****$.",
"&&****$.&&****$.&&****$.&&****$.&&****$.&&****$.&&****$.&&****$.",
"&&****#.&&****#.&&****#.&&****#.&&****#.&&****#.&&****#.&&****#.",
"&&****#.&&****#.&&****#.&&****#.&&****#.&&****#.&&****#.&&****#.",
"&@&&&&@ &@&&&&@ &@&&&&@ &@&&&&@ &@&&&&@ &@&&&&@ &@&&&&@ &@&&&&@ ",
"@&&&&&&@@&&&&&&@@&&&&&&@@&&&&&&@@&&&&&&@@&&&&&&@@&&&&&&@@&&&&&&@",
" ......+ ......+ ......+ ......+ ......+ ......+ ......+ ......+",
"@ ##$$%.@ ##$$%.@ ##$$%.@ ##$$%.@ ##$$%.@ ##$$%.@ ##$$%.@ ##$$%.",
"&@****$.&@****$.&@****$.&@****$.&@****$.&@****$.&@****$.&@****$.",
"&&****$.&&****$.&&****$.&&****$.&&****$.&&****$.&&****$.&&****$.",
"&&****#.&&****#.&&****#.&&****#.&&****#.&&****#.&&****#.&&****#.",
"&&****#.&&****#.&&****#.&&****#.&&****#.&&****#.&&****#.&&****#.",
"&@&&&&@ &@&&&&@ &@&&&&@ &@&&&&@ &@&&&&@ &@&&&&@ &@&&&&@ &@&&&&@ ",
"@&&&&&&@@&&&&&&@@&&&&&&@@&&&&&&@@&&&&&&@@&&&&&&@@&&&&&&@@&&&&&&@",
" ......+ ......+ ......+ ......+ ......+ ......+ ......+ ......+",
"@ ##$$%.@ ##$$%.@ ##$$%.@ ##$$%.@ ##$$%.@ ##$$%.@ ##$$%.@ ##$$%.",
"&@****$.&@****$.&@****$.&@****$.&@****$.&@****$.&@****$.&@****$.",
"&&****$.&&****$.&&****$.&&****$.&&****$.&&****$.&&****$.&&****$.",
"&&****#.&&****#.&&****#.&&****#.&&****#.&&****#.&&****#.&&****#.",
"&&****#.&&****#.&&****#.&&****#.&&****#.&&****#.&&****#.&&****#.",
"&@&&&&@ &@&&&&@ &@&&&&@ &@&&&&@ &@&&&&@ &@&&&&@ &@&&&&@ &@&&&&@ ",
"@&&&&&&@@&&&&&&@@&&&&&&@@&&&&&&@@&&&&&&@@&&&&&&@@&&&&&&@@&&&&&&@",
" ......+ ......+ ......+ ......+ ......+ ......+ ......+ ......+",
"@ ##$$%.@ ##$$%.@ ##$$%.@ ##$$%.@ ##$$%.@ ##$$%.@ ##$$%.@ ##$$%.",
"&@****$.&@****$.&@****$.&@****$.&@****$.&@****$.&@****$.&@****$.",
"&&****$.&&****$.&&****$.&&****$.&&****$.&&****$.&&****$.&&****$.",
"&&****#.&&****#.&&****#.&&****#.&&****#.&&****#.&&****#.&&****#.",
"&&****#.&&****#.&&****#.&&****#.&&****#.&&****#.&&****#.&&****#.",
"&@&&&&@ &@&&&&@ &@&&&&@ &@&&&&@ &@&&&&@ &@&&&&@ &@&&&&@ &@&&&&@ ",
"@&&&&&&@@&&&&&&@@&&&&&&@@&&&&&&@@&&&&&&@@&&&&&&@@&&&&&&@@&&&&&&@",
" ......+ ......+ ......+ ......+ ......+ ......+ ......+ ......+",
"@ ##$$%.@ ##$$%.@ ##$$%.@ ##$$%.@ ##$$%.@ ##$$%.@ ##$$%.@ ##$$%.",
"&@****$.&@****$.&@****$.&@****$.&@****$.&@****$.&@****$.&@****$.",
"&&****$.&&****$.&&****$.&&****$.&&****$.&&****$.&&****$.&&****$.",
"&&****#.&&****#.&&****#.&&****#.&&****#.&&****#.&&****#.&&****#.",
"&&****#.&&****#.&&****#.&&****#.&&****#.&&****#.&&****#.&&****#.",
"&@&&&&@ &@&&&&@ &@&&&&@ &@&&&&@ &@&&&&@ &@&&&&@ &@&&&&@ &@&&&&@ ",
"@&&&&&&@@&&&&&&@@&&&&&&@@&&&&&&@@&&&&&&@@&&&&&&@@&&&&&&@@&&&&&&@"};
