/* XPM */
static char * DONUT_2_xpm[] = {
"64 64 249 2",
"  	c None",
". 	c #84553B",
"+ 	c #724B36",
"@ 	c #6A4532",
"# 	c #6A4732",
"$ 	c #6D4933",
"% 	c #6B4532",
"& 	c #6C4734",
"* 	c #6F4933",
"= 	c #6D4935",
"- 	c #7A4F39",
"; 	c #955F41",
"> 	c #9B6445",
", 	c #624230",
"' 	c #644230",
") 	c #664230",
"! 	c #674331",
"~ 	c #734B34",
"{ 	c #7B4E37",
"] 	c #825339",
"^ 	c #AD998F",
"/ 	c #DDD3CB",
"( 	c #61412F",
"_ 	c #5B3B2A",
": 	c #553628",
"< 	c #533424",
"[ 	c #563828",
"} 	c #5A3928",
"| 	c #593C2A",
"1 	c #583B28",
"2 	c #593C29",
"3 	c #5F402E",
"4 	c #664331",
"5 	c #81523A",
"6 	c #8B593C",
"7 	c #CDBFB7",
"8 	c #DAD0C7",
"9 	c #60402F",
"0 	c #533523",
"a 	c #543424",
"b 	c #563826",
"c 	c #4F3321",
"d 	c #523422",
"e 	c #543623",
"f 	c #563525",
"g 	c #593627",
"h 	c #6C4430",
"i 	c #6A4530",
"j 	c #6E4530",
"k 	c #5C3C2A",
"l 	c #C6B6AD",
"m 	c #63412F",
"n 	c #543525",
"o 	c #573928",
"p 	c #513221",
"q 	c #4B2E1E",
"r 	c #523322",
"s 	c #4A2D1D",
"t 	c #472919",
"u 	c #4F301F",
"v 	c #4B2D1E",
"w 	c #4A2D1E",
"x 	c #4F3322",
"y 	c #BEAFA3",
"z 	c #5B3B29",
"A 	c #5C3B26",
"B 	c #3C2110",
"C 	c #4C2E1F",
"D 	c #462818",
"E 	c #422717",
"F 	c #472818",
"G 	c #452616",
"H 	c #422616",
"I 	c #452717",
"J 	c #482A1A",
"K 	c #4A2C1D",
"L 	c #533425",
"M 	c #9A8578",
"N 	c #613F2E",
"O 	c #593625",
"P 	c #583B29",
"Q 	c #B09A90",
"R 	c #543523",
"S 	c #4D3120",
"T 	c #442918",
"U 	c #CA6C44",
"V 	c #E77A4A",
"W 	c #EA6838",
"X 	c #ED794A",
"Y 	c #FE9253",
"Z 	c #553625",
"` 	c #816658",
" .	c #5B3E2C",
"..	c #4E3221",
"+.	c #A05E37",
"@.	c #FF762D",
"#.	c #C86949",
"$.	c #C97E56",
"%.	c #553826",
"&.	c #6E432B",
"*.	c #C16E3E",
"=.	c #CE7749",
"-.	c #A25A38",
";.	c #774B30",
">.	c #60402E",
",.	c #6B4531",
"'.	c #7A4D34",
").	c #E46441",
"!.	c #7C442D",
"~.	c #553824",
"{.	c #825237",
"].	c #965C39",
"^.	c #5B3625",
"/.	c #523424",
"(.	c #83523A",
"_.	c #92503C",
":.	c #613D2A",
"<.	c #50301E",
"[.	c #5F4437",
"}.	c #5C3B2A",
"|.	c #75503B",
"1.	c #4C301F",
"2.	c #7B4F38",
"3.	c #734C36",
"4.	c #7A4F38",
"5.	c #6F4935",
"6.	c #754D37",
"7.	c #7B5039",
"8.	c #794E38",
"9.	c #764C36",
"0.	c #E88C53",
"a.	c #845C42",
"b.	c #6E4732",
"c.	c #4F3020",
"d.	c #A28C81",
"e.	c #EA8E5A",
"f.	c #E9894C",
"g.	c #472918",
"h.	c #432817",
"i.	c #875E49",
"j.	c #85695B",
"k.	c #5D3D2B",
"l.	c #5A3D2B",
"m.	c #5E3F2C",
"n.	c #D1C4BB",
"o.	c #9A735B",
"p.	c #ED8D51",
"q.	c #ED8A50",
"r.	c #F8844A",
"s.	c #FF7E45",
"t.	c #FF9751",
"u.	c #E98C51",
"v.	c #FF9E5B",
"w.	c #4B2E1F",
"x.	c #412616",
"y.	c #412415",
"z.	c #402415",
"A.	c #9E887C",
"B.	c #D49167",
"C.	c #FF9F5D",
"D.	c #FB8B43",
"E.	c #FF7D44",
"F.	c #DC8760",
"G.	c #F98B44",
"H.	c #F8AC7A",
"I.	c #5D3D29",
"J.	c #3F2313",
"K.	c #4C2A1A",
"L.	c #533422",
"M.	c #BB7E58",
"N.	c #F1975A",
"O.	c #EF8C50",
"P.	c #EC8C50",
"Q.	c #C35E3D",
"R.	c #CB8E66",
"S.	c #E68C51",
"T.	c #FF9955",
"U.	c #DD9260",
"V.	c #84593D",
"W.	c #492A19",
"X.	c #4C2E1E",
"Y.	c #573424",
"Z.	c #503120",
"`.	c #DD986B",
" +	c #FE9B60",
".+	c #FC934E",
"++	c #F98B43",
"@+	c #D48A62",
"#+	c #EF8749",
"$+	c #F88B44",
"%+	c #F88B45",
"&+	c #F48B46",
"*+	c #FFA26E",
"=+	c #A47254",
"-+	c #80553F",
";+	c #492C1A",
">+	c #492C1D",
",+	c #A77354",
"'+	c #9B6950",
")+	c #A87557",
"!+	c #BD8466",
"~+	c #EE935D",
"{+	c #ED8C4D",
"]+	c #FB8B41",
"^+	c #BF5F3E",
"/+	c #CF7F50",
"(+	c #D08053",
"_+	c #FA8C44",
":+	c #F78B45",
"<+	c #FF9048",
"[+	c #FF9951",
"}+	c #FFA068",
"|+	c #FF9C6B",
"1+	c #F59961",
"2+	c #FF9D5F",
"3+	c #FF995A",
"4+	c #FF9A53",
"5+	c #FF924E",
"6+	c #F48E4F",
"7+	c #F38C47",
"8+	c #F08D48",
"9+	c #E88C50",
"0+	c #ED8C4A",
"a+	c #D8834F",
"b+	c #E37D48",
"c+	c #EC7C51",
"d+	c #BB613E",
"e+	c #CC6142",
"f+	c #BA6140",
"g+	c #BC6442",
"h+	c #C26A47",
"i+	c #D4764E",
"j+	c #D9754E",
"k+	c #D47650",
"l+	c #D77550",
"m+	c #D8744F",
"n+	c #DB734D",
"o+	c #D3774F",
"p+	c #D0774F",
"q+	c #D1764E",
"r+	c #D2744B",
"s+	c #C26743",
"t+	c #BC6140",
"u+	c #B76441",
"v+	c #B76542",
"w+	c #D85336",
"x+	c #D75336",
"y+	c #CE5939",
"z+	c #BE6341",
"                                                                                                                                ",
"                                                                                                                                ",
"                                                                                                                                ",
"                                                                                                                                ",
"                                                                                                                                ",
"                                                                                                                                ",
"                                                                                                                                ",
"                                                                                                                                ",
"                                                                                                                                ",
"                                                                                                                                ",
"                                                                                                                                ",
"                                                                                                                                ",
"                                                                                                                                ",
"                                                                                                                                ",
"                                                                                                                                ",
"                                                                                                                                ",
"                                                                                                                                ",
"                                                                                                                                ",
"                                                                                                                                ",
"                                                                                                                                ",
"                                                                                                                                ",
"                                                                                                                                ",
"                                                                                                                                ",
"                                                                                                                                ",
"                                                                                                                                ",
"                                                                                                                                ",
"                                                                                                                                ",
"                                                                                                                                ",
"                                                                                                                                ",
"                                                                                                                                ",
"                                                                                                                                ",
"                                                                                                                                ",
"                                                                                                                                ",
"                                                  . + @ # $ @ # % & * = -                                                       ",
"                                            ; > , , , ' ) ' ) ) ) ) ! % ~ { ] '                                                 ",
"                                          , , ^ / ( _ : < [ } | 1 2 2 2 3 4 ' + 5                                               ",
"                                      6 % 7 8 ) , 9 < 0 a b c d e f g 2 2 2 3 4 @ h i                                           ",
"                                    j k l , m , n o p q r s t u v w x 2 n 2 2 y 4 m z A                                         ",
"                                  B n m o m o o C D E F G H H I I J K L 2 2 g M 8 3 N n O                                       ",
"                                k n m m m P C v E E B t B t J B t B K D B 2 n 2 Q 3 N 3 R n                                     ",
"                                B k m m m o S T B B U V W W W W W X Y B B B Z 3 3 ` 3 3  .n                                     ",
"                              t ..k m m k t S B +.@.                  #.$.B J ' m m m m %.n n                                   ",
"                              n ..n m 3 3 g t &.*.=.                    -.;.n >.m m ,.m p J n                                   ",
"                              t t ..k m 3 3 g '.).                        !.Z m m m ,.m ..t B                                   ",
"                              n B n ~.m 3 3 3 {.].                        ^.' m m ,.m m d t B                                   ",
"                              t B t /.k ,.3 3 3 3 (.                  _.:.<.m m [.,.,.}.u B B                                   ",
"                              |.p B t 1.,.3 3 3 3 3 2.3.4.& 5.6.7.8.9.m m m m f ` ,., t t B J                                   ",
"                              0.a.O O w k ^ 3 3 3 3 3 3 3 , ' m m m m b.3 m c.d.m Z J J J B e.                                  ",
"                              0.f.|.O O g.T h.i.j.,.3 k.N >.3 3 3 3 l.3 3 m.n.P J J n o.p.q.r.                                  ",
"                              s.t.u.v.|.w.E x.y.z.h.3 3 3 3 3 3 3 3 3 b A.` l.n J n B.C.D.E.E.                                  ",
"                                F.G.G.u.H.I.D x.J.J.K.R n x L.u r P n n n n J J M.N.O.P.D.Q.                                    ",
"                                  R.G.G.S.T.U.V.J t T W.X.Y.a u Z.p J J J l.`. +.+++D.D.@+                                      ",
"                                    R.#+$+$+%+&+*+=+-+t J J J ;+>+,+'+)+!+~+{+++D.]+D.u.                                        ",
"                                      ^+/+(+_+$+%+:+<+[+}+|+1+2+3+4+5+6+7+8+9+0+a+b+c+                                          ",
"                                          d+e+f+g+h+i+j+k+l+m+n+m+o+p+q+r+s+t+u+u+                                              ",
"                                                v+Q.w+x+x+x+x+x+x+x+w+y+y+z+                                                    ",
"                                                                                                                                ",
"                                                                                                                                ",
"                                                                                                                                ",
"                                                                                                                                ",
"                                                                                                                                ",
"                                                                                                                                ",
"                                                                                                                                ",
"                                                                                                                                "};
