/* XPM */
static char * DONUT_4_xpm[] = {
"64 64 315 2",
"  	c None",
". 	c #CF4C36",
"+ 	c #D34D38",
"@ 	c #4789A5",
"# 	c #6E442E",
"$ 	c #694330",
"% 	c #793F28",
"& 	c #B24126",
"* 	c #C2452E",
"= 	c #EAB180",
"- 	c #65412F",
"; 	c #47323F",
"> 	c #64422F",
", 	c #49739A",
"' 	c #49789D",
") 	c #B6C1B1",
"! 	c #74452E",
"~ 	c #794E37",
"{ 	c #49769B",
"] 	c #624230",
"^ 	c #61412F",
"/ 	c #321E29",
"( 	c #AD3E23",
"_ 	c #BF442D",
": 	c #D24D37",
"< 	c #634130",
"[ 	c #CD4C38",
"} 	c #CB4C3D",
"| 	c #48779B",
"1 	c #4987A4",
"2 	c #71432D",
"3 	c #745040",
"4 	c #4A7299",
"5 	c #B7C2B1",
"6 	c #E6B383",
"7 	c #6C4B64",
"8 	c #B74127",
"9 	c #E17E55",
"0 	c #CC4C3C",
"a 	c #487A9D",
"b 	c #674331",
"c 	c #6B4532",
"d 	c #6E4531",
"e 	c #D04D38",
"f 	c #704F3B",
"g 	c #B9916E",
"h 	c #476B96",
"i 	c #4881A1",
"j 	c #563527",
"k 	c #523424",
"l 	c #553627",
"m 	c #E9B600",
"n 	c #583B28",
"o 	c #593C29",
"p 	c #A23B1C",
"q 	c #AF3F24",
"r 	c #724A32",
"s 	c #9E432C",
"t 	c #D15D46",
"u 	c #553826",
"v 	c #523422",
"w 	c #533422",
"x 	c #EAA000",
"y 	c #E8AC00",
"z 	c #F0C936",
"A 	c #E9CA66",
"B 	c #533322",
"C 	c #5F402E",
"D 	c #644230",
"E 	c #3C2110",
"F 	c #543525",
"G 	c #674444",
"H 	c #C69331",
"I 	c #75422F",
"J 	c #573928",
"K 	c #4C2E1F",
"L 	c #462818",
"M 	c #422717",
"N 	c #472818",
"O 	c #452616",
"P 	c #422616",
"Q 	c #3F2313",
"R 	c #4A2C1D",
"S 	c #533425",
"T 	c #593627",
"U 	c #FF831E",
"V 	c #FBC278",
"W 	c #FA800A",
"X 	c #E99400",
"Y 	c #E9A700",
"Z 	c #495389",
"` 	c #4886A3",
" .	c #4E86A0",
"..	c #63412F",
"+.	c #C28A14",
"@.	c #E7AD00",
"#.	c #CB9D0B",
"$.	c #4B2D1E",
"%.	c #452717",
"&.	c #472919",
"*.	c #482A1A",
"=.	c #E27100",
"-.	c #FC8015",
";.	c #FE8218",
">.	c #543523",
",.	c #809FB7",
"'.	c #5B8598",
").	c #7A544E",
"!.	c #E68A00",
"~.	c #CF9101",
"{.	c #4D3120",
"].	c #442918",
"^.	c #904B32",
"/.	c #893922",
"(.	c #883923",
"_.	c #964B33",
":.	c #553625",
"<.	c #D65231",
"[.	c #533424",
"}.	c #465C8D",
"|.	c #4A6693",
"1.	c #51383B",
"2.	c #7E5423",
"3.	c #824531",
"4.	c #97491E",
"5.	c #6D3C2E",
"6.	c #86422F",
"7.	c #98491F",
"8.	c #4B2D1A",
"9.	c #C04C17",
"0.	c #D14C37",
"a.	c #5C3C2A",
"b.	c #EF7B27",
"c.	c #78452C",
"d.	c #9E431B",
"e.	c #733D2B",
"f.	c #733C2B",
"g.	c #784C38",
"h.	c #486391",
"i.	c #487C9E",
"j.	c #AA3E22",
"k.	c #E5AE7A",
"l.	c #603527",
"m.	c #92402E",
"n.	c #C46400",
"o.	c #C86926",
"p.	c #5F3C25",
"q.	c #854E2F",
"r.	c #7C442D",
"s.	c #623326",
"t.	c #48598C",
"u.	c #4B7A9E",
"v.	c #6B4531",
"w.	c #A13B1C",
"x.	c #A0391C",
"y.	c #953D24",
"z.	c #CE4B36",
"A.	c #E47E54",
"B.	c #AB4437",
"C.	c #53352D",
"D.	c #5E3E31",
"E.	c #6E4732",
"F.	c #754B33",
"G.	c #543424",
"H.	c #933820",
"I.	c #A23B1D",
"J.	c #B64127",
"K.	c #4D3334",
"L.	c #4E343D",
"M.	c #4A83A3",
"N.	c #80AABD",
"O.	c #50301E",
"P.	c #5C3B2A",
"Q.	c #4F301F",
"R.	c #5B3E3C",
"S.	c #9F391A",
"T.	c #5A3D48",
"U.	c #4C301F",
"V.	c #5B3B29",
"W.	c #475D8E",
"X.	c #48558B",
"Y.	c #753F26",
"Z.	c #E8B500",
"`.	c #C5472F",
" +	c #7E5C43",
".+	c #4E322F",
"++	c #563523",
"@+	c #4A2D1E",
"#+	c #5A3E2F",
"$+	c #E9A100",
"%+	c #E9B000",
"&+	c #60402E",
"*+	c #62402F",
"=+	c #A93D22",
"-+	c #E3AD77",
";+	c #C54731",
">+	c #E8B400",
",+	c #EFC834",
"'+	c #EACB66",
")+	c #AF693F",
"!+	c #8F5536",
"~+	c #895D43",
"{+	c #89644B",
"]+	c #4A2D1D",
"^+	c #5E3F2C",
"/+	c #D14E35",
"(+	c #D7542D",
"_+	c #5E3E2B",
":+	c #543625",
"<+	c #A33C1E",
"[+	c #D18003",
"}+	c #E99900",
"|+	c #F0BC21",
"1+	c #E9B100",
"2+	c #A1562E",
"3+	c #99512A",
"4+	c #974F24",
"5+	c #AE7756",
"6+	c #7F5E4C",
"7+	c #6F4933",
"8+	c #4C3020",
"9+	c #432817",
"0+	c #875E49",
"a+	c #85695B",
"b+	c #C2472F",
"c+	c #E17E52",
"d+	c #B8C4B3",
"e+	c #5A3D2B",
"f+	c #FF8421",
"g+	c #5B3E2C",
"h+	c #8D6D51",
"i+	c #E67E00",
"j+	c #E57C00",
"k+	c #884D36",
"l+	c #9B5129",
"m+	c #6D3224",
"n+	c #99512B",
"o+	c #9F5122",
"p+	c #A25120",
"q+	c #A96031",
"r+	c #A5673F",
"s+	c #432818",
"t+	c #412616",
"u+	c #48558A",
"v+	c #476291",
"w+	c #523322",
"x+	c #D36600",
"y+	c #DC6B00",
"z+	c #EF7800",
"A+	c #FF821A",
"B+	c #905E3D",
"C+	c #A2643D",
"D+	c #9B5A33",
"E+	c #9B512A",
"F+	c #A35120",
"G+	c #A3511E",
"H+	c #AC6337",
"I+	c #9F562E",
"J+	c #6A4535",
"K+	c #492A19",
"L+	c #4C2E1E",
"M+	c #503120",
"N+	c #AD7E5B",
"O+	c #9E6541",
"P+	c #A55F31",
"Q+	c #A25122",
"R+	c #9E512B",
"S+	c #A85B2E",
"T+	c #AC6A49",
"U+	c #8D5F49",
"V+	c #7C513D",
"W+	c #492C1A",
"X+	c #492C1D",
"Y+	c #835B44",
"Z+	c #92533A",
"`+	c #A66646",
" @	c #98512A",
".@	c #9C5029",
"+@	c #924731",
"@@	c #98502A",
"#@	c #A05021",
"$@	c #B46334",
"%@	c #AB6947",
"&@	c #A36549",
"*@	c #9A6341",
"=@	c #A66541",
"-@	c #A7633A",
";@	c #AF6A44",
">@	c #AA5C2E",
",@	c #A85C2E",
"'@	c #9A5029",
")@	c #954932",
"!@	c #844729",
"~@	c #A3562B",
"{@	c #A1562B",
"]@	c #9C552B",
"^@	c #9C542B",
"/@	c #A0552B",
"(@	c #A65627",
"_@	c #97502A",
":@	c #763C2B",
"<@	c #7E4532",
"[@	c #7F4732",
"}@	c #86432E",
"|@	c #844331",
"1@	c #85422F",
"2@	c #844333",
"3@	c #814432",
"4@	c #81432E",
"5@	c #81422D",
"6@	c #753928",
"7@	c #6C3224",
"8@	c #703222",
"9@	c #703123",
"0@	c #703224",
"                                                                                                                                ",
"                                                                                                                                ",
"                                                                                                                                ",
"                                                                                                                                ",
"                                                                                                                                ",
"                                                                                                                                ",
"                                                                                                                                ",
"                                                                                                                                ",
"                                                                                                                                ",
"                                                                                                                                ",
"                                                                                                                                ",
"                                                                                                                                ",
"                                                                                                                                ",
"                                                                                                                                ",
"                                                                                                                                ",
"                                                                                                                                ",
"                                                                                                                                ",
"                                                                                                                                ",
"                                                                                                                                ",
"                                                                                                                                ",
"                                                                                                                                ",
"                                                                                                                                ",
"                                                                                                                                ",
"                                                                                                                                ",
"                                                                                                                                ",
"                                                                                                                                ",
"                                                                                                                                ",
"                                                                                                                                ",
"                                                                                                                                ",
"                                                                                                                                ",
"                                                                                                                                ",
"                                                        . + +           @ @                                                     ",
"                                                  # $ % & * = + - ; > , ' ) @                                                   ",
"                                            ! ~ { @ ] ^ / ( _ : ^ < [ } ' | 1 2                                                 ",
"                                          3 ] ] 4 5 @ 6 6 ; 7 ^ ^ ^ 8 9 0 a b c d                                               ",
"                                        . e f g ; h i j k l m m n o p q . < ^ ] d d   m                                         ",
"                                      r s + t ; 7 ; u v w x y z A B / ; 7 o C ^ D 7 m m m                                       ",
"                                  E F G H I J J K L M N O P / ; 7 Q R S o o T o U V W X Y                                       ",
"                              Z `  ...+.@.#.K $.M M %.&.E &.*.E &.E R L E o F ; =.-.;.; >.E                                     ",
"                              ` ,.` '.).!.~.{.].E E E ^./././././.(._.E E E :.o / =.C C <.[.                                    ",
"                              Z }.|...G 1.2.&.E E 3.4.5.5.5.5.5.5.5.6.7.L 8.E @ ......9.0.+                                     ",
"                              / ; a.....b.*.{.E c.d.e.                f.g.E h.i.....7 j.( k.F                                   ",
"                              F l.m...n.-.o.&.p.q.r.                    s.; t.t.u...v.; w.x.F                                   ",
"                              y.z.A.B.C.D.@ C E.F.                        G.D 7 ..v.....v &.E                                   ",
"                              H.I.J.K.a.L.M.N.C C                         O.....+ v.v.P.Q.&.E                                   ",
"                              R.S.T.&.U.V.W.X.7 C Y.Z.m               ........`.0.: ] &.m *.*.                                  ",
"                               +.+++&.@+#+; ; C C Y.$+%+m &+*+........> C ..; =+-+;+*.>+,+'+)+                                  ",
"                              !+~+{+*+E ]+a.g v.^+/+(+$+@ @ C _+C C C C C l :+7 <+F [+}+|+1+2+                                  ",
"                              3+4+5+6+7+8+].9+0+a+b+c+; @ @ d+C C C e+f+f+g+h+g ; *.7 i+j+k+l+                                  ",
"                              m+n+o+p+q+r+>.s+t+Q ; ; F F u+v+7 w+J x+y+z+A+*.*.B+C+D+p+o+E+                                    ",
"                                m+l+p+F+G+H+I+J+*.&.t+K+L+; ; ; M+U.; x+*.e+N+O+P+F+F+Q+n+m+                                    ",
"                                  m+R+l+F+S+S+S+T+U+V+&.*.*.*.W+X+*.Y+Z+k+`+S+S+F+F+ @.@m+                                      ",
"                                    m++@@@#@F+F+S+S+S+$@%@&@*@=@-@;@>@S+S+,@p+F+#@'@)@m+                                        ",
"                                      m+m+!@@@@@@@~@{@{@{@{@{@]@^@^@/@{@(@@@_@@@#@m+m+                                          ",
"                                          m+m+m+:@<@[@}@|@|@1@6.1@2@3@4@5@6@m+m+m+                                              ",
"                                                7@m+8@9@9@9@9@9@9@9@9@0@0@m+                                                    ",
"                                                                                                                                ",
"                                                                                                                                ",
"                                                                                                                                ",
"                                                                                                                                ",
"                                                                                                                                ",
"                                                                                                                                ",
"                                                                                                                                ",
"                                                                                                                                "};
