/* XPM */
static char * DONUT_1_xpm[] = {
"64 64 313 2",
"  	c None",
". 	c #2AAAA2",
"+ 	c #FBFBFB",
"@ 	c #E4F0F0",
"# 	c #FCF9F9",
"$ 	c #EDEDF1",
"% 	c #EEEFF4",
"& 	c #FF921A",
"* 	c #EAF6FB",
"= 	c #EDF2F3",
"- 	c #EFFBF7",
"; 	c #FAFAFA",
"> 	c #FBFBFC",
", 	c #FDFDFD",
"' 	c #FF9312",
") 	c #FEFFFF",
"! 	c #FFFFFF",
"~ 	c #FEFEFE",
"{ 	c #FFFFF6",
"] 	c #FFF9F3",
"^ 	c #FF931C",
"/ 	c #F7F7F7",
"( 	c #EF65C2",
"_ 	c #E7EFF3",
": 	c #66E2DB",
"< 	c #D764B1",
"[ 	c #FFB15F",
"} 	c #FFA240",
"| 	c #00B1A7",
"1 	c #DB62B4",
"2 	c #FFEEE0",
"3 	c #F6FBFC",
"4 	c #00B3A6",
"5 	c #00C8BB",
"6 	c #FBFCFC",
"7 	c #5BB6AF",
"8 	c #EDF3F4",
"9 	c #E0F4F2",
"0 	c #FAFFFF",
"a 	c #FBFFFF",
"b 	c #00D7C8",
"c 	c #64CAC2",
"d 	c #D5F0F7",
"e 	c #D4EFF3",
"f 	c #D2EFF3",
"g 	c #CEECF2",
"h 	c #DBF5F6",
"i 	c #FCE3F6",
"j 	c #74EAE0",
"k 	c #FAFAFB",
"l 	c #FAFBFB",
"m 	c #FFB6F0",
"n 	c #D260AC",
"o 	c #F9FAFA",
"p 	c #FFBE84",
"q 	c #FF9E3F",
"r 	c #FFD8B6",
"s 	c #CFCFCF",
"t 	c #BEC9BC",
"u 	c #BDC9BC",
"v 	c #BBC7BB",
"w 	c #C1C8BB",
"x 	c #C8D9D3",
"y 	c #EFF6F8",
"z 	c #D1F1ED",
"A 	c #FF9D3D",
"B 	c #F8FFFF",
"C 	c #FFEBFA",
"D 	c #DD8EBF",
"E 	c #FDFCFC",
"F 	c #D667B1",
"G 	c #B99070",
"H 	c #D97E51",
"I 	c #CA6B40",
"J 	c #CE683D",
"K 	c #CF683D",
"L 	c #CE683F",
"M 	c #DC7C50",
"N 	c #E79258",
"O 	c #B89273",
"P 	c #C7C7B6",
"Q 	c #C8CFC5",
"R 	c #ECF1F2",
"S 	c #FCFCFC",
"T 	c #F195CC",
"U 	c #B67E59",
"V 	c #CA7350",
"W 	c #AA6A4E",
"X 	c #9D603C",
"Y 	c #D57A54",
"Z 	c #B69479",
"` 	c #C9C9B8",
" .	c #FFC48E",
"..	c #F5FFFB",
"+.	c #F4F6F7",
"@.	c #FAFBFC",
"#.	c #FFB672",
"$.	c #FFC1F5",
"%.	c #BC7A57",
"&.	c #B26B4C",
"*.	c #B2694C",
"=.	c #B67D59",
"-.	c #9D7D63",
";.	c #FFD4FC",
">.	c #FF930B",
",.	c #F0B4D7",
"'.	c #FFD4F7",
").	c #FCFDFE",
"!.	c #9C5F3E",
"~.	c #FFD6FA",
"{.	c #F3FAFA",
"].	c #DBF1F3",
"^.	c #F7FEFA",
"/.	c #FEFDFD",
"(.	c #E6E6E6",
"_.	c #EAB3D3",
":.	c #F0F9FA",
"<.	c #E3E3DC",
"[.	c #D8EFF4",
"}.	c #F7FBFB",
"|.	c #F5FFFF",
"1.	c #E2F4F6",
"2.	c #DCBFA4",
"3.	c #E2B697",
"4.	c #DCC3B2",
"5.	c #CEE2E0",
"6.	c #FFBC7D",
"7.	c #F8F8F8",
"8.	c #F2F7F6",
"9.	c #D9E1DD",
"0.	c #92C7C4",
"a.	c #D7AB80",
"b.	c #DAAB7E",
"c.	c #D9C6B3",
"d.	c #EEF5F5",
"e.	c #E992C9",
"f.	c #F9F9F9",
"g.	c #FFDEBE",
"h.	c #C3F0EC",
"i.	c #FF9101",
"j.	c #D8BA9D",
"k.	c #ED9E63",
"l.	c #F29C5C",
"m.	c #E1A06F",
"n.	c #96C8C5",
"o.	c #E1EEEE",
"p.	c #9FD4D1",
"q.	c #2CDBD2",
"r.	c #FFD2A7",
"s.	c #FCFDFD",
"t.	c #E4F0EF",
"u.	c #C7E3E2",
"v.	c #E79D6A",
"w.	c #DCAB7D",
"x.	c #F39D5C",
"y.	c #D98954",
"z.	c #D88B55",
"A.	c #F19656",
"B.	c #E4975D",
"C.	c #DBC1A5",
"D.	c #94C6C3",
"E.	c #BCDAD7",
"F.	c #ABD2CF",
"G.	c #EFF0EC",
"H.	c #F0F2F2",
"I.	c #FFAD5C",
"J.	c #FF8C00",
"K.	c #FFD1A8",
"L.	c #EEF7FA",
"M.	c #D0E5E4",
"N.	c #9BCBC8",
"O.	c #CCE1DE",
"P.	c #D4CAB6",
"Q.	c #E7965A",
"R.	c #F39759",
"S.	c #DD8953",
"T.	c #E5834E",
"U.	c #F07D49",
"V.	c #F29655",
"W.	c #DA8B54",
"X.	c #EDB182",
"Y.	c #DFB695",
"Z.	c #CDB99D",
"`.	c #CFCFC3",
" +	c #CFD3CB",
".+	c #DAF9F0",
"++	c #99C5C2",
"@+	c #E5EFF1",
"#+	c #F3F5F6",
"$+	c #EFFFFF",
"%+	c #ECF4F5",
"&+	c #FFE5CF",
"*+	c #FF9C3D",
"=+	c #F5FCFF",
"-+	c #F1F6F6",
";+	c #F5F2F0",
">+	c #DDDCD2",
",+	c #90C7C4",
"'+	c #CDB99F",
")+	c #EEB58D",
"!+	c #F4B589",
"~+	c #F39653",
"{+	c #F17C48",
"]+	c #B25E3F",
"^+	c #BF8B68",
"/+	c #EF9551",
"(+	c #EC9D62",
"_+	c #EDAD7D",
":+	c #E7B389",
"<+	c #DDBBA1",
"[+	c #DBBCA2",
"}+	c #BCC5B8",
"|+	c #C3C8BC",
"1+	c #BFCEC7",
"2+	c #D3DAD3",
"3+	c #E9A1CE",
"4+	c #9DC8C6",
"5+	c #C7D5D2",
"6+	c #ACDDE5",
"7+	c #A9D6DA",
"8+	c #BDC9C1",
"9+	c #BCC3B4",
"0+	c #DFB89C",
"a+	c #D6BCA4",
"b+	c #EEB48B",
"c+	c #F1B183",
"d+	c #ED9D61",
"e+	c #DB8B53",
"f+	c #C08D68",
"g+	c #E38353",
"h+	c #E68949",
"i+	c #E7843C",
"j+	c #D68B54",
"k+	c #F29859",
"l+	c #E19C69",
"m+	c #E3AD81",
"n+	c #EEBB9A",
"o+	c #EDC6AD",
"p+	c #F2CDB3",
"q+	c #F5D1B9",
"r+	c #F3D0B7",
"s+	c #F3CFB6",
"t+	c #F2CCB2",
"u+	c #F4CCB2",
"v+	c #F2CDB2",
"w+	c #F2C5A5",
"x+	c #F9C09C",
"y+	c #EBA372",
"z+	c #E19763",
"A+	c #EC9B65",
"B+	c #EC9251",
"C+	c #E78A46",
"D+	c #EA8A46",
"E+	c #C68963",
"F+	c #AF5F41",
"G+	c #C67B50",
"H+	c #C17E52",
"I+	c #C27F55",
"J+	c #E88B47",
"K+	c #E68A49",
"L+	c #E58A4A",
"M+	c #E58A4B",
"N+	c #F08F4D",
"O+	c #F99852",
"P+	c #F09F69",
"Q+	c #E89B6D",
"R+	c #DF9864",
"S+	c #EE985E",
"T+	c #F5A068",
"U+	c #F69C59",
"V+	c #ED975A",
"W+	c #D99464",
"X+	c #DD8C4E",
"Y+	c #D88B53",
"Z+	c #EB8B46",
"`+	c #DC8B4D",
" @	c #C98252",
".@	c #D17C4B",
"+@	c #DB7B53",
"@@	c #AF6040",
"#@	c #B35D3E",
"$@	c #C8784A",
"%@	c #BE7E50",
"&@	c #C07E51",
"*@	c #E68A4A",
"=@	c #B57C55",
"-@	c #C3804F",
";@	c #D17B4B",
">@	c #B66244",
",@	c #B06040",
"'@	c #B0603F",
")@	c #A86441",
"!@	c #B76445",
"~@	c #AB6143",
"{@	c #B36A49",
"]@	c #BF7952",
"^@	c #C57550",
"/@	c #C97450",
"(@	c #C57551",
"_@	c #C67451",
":@	c #C77350",
"<@	c #C37350",
"[@	c #C17550",
"}@	c #BE7550",
"|@	c #C3734D",
"1@	c #AD6143",
"2@	c #B25F41",
"3@	c #A86444",
"4@	c #BC5A3C",
"5@	c #C05939",
"6@	c #C45439",
"7@	c #C35439",
"8@	c #BC593C",
"                                                                                                                                ",
"                                                                                                                                ",
"                                                                                                                                ",
"                                                                                                                                ",
"                                                                                                                                ",
"                                                                                                                                ",
"                                                                                                                                ",
"                                                                                                                                ",
"                                                                                                                                ",
"                                                                                                                                ",
"                                                                                                                                ",
"                                                                                                                                ",
"                                                                                                                                ",
"                                                                                                                                ",
"                                                                                                                                ",
"                                                                                                                                ",
"                                                                                                                                ",
"                                                                                                                                ",
"                                                                                                                                ",
"                                                                                                                                ",
"                                                                                                                                ",
"                                                                                                                                ",
"                                                                                                                                ",
"                                                                                                                                ",
"                                                                                                                                ",
"                                                                                                                                ",
"                                                                                                                                ",
"                                                                                                                                ",
"                                                                                                                                ",
"                                                                                                                                ",
"                                                                                                                                ",
"                                                                                                                                ",
"                                                                                                                                ",
"                                                  . + @ # + + $ % + & + * =                                                     ",
"                                              + + - ; > , + ' ) ! ~ { ] ^ / ( ( _                                               ",
"                                          : : + + < ! ! [ } + ! | ! 1 ! 2 ! + + = 3                                             ",
"                                        4 5 + + 6 + ! + + + ! ! + + + + ! ( 7 + + 8 = 9                                         ",
"                                      + 0 a + } ) + b c + d e f g e h i ! + j ! + k l m =                                       ",
"                                    n o p q ~ ! r + + s s t t u v t w x y + z ! A B B C D =                                     ",
"                                  n E ! + + F + + + s G H I J K J L M N O P Q + + + + + ! R =                                   ",
"                                  S + | : + + T + s U V W W W W W W X Y U Z ` + + a '  .+ ..+.                                  ",
"                                @.! #.+ + + $.+ + %.&.X                 *.=.-.+ ;.+ + + ! ( ! =                                 ",
"                                ! ! >.+ T ,.'.S ).X X                     !.+ + ( ~ S S ~.! ! {.                                ",
"                                ].! + S + ! ^.S /.(.                        ! S _.+ + S + ! :.<.                                ",
"                                [.}.r S + + |.: + (.                        + + + + + S S , 1.2.                                ",
"                                3.4.5.! 6.>.+ 5 + 7.7.(.                  + S + ;._.S ! 8.9.0.a.                                ",
"                                b.b.c.d.S ) ) o 4 + e.f.f.g.S ( S h.~ ) ! ! B i.! ! '  .j.b.b.k.                                ",
"                                l.b.m.n.o.! : 5 ! + + ; + >.7.7.p.q.|.+ , 7 S r.! s.t.u.v.w.x.y.                                ",
"                                z.A.B.C.D.E.F.G.H.( @./., 0 I.# ! ! + J.K.! ! L.M.N.O.P.Q.R.S.T.                                ",
"                                U.V.W.X.Y.Z.`.D. +.+++@+( #+$+%+&+J.*++ =+-+;+>+,+'+)+!+W.~+{+]+                                ",
"                                  ]+^+/+(+_+:+<+[+}+|+1+2+3+3+4+4+5+6+7+8+9+0+a+b+c+d+e+f+g+]+                                  ",
"                                    ]+h+i+j+k+l+m+n+o+p+q+r+s+s+t+u+p+v+w+x+y+z+A+B+C+D+E+]+                                    ",
"                                      F+G+H+I+J+K+L+M+N+O+P+Q+R+S+T+U+V+W+X+Y+Z+`+ @.@+@]+                                      ",
"                                        @@#@$@%@&@J+K+*@L+L+L+L+L+L+*@K+K+Z+=@-@;@>@,@'@                                        ",
"                                            )@!@~@{@]@^@/@(@_@:@:@<@[@}@[@|@1@2@3@]+                                            ",
"                                                  4@5@6@7@7@7@7@7@7@7@6@8@8@]+                                                  ",
"                                                                                                                                ",
"                                                                                                                                ",
"                                                                                                                                ",
"                                                                                                                                ",
"                                                                                                                                ",
"                                                                                                                                ",
"                                                                                                                                ",
"                                                                                                                                "};
