/* XPM */
static char * DONUT_3_xpm[] = {
"64 64 459 2",
"  	c None",
". 	c #6AE5DE",
"+ 	c #53E5DD",
"@ 	c #60E5DE",
"# 	c #7DE7E0",
"$ 	c #7BE7E0",
"% 	c #71EBDE",
"& 	c #65ADA4",
"* 	c #3B443F",
"= 	c #75D0CA",
"- 	c #7BE7DE",
"; 	c #5CE2DD",
"> 	c #568D87",
", 	c #6CE1D9",
"' 	c #6EE5DD",
") 	c #76D8D2",
"! 	c #6DB6B2",
"~ 	c #6CDCD6",
"{ 	c #7FE9E4",
"] 	c #78CFCA",
"^ 	c #76D1CC",
"/ 	c #73C6C0",
"( 	c #80E6DF",
"_ 	c #4C6963",
": 	c #75D7CE",
"< 	c #64E4DB",
"[ 	c #6AE0D8",
"} 	c #6BB2AA",
"| 	c #69B3AB",
"1 	c #7AE4DE",
"2 	c #7ADFDB",
"3 	c #76D8D5",
"4 	c #38B9B8",
"5 	c #00D4CF",
"6 	c #00D8D1",
"7 	c #00CEC9",
"8 	c #1AB0A9",
"9 	c #45B4AB",
"0 	c #76D1CB",
"a 	c #73C9C2",
"b 	c #68E7E0",
"c 	c #75E5DE",
"d 	c #62DFDB",
"e 	c #3BDED7",
"f 	c #486762",
"g 	c #4B6D67",
"h 	c #8CE7DE",
"i 	c #00C5BE",
"j 	c #4DD1CF",
"k 	c #00C5C2",
"l 	c #00B8B5",
"m 	c #36D5D0",
"n 	c #85EBE4",
"o 	c #82EDE3",
"p 	c #00DCD7",
"q 	c #00BBB3",
"r 	c #00918B",
"s 	c #54E2DB",
"t 	c #42DED6",
"u 	c #64E4DD",
"v 	c #78E4DE",
"w 	c #76D8D3",
"x 	c #5CDCD9",
"y 	c #00C8C8",
"z 	c #00CBCA",
"A 	c #63E0D8",
"B 	c #86E6DD",
"C 	c #7DE7DE",
"D 	c #73CBC5",
"E 	c #547D79",
"F 	c #00C1C0",
"G 	c #00DBD6",
"H 	c #76D8D1",
"I 	c #82DED7",
"J 	c #83D4CE",
"K 	c #54D0CC",
"L 	c #00B6B1",
"M 	c #00BAB1",
"N 	c #16655F",
"O 	c #00D2C9",
"P 	c #00CAC1",
"Q 	c #00C9C1",
"R 	c #00C1B6",
"S 	c #26D0C9",
"T 	c #5BC7C2",
"U 	c #7BE5DD",
"V 	c #53DBD7",
"W 	c #3DDBD6",
"X 	c #53DBD2",
"Y 	c #6CD8D0",
"Z 	c #31D9D2",
"` 	c #75DBD6",
" .	c #00BCB9",
"..	c #00A8A5",
"+.	c #6BB4AE",
"@.	c #5FE0DB",
"#.	c #00BEBA",
"$.	c #009697",
"%.	c #00A9A6",
"&.	c #00B8B3",
"*.	c #00BDB1",
"=.	c #00BFB3",
"-.	c #00BFB2",
";.	c #00BEB0",
">.	c #00B5A3",
",.	c #7A343D",
"'.	c #009991",
").	c #00BDB3",
"!.	c #00C9C2",
"~.	c #42DED8",
"{.	c #78E4DC",
"].	c #00B2AE",
"^.	c #00B4BB",
"/.	c #39BABA",
"(.	c #33DAD1",
"_.	c #4CDED6",
":.	c #49DCD3",
"<.	c #67D2D0",
"[.	c #1AC5C0",
"}.	c #00B3AE",
"|.	c #65CDC7",
"1.	c #7EEAE3",
"2.	c #00CDC5",
"3.	c #008785",
"4.	c #009EA2",
"5.	c #00986D",
"6.	c #008B8D",
"7.	c #009192",
"8.	c #00A3A1",
"9.	c #00AAA7",
"0.	c #009596",
"a.	c #008A8C",
"b.	c #00898C",
"c.	c #009C95",
"d.	c #00B9B0",
"e.	c #00CEC6",
"f.	c #31B9B2",
"g.	c #00B1B3",
"h.	c #00A3A8",
"i.	c #39C4BE",
"j.	c #74DAD3",
"k.	c #44CFCC",
"l.	c #77DCD7",
"m.	c #10C7C1",
"n.	c #00B6AF",
"o.	c #0F9390",
"p.	c #66A79F",
"q.	c #6AE9E2",
"r.	c #00AFB0",
"s.	c #009A9F",
"t.	c #008280",
"u.	c #00A579",
"v.	c #944C31",
"w.	c #893922",
"x.	c #964B30",
"y.	c #984B33",
"z.	c #009792",
"A.	c #00B0A2",
"B.	c #65E7E0",
"C.	c #20D0CC",
"D.	c #00A5AA",
"E.	c #00BABE",
"F.	c #4AD3CB",
"G.	c #39C6C5",
"H.	c #73A7A0",
"I.	c #009F9B",
"J.	c #445A53",
"K.	c #63A9A3",
"L.	c #64EADD",
"M.	c #0FC0BA",
"N.	c #00807F",
"O.	c #00B38A",
"P.	c #00A953",
"Q.	c #6D3C2E",
"R.	c #86422F",
"S.	c #98491F",
"T.	c #008D87",
"U.	c #00BDBC",
"V.	c #5DDFD7",
"W.	c #00B3B7",
"X.	c #00AEB6",
"Y.	c #2CCAC7",
"Z.	c #4CBFBE",
"`.	c #29D1C8",
" +	c #246962",
".+	c #00958D",
"++	c #6EC0BB",
"@+	c #7ECCCB",
"#+	c #4EB5AD",
"$+	c #1F7372",
"%+	c #00AEA1",
"&+	c #34BB7A",
"*+	c #9A491B",
"=+	c #733C2B",
"-+	c #784C38",
";+	c #63B296",
">+	c #00BCB8",
",+	c #80E1DB",
"'+	c #00BEBD",
")+	c #25CBC7",
"!+	c #71D4D4",
"~+	c #3DD5D1",
"{+	c #67B4A8",
"]+	c #009D91",
"^+	c #009F93",
"/+	c #67B2AC",
"(+	c #75C8C6",
"_+	c #00DCD5",
":+	c #43C2BE",
"<+	c #2BD4CD",
"[+	c #5CC4B1",
"}+	c #613123",
"|+	c #2F9F82",
"1+	c #22C8C7",
"2+	c #68CEC5",
"3+	c #137A77",
"4+	c #00C9C6",
"5+	c #72D3D4",
"6+	c #3C524D",
"7+	c #00A89E",
"8+	c #50A299",
"9+	c #5BA399",
"0+	c #00A99A",
"a+	c #4BCAC9",
"b+	c #5DBFBD",
"c+	c #00B5AE",
"d+	c #20DBD3",
"e+	c #60D0C8",
"f+	c #57BAB0",
"g+	c #40DBD5",
"h+	c #54E0D9",
"i+	c #41D7D1",
"j+	c #2AD8D3",
"k+	c #5AC8C3",
"l+	c #52C9C2",
"m+	c #6ADCD6",
"n+	c #5FD7D5",
"o+	c #57CDCC",
"p+	c #26C5C7",
"q+	c #00C9C7",
"r+	c #56CCCB",
"s+	c #00907D",
"t+	c #3E776D",
"u+	c #808E76",
"v+	c #21C3B8",
"w+	c #28A99D",
"x+	c #5CB9B6",
"y+	c #00D8CF",
"z+	c #00D1C9",
"A+	c #00D8CC",
"B+	c #45DAD2",
"C+	c #48E4D8",
"D+	c #5BE1DA",
"E+	c #52E4DB",
"F+	c #32E0D8",
"G+	c #36E0D9",
"H+	c #40DDD8",
"I+	c #50DDD7",
"J+	c #56E3DC",
"K+	c #43524D",
"L+	c #507971",
"M+	c #67D8D3",
"N+	c #75D0D2",
"O+	c #4BCAC8",
"P+	c #00C1BE",
"Q+	c #41A09D",
"R+	c #00A89A",
"S+	c #5BB87E",
"T+	c #C38560",
"U+	c #88B9A4",
"V+	c #62B5AD",
"W+	c #348775",
"X+	c #5DC8BE",
"Y+	c #00D6CC",
"Z+	c #00C3BD",
"`+	c #3CA5A0",
" @	c #62CEC9",
".@	c #7EE3DC",
"+@	c #7CE6DF",
"@@	c #63DAD0",
"#@	c #63E3DA",
"$@	c #7CE6DD",
"%@	c #87E9E3",
"&@	c #85E2DD",
"*@	c #7DD9D9",
"=@	c #28C6C7",
"-@	c #00B6B2",
";@	c #00BCBA",
">@	c #3A7573",
",@	c #B48968",
"'@	c #B28968",
")@	c #78C2B2",
"!@	c #45AB9C",
"~@	c #009488",
"{@	c #44C7C0",
"]@	c #3EE0D6",
"^@	c #00CDC6",
"/@	c #00B7AE",
"(@	c #50E3D9",
"_@	c #88EDE2",
":@	c #85DBD5",
"<@	c #8AE7E1",
"[@	c #6AA099",
"}@	c #8EEAE4",
"|@	c #8AECE1",
"1@	c #8BEBE5",
"2@	c #7CEBE4",
"3@	c #7EE8E3",
"4@	c #5AD7D5",
"5@	c #00C2C0",
"6@	c #0FC0C0",
"7@	c #00A7A3",
"8@	c #008C7E",
"9@	c #C68A6C",
"0@	c #BA7142",
"a@	c #AE653A",
"b@	c #70BC9E",
"c@	c #2EAE9A",
"d@	c #00A19B",
"e@	c #00CAC4",
"f@	c #58DFD8",
"g@	c #00DBD1",
"h@	c #00BAB3",
"i@	c #009C97",
"j@	c #00C5BF",
"k@	c #64C5BF",
"l@	c #579A95",
"m@	c #6FDBD1",
"n@	c #79CBC4",
"o@	c #68B3AC",
"p@	c #80DCD6",
"q@	c #75E9E0",
"r@	c #1AE0DB",
"s@	c #00BAB6",
"t@	c #00B9B7",
"u@	c #00C0BF",
"v@	c #00AFAF",
"w@	c #00B5B1",
"x@	c #00BEB7",
"y@	c #2C8574",
"z@	c #C99B84",
"A@	c #B06539",
"B@	c #A1562E",
"C@	c #99512A",
"D@	c #A35222",
"E@	c #A48270",
"F@	c #00B9B1",
"G@	c #37C5BF",
"H@	c #00D4CC",
"I@	c #00B4AB",
"J@	c #007970",
"K@	c #00A199",
"L@	c #00B8B1",
"M@	c #00C2BE",
"N@	c #78D5CF",
"O@	c #609F99",
"P@	c #77C4BE",
"Q@	c #17DDD6",
"R@	c #00C6BF",
"S@	c #00BFAB",
"T@	c #00B69F",
"U@	c #2E6D65",
"V@	c #00B3B6",
"W@	c #00B5B5",
"X@	c #00B3AB",
"Y@	c #119882",
"Z@	c #9E7C6D",
"`@	c #A16139",
" #	c #9B512A",
".#	c #9B5129",
"+#	c #6D3224",
"@#	c #99512B",
"##	c #9F5122",
"$#	c #A25120",
"%#	c #A96031",
"&#	c #AB7355",
"*#	c #A67860",
"=#	c #C38C72",
"-#	c #BE8562",
";#	c #68AA80",
">#	c #00766A",
",#	c #66BC4F",
"'#	c #009281",
")#	c #008F7F",
"!#	c #00917E",
"~#	c #008F7A",
"{#	c #008E7B",
"]#	c #009A66",
"^#	c #50A270",
"/#	c #97B98E",
"(#	c #63A996",
"_#	c #7CAE7E",
":#	c #B97749",
"<#	c #A7673E",
"[#	c #9B5A33",
"}#	c #A35120",
"|#	c #945634",
"1#	c #AC6337",
"2#	c #A85B2E",
"3#	c #C78F70",
"4#	c #DFB597",
"5#	c #A9BC9D",
"6#	c #63755D",
"7#	c #007361",
"8#	c #009B76",
"9#	c #00A37A",
"0#	c #53AD85",
"a#	c #BD927D",
"b#	c #997B66",
"c#	c #AF8267",
"d#	c #9D9874",
"e#	c #A8643E",
"f#	c #A55F31",
"g#	c #A25122",
"h#	c #9E512B",
"i#	c #AC6A49",
"j#	c #B67D62",
"k#	c #B07D64",
"l#	c #CE9574",
"m#	c #CD9676",
"n#	c #CE9576",
"o#	c #D19574",
"p#	c #C68E71",
"q#	c #795B4B",
"r#	c #A36748",
"s#	c #98512A",
"t#	c #9C5029",
"u#	c #924731",
"v#	c #A05021",
"w#	c #AA5C2E",
"x#	c #B46334",
"y#	c #AB6947",
"z#	c #A36549",
"A#	c #9A6341",
"B#	c #A66541",
"C#	c #A7633A",
"D#	c #B66334",
"E#	c #A85C2E",
"F#	c #844729",
"G#	c #98502A",
"H#	c #A3562B",
"I#	c #A1562B",
"J#	c #A65627",
"K#	c #97502A",
"L#	c #733527",
"M#	c #763C2B",
"N#	c #7E4532",
"O#	c #84432E",
"P#	c #86432E",
"Q#	c #844331",
"R#	c #85422F",
"S#	c #844432",
"T#	c #814432",
"U#	c #81432E",
"V#	c #81422D",
"W#	c #753928",
"X#	c #6E3425",
"Y#	c #703123",
"Z#	c #703224",
"                                                                                                                                ",
"                                                                                                                                ",
"                                                                                                                                ",
"                                                                                                                                ",
"                                                                                                                                ",
"                                                                                                                                ",
"                                                                                                                                ",
"                                                                                                                                ",
"                                                                                                                                ",
"                                                                                                                                ",
"                                                                                                                                ",
"                                                                                                                                ",
"                                                                                                                                ",
"                                                                                                                                ",
"                                                                                                                                ",
"                                                                                                                                ",
"                                                                                                                                ",
"                                                                                                                                ",
"                                                                                                                                ",
"                                                                                                                                ",
"                                                                                                                                ",
"                                                                                                                                ",
"                                                                                                                                ",
"                                                                                                                                ",
"                                                                                                                                ",
"                                                                                                                                ",
"                                                                                                                                ",
"                                                                                                                                ",
"                                                                                                                                ",
"                                                                                                                                ",
"                                                                                                                                ",
"                                                        . + @ # #                                                               ",
"                                                  $ % # & * = # - ; > , ' '                                                     ",
"                                              # ) ! ~ { ] ^ / ( ( # _ : < [ } |                                                 ",
"                                          1 2 3 * 4 5 6 7 8 9 0 / a b c d e f g h '                                             ",
"                                        i j k l m n o p q r * s t u # v w x y z A B C                                           ",
"                                      D E F G H I J K L M N O P Q R S * T U V F W X Y Z                                         ",
"                                    `  ...* +.@.#.$.* %.&.*.=.-.;.>.,.'.).!.~.{.].^./.(._.:.                                    ",
"                                  <.[.}.|.1.% 2.3.* 4.5.6.7.8.9.0.a.b.b.c.d.e.f.d g.h.i.j.k.                                    ",
"                                l.m.n.o.p.q.+ r.s.t.u.b.v.w.w.w.w.w.x.y.b.z.A.* B.C.D.E.F.G.                                    ",
"                                H.* I.J.K.L.M.N.$.O.P.Q.Q.Q.Q.Q.Q.Q.Q.R.S.y.T.U.b V.W.X.Y.Z.`.                                  ",
"                                *  +.+++@+#+* $+%+&+*+Q.                =+-+;+>+b ,+'+* )+!+~+~+                                ",
"                                {+]+^+/+(+_+:+<+[+}+-+                    }+|+1+b 2+3+* 4+5+6+7+                                ",
"                                8+9+0+a+b+c+d+e+f+g+h+                  i+j+k+l+m+n+o+p+q+r+s+t+                                ",
"                                u+v+* w+x+y+z+A+B+C+D+@ E+F+h+h+h+G+F+H+I+J+K+L+M+N+O+P+Q+* R+S+                                ",
"                                T+U+V+W+* X+Y+Z+Q `+ @.@1.( +@@@#@u $@+@% n %@&@*@=@-@;@>@* ,@'@                                ",
"                                ,@T+)@!@~@{@]@^@/@* * (@_@:@<@[@* }@|@n 1@2@3@4@5@;@l 6@7@8@9@0@                                ",
"                                a@T+'@b@c@d@e@f@g@h@i@j@k@l@m@n@o@p@n q@r@Q s@t@u@v@w@x@y@z@A@B@                                ",
"                                C@D@T+E@T+* * F@G@H@I@J@K@L@M@N@O@P@Q@* R@S@T@U@V@W@X@Y@Z@`@ #.#                                ",
"                                +#@###$#%#&#*#=#-#;#>#,#'#* )#!#~#{#]#* * ^#/#(#_#:#<#[#$# # #Q.                                ",
"                                  +#.#$#}#|#1#2#*#3#4#5#* 6#9@7#* 8#9#0#a#b#c#d#e#f#}#}#g#@#Q.                                  ",
"                                    +#h#.#}#2#2#2#i#j#9@j#k#l#m#n#l#o#n#p#q#r#2#2#}#}#s#t#+#                                    ",
"                                      +#u#v#v#}#}#2#2#w#x#y#z#A#B#C#D#w#2#2#E#$#$#v# #F#+#                                      ",
"                                        +#+#F#G#G#G#H#I#I#I#I#I#I#I#I#I#I#J#G#K# #F#+#+#                                        ",
"                                            L#L#+#M#N#O#P#Q#Q#R#R.R#S#T#U#V#W#+#+#Q.Q.                                          ",
"                                                  X#+#Y#Y#Y#Y#Y#Y#Y#Y#Y#Z#Z#+#                                                  ",
"                                                                                                                                ",
"                                                                                                                                ",
"                                                                                                                                ",
"                                                                                                                                ",
"                                                                                                                                ",
"                                                                                                                                ",
"                                                                                                                                ",
"                                                                                                                                "};
