/* XPM */
static char * DOOR_xpm[] = {
"48 64 85 1",
" 	c #2F1D11",
".	c #432914",
"+	c #422815",
"@	c #412715",
"#	c #432916",
"$	c #452A18",
"%	c #2F1C12",
"&	c #3E2715",
"*	c #2E2533",
"=	c #27232A",
"-	c #462A17",
";	c #492D17",
">	c #2F1B11",
",	c #452A14",
"'	c #452B14",
")	c #462A14",
"!	c #462B15",
"~	c #482B16",
"{	c #4E2E17",
"]	c #52301A",
"^	c #271611",
"/	c #352012",
"(	c #362012",
"_	c #351F12",
":	c #341F13",
"<	c #E5E6C7",
"[	c #E43C3C",
"}	c #361F12",
"|	c #352010",
"1	c #372011",
"2	c #382011",
"3	c #4B2D17",
"4	c #271612",
"5	c #2F1A11",
"6	c #2C1911",
"7	c #2B1912",
"8	c #E5413E",
"9	c #2E1910",
"0	c #2E1A10",
"a	c #2A1811",
"b	c #2B1711",
"c	c #391F12",
"d	c #4B2E17",
"e	c #E53F3F",
"f	c #362010",
"g	c #291611",
"h	c #402714",
"i	c #E43F3E",
"j	c #472B15",
"k	c #442A18",
"l	c #371F12",
"m	c #351F13",
"n	c #462A15",
"o	c #AE424A",
"p	c #C4B59F",
"q	c #2F1B10",
"r	c #301C12",
"s	c #4C3018",
"t	c #271712",
"u	c #523745",
"v	c #472C16",
"w	c #726B7E",
"x	c #BD7C5E",
"y	c #B27055",
"z	c #AD6B52",
"A	c #7C473E",
"B	c #945747",
"C	c #5D3738",
"D	c #8A4E41",
"E	c #BA7758",
"F	c #EA9033",
"G	c #FEAE34",
"H	c #F6757A",
"I	c #FF9B9E",
"J	c #A7634A",
"K	c #DA7732",
"L	c #DB4B53",
"M	c #492D33",
"N	c #DD8648",
"O	c #ECBF7B",
"P	c #E3A954",
"Q	c #E19A4F",
"R	c #E6A14F",
"S	c #DF8F4B",
"T	c #DA8D4C",
" .+++@#$%&*******====****====****=====-;>,')!~{]",
"^/(___:==*<<<<<<[[[[<<<<[[[[<<<<[[[[[[=**}|(1123",
"4(5567=[[<<<<<<[[[[<<<<[[[[<<<<[[[[8[[[<<*90abcd",
"4_@_:=[[[[<<<<<[[[[<<<<[[[[<<<<[[[[e[[[<<<*ffb1~",
"g_h:=[[[[[<<<<<[[[[<<<<[[[[<<<<[[[[i[[[[<<<*f01j",
"g_k=[[[[[[[<<<<<[[[[<<<<[[[[<<<<[[[[[[[[<<<<=0l!",
"gm*<<[[[[[[[<<<<[[[[<<<<[[[[<<<<[[[[[[[[<<<<[=(n",
"^*<<<<[[[[[opp<<<[[[[<<<<[[[[<<<<[[[o[[[<<<<[[=q",
"r*<<<<<<[[ooop<<<<[[[[<<<<[[[[<<<<[[oo[<<<<[[[=s",
"t*<<<<<<<pooou[<<<<[[[[<<<<[[[[<<<<[ooo<<<<[[[=v",
"=[[<<<<<<ppwuu[[[<<<<[[[[<<<<[[[[<<<uop<<<[[[[<*",
"=[[[[[<<<ppw*=*====****====****====*upp<<[[[[<<*",
"=[[[[[[[[<<=xyzzzzzxxyzzzzzxxyzzzzzx=[[[[[[[[<<=",
"=[[[[[[[<<<=AxzzzzxBAxzzzzxBAxzzzzxB=[[[[[[[<<<=",
"*[[[[[[<<<[=CAxxxxBDCAxxxxBDCAxxxxBD*[[[[[[<<<[=",
"*<[[[<<<<<[=CCEFGxDDCCEHIxDDCCEFGxDD*<[[[<<<<<[=",
"*<<<<<<<<[[*CCJKFEDDCCJLHEDDCCJKFEDD*<<<<<<<<[[*",
"*<<<<<<<[[[*CCJJJJDDCCJJJJDDCCJJJJDD*<<<<<<<[[[*",
"=<<<<<<[[[<*CMMMMMCDCMMMMMCDCMMMMMCD=<<<<<<[[[<*",
"=[<<<[[[[[<*MMMMMMMCMMMMMMMCMMMMMMMC=[<<<[[[[[<*",
"=[[[[[[[[<<=xyzzzzzxxyzzzzzxxyzzzzzx=[[[[[[[[<<=",
"=[[[[[[[<<<=AxzzzzxBAxzzzzxBAxzzzzxB=[[[[[[[<<<=",
"*[[[[[[<<<[=CAxxxxBDCAxxxxBDCAxxxxBD*[[[[[[<<<[=",
"*<[[[<<<<<[=CCEFGxDDCCEHIxDDCCEFGxDD*<[[[<<<<<[=",
"*<<<<<<<<[[*CCJKFEDDCCJLHEDDCCJKFEDD*<<<<<<<<[[*",
"*<<<<<<<[[[*CCJJJJDDCCJJJJDDCCJJJJDD*<<<<<<<[[[*",
"=<<<<<<[[[<*CMMMMMCDCMMMMMCDCMMMMMCD=<<<<<<[[[<*",
"=[<<<[[[[[<*MMMMMMMCMMMMMMMCMMMMMMMC=[<<<[[[[[<*",
"=[[[[[[[[<<=xyzzzzzxxyzzzzzxxyzzzzzx=[[[[[[[[<<=",
"=[[[[[[[<<<=AxzzzzxBAxzzzzxBAxzzzzxB=[[[[[[[<<<=",
"*[[[[[[<<<[=CAxxxxBDCAxxxxBDCAxxxxBD*[[[[[[<<<[=",
"*<[[[<<<<<[=CCEHIxDDCCEFGxDDCCEHIxDD*<[[[<<<<<[=",
"*<<<<<<<<[[*CCJLHEDDCCJKFEDDCCJLHEDD*<<<<<<<<[[*",
"*<<<<<<<[[[*CCJJJJDDCCJJJJDDCCJJJJDD*<<<<<<<[[[*",
"=<<<<<<[[[<*CMMMMMCDCMMMMMCDCMMMMMCD=<<<<<<[[[<*",
"=[<<<[[[[[<*MMMMMMMCMMMMMMMCMMMMMMMC=[<<<[[[[[<*",
"=[[[[[[[[<<=xyzzzzzxxyzzzzzxxyzzzzzx=[[[[[[[[<<=",
"=[[[[[[[<<<=AxzzzzxBAxzzzzxBAxzzzzxB=[[[[[[[<<<=",
"*[[[[[[<<<[=CAxxxxBDCAxxxxBDCAxxxxBD*[[[[[[<<<[=",
"*<[[[<<<<<[=CCEHIxDDCCEFGxDDCCEHIxDD*<[[[<<<<<[=",
"*<<<<<<<<[[*CCJLHEDDCCJKFEDDCCJLHEDD*<<<<<<<<[[*",
"*<<<<<<<[[[*CCJJJJDDCCJJJJDDCCJJJJDD*<<<<<<<[[[*",
"=<<<<<<[[[<*CMMMMMCDCMMMMMCDCMMMMMCD=<<<<<<[[[<*",
"=[<<<[[[[[<*MMMMMMMCMMMMMMMCMMMMMMMC=[<<<[[[[[<*",
"=[[[[[[[[<<=xyzzzzzxxyzzzzzxxyzzzzzx=[[[[[[[[<<=",
"=[[[[[[[<<<=AxzzzzxBAxzzzzxBAxzzzzxB=[[[[[[[<<<=",
"*[[[[[[<<<[=CAxxxxBDCAxxxxBDCAxxxxBD*[[[[[[<<<[=",
"*<[[[<<<<<[=CCEFGxDDCCEHIxDDCCEFGxDD*<[[[<<<<<[=",
"*<<<<<<<<[[*CCJKFEDDCCJLHEDDCCJKFEDD*<<<<<<<<[[*",
"*<<<<<<<[[[*CCJJJJDDCCJJJJDDCCJJJJDD*<<<<<<<[[[*",
"=<<<<<<[[[<*CMMMMMCDCMMMMMCDCMMMMMCD=<<<<<<[[[<*",
"=[<<<[[[[[<*MMMMMMMCMMMMMMMCMMMMMMMC=[<<<[[[[[<*",
"=[[[[[[[[<<=xyzzzzzxxyzzzzzxxyzzzzzx=[[[[[[[[<<=",
"=[[[[[[[<<<=AxzzzzxBAxzzzzxBAxzzzzxB=[[[[[[[<<<=",
"*[[[[[[<<<[=CAxxxxBDCAxxxxBDCAxxxxBD*[[[[[[<<<[=",
"*<[[[<<<<<[=CCEFGxDDCCEHIxDDCCEFGxDD*<[[[<<<<<[=",
"*<<<<<<<<[[*CCJKFEDDCCJLHEDDCCJKFEDD*<<<<<<<<[[*",
"*<<<<<<<[[[*CCJJJJDDCCJJJJDDCCJJJJDD*<<<<<<<[[[*",
"=<<<<<<[[[<*CMMMMMCDCMMMMMCDCMMMMMCD=<<<<<<[[[<*",
"=[<<<[[[[[<*MMMMMMMCMMMMMMMCMMMMMMMC=[<<<[[[[[<*",
"=[[[[[[[[<<=NOPQRQPONOPQRQPONOPQRQPO=[[[[[[[[<<=",
"=[[[[[[[<<<=SNOPQPONSNOPQPONSNOPQPON=[[[[[[[<<<=",
"*[[[[[[<<<[=RSNOPONQRSNOPONQRSNOPONQ*[[[[[[<<<[=",
"*<[[[<<<<<[=RRSTOPQRRRSTOPQRRRSTOPQR*<[[[<<<<<[="};
