/* XPM */
static char * WEST_WALL_xpm[] = {
"48 64 152 2",
"  	c #2F1D11",
". 	c #432914",
"+ 	c #422815",
"@ 	c #412715",
"# 	c #432916",
"$ 	c #452A18",
"% 	c #2F1C12",
"& 	c #3E2715",
"* 	c #3D2715",
"= 	c #402916",
"- 	c #422B17",
"; 	c #2F1D12",
"> 	c #432A17",
", 	c #3F2916",
"' 	c #412B17",
") 	c #2E1C12",
"! 	c #3D2615",
"~ 	c #422817",
"{ 	c #442A17",
"] 	c #2F1B11",
"^ 	c #402714",
"/ 	c #402715",
"( 	c #412813",
"_ 	c #432A16",
": 	c #452C16",
"< 	c #271611",
"[ 	c #352012",
"} 	c #362012",
"| 	c #351F12",
"1 	c #341F13",
"2 	c #271712",
"3 	c #331F13",
"4 	c #332013",
"5 	c #342012",
"6 	c #332012",
"7 	c #3F2815",
"8 	c #331F12",
"9 	c #412816",
"0 	c #341F12",
"a 	c #341F11",
"b 	c #422915",
"c 	c #271612",
"d 	c #2F1A11",
"e 	c #2C1911",
"f 	c #2B1912",
"g 	c #342013",
"h 	c #2E1B13",
"i 	c #2C1A12",
"j 	c #2D1A12",
"k 	c #412815",
"l 	c #281912",
"m 	c #2E1B11",
"n 	c #2D1B11",
"o 	c #3F2816",
"p 	c #2E1A11",
"q 	c #2A1A12",
"r 	c #3D2714",
"s 	c #342111",
"t 	c #3E2814",
"u 	c #2B1B11",
"v 	c #281911",
"w 	c #3F2615",
"x 	c #291611",
"y 	c #2F1C11",
"z 	c #2E1C11",
"A 	c #281712",
"B 	c #341E13",
"C 	c #3E2714",
"D 	c #442A18",
"E 	c #412A17",
"F 	c #412A16",
"G 	c #3C2614",
"H 	c #261612",
"I 	c #351F13",
"J 	c #291911",
"K 	c #301D11",
"L 	c #271711",
"M 	c #261712",
"N 	c #301C12",
"O 	c #3D2815",
"P 	c #3F2915",
"Q 	c #432917",
"R 	c #3E2815",
"S 	c #402915",
"T 	c #301C11",
"U 	c #2D1B10",
"V 	c #3D2614",
"W 	c #352111",
"X 	c #342113",
"Y 	c #452C18",
"Z 	c #362113",
"` 	c #352113",
" .	c #352013",
"..	c #291912",
"+.	c #311E11",
"@.	c #281711",
"#.	c #301E12",
"$.	c #422916",
"%.	c #442B17",
"&.	c #3F2814",
"*.	c #291913",
"=.	c #362111",
"-.	c #301D12",
";.	c #372212",
">.	c #311D12",
",.	c #472E17",
"'.	c #412A14",
").	c #291A12",
"!.	c #321E13",
"~.	c #452B17",
"{.	c #402A16",
"].	c #372113",
"^.	c #3E2816",
"/.	c #3C2714",
"(.	c #462D17",
"_.	c #3C2613",
":.	c #311D11",
"<.	c #311E12",
"[.	c #3E2716",
"}.	c #2B1B10",
"|.	c #332010",
"1.	c #271912",
"2.	c #3A2514",
"3.	c #331F11",
"4.	c #3A2513",
"5.	c #2C1A10",
"6.	c #291612",
"7.	c #442B18",
"8.	c #311C12",
"9.	c #362013",
"0.	c #2E1A13",
"a.	c #3F2614",
"b.	c #281A11",
"c.	c #3C2713",
"d.	c #472C18",
"e.	c #281A12",
"f.	c #3B2614",
"g.	c #2A1811",
"h.	c #3B2613",
"i.	c #3D2814",
"j.	c #2A1812",
"k.	c #342010",
"l.	c #291A10",
"m.	c #2B1911",
"n.	c #2C1912",
"o.	c #2F1B14",
"p.	c #271710",
"q.	c #482D17",
"r.	c #342110",
"s.	c #372111",
"t.	c #372011",
"u.	c #2E1E11",
"  . + + + @ # $ % & & & * * = - ; & & & & & = >   & & & & & , ' ) ! ! * * & ~ { ] ^ @ / ^ ( _ : ",
"< [ } | | | 1 = 2 1 3 3 4 5 5 = 2 5 6 6 6 6 6 7 2 6 6 6 6 6 6 7 2 6 8 8 8 8 3 9 < 0 0 | 0 a a b ",
"c } d d e f g 9 2 3 h ) i i 5 7 2 6 ] ] j i 5 k l 5 ] m i i 6 7 2 6 m n f f 8 o c 0 p p e f a b ",
"c | @ | 1 q 1 * c 6 & 5 6 i 6 r l s t s s u 5 r v 5 t s 5 u 5 r 2 6 r 6 6 q 8 ! c 3 w 0 0 e 0 ^ ",
"x | ^ 1 g h 3 * 2 5 r 6 6 m s t v 5 r 5 5 y 5 r v 6 r 5 5 z 6 r A 8 r 6 6 m 6 ! c 8 * B 0 p | C ",
"x | D & & h 3 & 2 6 E r t y 5 r v 5 F r r z 5 C v 6 F r r z 6 r v 5 F G r m 6 r H 8 E * w p 0 ^ ",
"x I g g 1 3 5 & 2 6 5 s s 5 5 r v 6 5 5 5 5 5 C J 5 5 5 5 6 6 r v 6 6 5 0 6 6 r 2 6 8 8 3 B 0 ^ ",
"< 2 2 2 c 2 2   2 A l v v v v   J J J J J J J K J J J J J J J K v v v v v v L y 2 2 M H c c c ] ",
"N 7 & & O & = E K t t r r C k _ K C C C C r 7 F K r r r r r 7 F K C r r r r P = y r r * ! ! 9 Q ",
"2 g 1 4 5 5 6 k l s 5 6 [ 5 5 7 J 5 5 5 5 5 5 7 J 5 5 5 5 5 5 7 J 5 5 5 6 6 6 R L 6 6 6 8 8 8 o ",
"2 g h % i i 5 S l s y T n n 5 7 J 5 y y n n 5 7 J 5 y y U U 5 R J 5 y y n u 6 R v 0 m m i f 8 o ",
"2 g R g 5 i s t l 5 C 5 5 n 5 C J 5 C 5 5 n 5 r J 5 r 5 5 U 5 r J 5 r 5 5 n 6 r v 5 V 6 6 i 8 ! ",
"2 g 7 g 5 y s t l W C 5 5 y 5 C J 5 r 5 5 y 5 r J 5 r 5 5 y 5 r J 5 r 5 5 y 5 r v 6 r 8 6 m 6 ! ",
"2 X Y 7 &   s t l [ _ C C y 5 C J 5 F r r y 5 r J 5 F r r y 5 r J 5 F r r y 5 r v 6 F r r m 6 * ",
"A Z `  . .W s t ..W [ [ [ 5 5 C J 5 5 5 5 5 5 r J 5 5 5 5 5 5 r J 5 5 5 5 5 5 r J 6 6 5 8 6 6 r ",
"l l l l ....l +.....J J J J J K J J J J J J J K J J J J J J J K J J J J J J J K J J v v v @.2   ",
"#.$.S k P 7 F %.+.&.&.C C C k _ K C C C C C k F K C r r r r 7 F K r r r r r 7 F K r C r r r o E ",
"*.Z Z Z ` ` =.b ..W W W [ [ 5 7 J 5 5 5 5 5 5 7 J 5 5 5 5 5 5 R J 5 5 5 5 5 5 7 J 5 5 6 6 6 0 R ",
"*.Z % -.n n =.b ..W T T n n 5 7 J 5 y y n n 5 7 J 5 y y n n 5 R J 5 y y U U 5 R J 5 y y u u 6 R ",
"*.Z # ;.Z n =.k ..W &.W [ n 5 C J 5 C 5 5 n 5 * J 5 C 5 5 n 5 r J 5 r 5 5 U 5 r J 5 r 5 5 u 6 r ",
"*.Z # ;.Z >.=.k ..W &.W [ T 5 C J 5 C 5 5 y g * ..g * g g % 5 r J 5 r 5 5 y 5 r J 5 r 5 5 z 6 r ",
"*.Z ,.'.S >.=.k ..W %.C C y 5 C J 5 _ * * % g * ..g E * * % g r J 5 F r r y 5 r J 5 F r r z 6 r ",
"*.;.;.;.;.Z =.k ..W W [ [ 5 5 C J 5 g g g g g * ..g g g g g g * J 5 5 5 5 5 5 r J 5 5 5 5 5 6 r ",
"*...).).).f f +.......J J J J K J J ..........-...............-...J J J J J J K J J J J J J v   ",
"!._ _ '.S S _ ~.+.&.&.C C C k _ K * * * * * o E -.* * * * * o E -.r r r r r 7 F K r r r r r R {.",
"*.Z ;.;.].Z =.F ..W W [ 5 5 5 7 J g g g g g g ^...g g g g g g ^...g 5 5 5 5 5 R J 5 5 5 5 5 5 R ",
"*.Z -.-.m m =.F ..W T y n n 5 7 J g % % n n g ^...g % % n n g ^...g % y U U 5 R J 5 y y U U 5 R ",
"*.].'.;.Z m =.&...W C 5 5 n 5 r ..g * g g n g * ..g * g g n g * ..g * 5 5 U 5 r J 5 r 5 5 U 5 /.",
"*.].'.Z ` -.W &...[ C 5 5 y 5 r ..g * g g % g * ..g * g g % g * ..g * 5 5 y 5 r J 5 r 5 6 y 5 r ",
"..Z (.S S -.W &.J 5 _ C r y 5 r ..g E * * % g * ..g E * G % 4 G l g E * r y 5 r J 5 F r _.y 5 r ",
"..Z ;.` ` =.W &.J 5 5 5 5 5 5 r ..g g g 4 4 4 G l 4 4 4 4 4 4 G l g g g g 5 5 r v 6 5 6 6 5 5 r ",
"l l )...l ....:.J J J J J J J K ......l l l l ; l l l l l l l ; l l l l l J v K J v v v v J J K ",
"<.S S P 7 &.$._ K C C r r r 7 F -.* G G G G [.= ; G G G G G [.= ; G G G _._.& =   _._._._.r 7 F ",
"l ` ` W W W W S J 5 5 5 5 5 5 R l 4 4 6 6 6 6 * l 6 6 6 6 6 6 * l 6 6 6 6 6 6 C v 6 6 6 6 5 5 R ",
"l ` N ; n m [ 7 J 5 y y U U 6 C v 6 ) ) u u 6 * l 6 ) ) u u 6 * l 6 ) ) }.}.|.C v 6 y y }.U 5 7 ",
"l  .R W s n [ C J 5 r 5 5 U 5 _.v |.G 6 6 u 6 G l 6 G 6 6 u 6 G l 6 G 6 |.}.|._.v 6 _.6 6 U 5 r ",
"l  .& W s y [ C J 5 r 5 5 y 6 _.v |.G 6 6 ) 6 G l 8 G 8 8 ) 8 G l 8 G |.|.z |._.v |._.6 6 y 5 r ",
"1. .- t t y 5 C J 5 F r r y 6 _.v |.= G G ) 8 G l 8 o 2.2.h 8 G l 8 , _._.z |._.v |.= _._.y 5 r ",
"2  .5 5 s 5 5 C J 5 5 5 5 6 |._.v |.|.8 8 8 8 G l 8 8 8 8 8 8 G l 8 8 |.3.3.|._.v |.6 6 5 5 5 r ",
"2 l A 2 l v v K J J J J J v v   v v v v l l l ; l l l l l l l ; l l l v v v v   v v v v v J J   ",
"% O & & C r 7 _ K r r r _._.& S   _._._._._.* , ; G G G G 2.* o % 4._._._._.& S   _._._._._.7 {.",
"2 1 5 5 5 s 5 7 J 5 5 5 5 6 |.r v |.3.3.3.3.8 * l 8 8 8 8 8 8 r v 3.3.3.|.|.|.r v 6 6 6 5 5 5 R ",
"2 1 ) z i u 5 P J 5 y y }.}.|.r v |.z z 5.5.3.r l 8 h h 5.5.3.r v 3.z z }.}.|.r v 6 y y U U 5 R ",
"2 g R 5 5 i s r J 5 r 5 6 }.|._.v |._.|.3.5.3._.v 3._.3.3.5.3._.v 3._.3.3.}.|._.v 6 _.5 5 U 6 /.",
"2 g & 5 5 m s r v 5 r 5 5 y 6 _.v |._.|.|.z 3._.v 3._.3.3.z 3._.v 3._.3.|.z |._.v 6 r 5 5 y 6 r ",
"6. .7.O & z 6 r v 6 F r r y 6 _.v |.S _._.z 3._.v 3.P _._.z 3._.v 3.P _._.z 6 _.v 5 F r r z 6 r ",
"x  .g 1 5 6 6 r v 6 6 5 5 5 6 _.v 6 6 |.|.|.3._.v 3.3.3.3.3.3._.v 3.|.|.|.6 6 _.v 5 5 5 5 5 6 r ",
"6.6.2 2 c A 2 y v v v J J J J   v v v v v v v   v v v v v v v   v v v v v v v   J J J J J J J y ",
"8.+ 9 7 * * = E z r r /.r r 7 =   _._._._._.& S   _._._._._.r P   _._._._._.& = K _.r r r r 7 $.",
"6.} | g 1 3 5 7 2 0 5 6 5 5 5 R J 6 6 6 6 6 6 C v |.3.|.3.3.3.r v |.|.|.|.|.6 C v 6 5 5 5 5 8 7 ",
"c 9.d 0.q f 8 , 2 6 ] z n n 5 R J 6 y y }.}.6 r v 3.z z 5.5.3.r v |.z z }.}.6 r v 6 y y n j 8 7 ",
"6.9.+ | g f 8 * 2 6 V 0 5 n 5 r v 6 _.6 |.}.3._.v 3._.a 3.5.3._.v 3._.|.|.}.|._.v 6 _.5 5 n 5 C ",
"< 9.+ | 0 h 8 ! M 5 a.0 0 y 5 r v 6 _.|.|.z 3._.b.3.c.|.|.z |.c.b.|.c.3.3.z |._.v |._.6 5 y 5 C ",
"< } d.@ C h 6 & 2 s _ C r y 5 r v 6 S _.G ) 8 G e.6 , f.f.) 6 f.e.6 o G G z |._.v 6 = _.r y 5 r ",
"x } } | g 1 8 /.A 5 6 5 5 5 5 _.v |.|.3.3.3.3.2.l 8 8 8 8 8 8 2.l 8 8 3.3.|.|._.v |.6 6 5 5 0 a.",
"c c < c c 2 6.  A g.g.J J J J   v v v v v v v y J J ........J T J v v v v v v   v v v v J J g.T ",
"K $.+ @ w & = > T r C r r r & S   _._.c.h.h.i.P   h.h.h.h.h.i.P   h.h.h.h.c.i.S   _._._.r r 7 F ",
"< 9.} | 5 1 0 k j.| 5 5 5 6 |.r v 3.3.3.k.k.k.t l.k.k.|.|.k.k.t b.|.|.|.|.3.3.r v |.6 6 5 5 6 R ",
"L [ m d m.n.0 @ A | ] y U }.|.r v 8 h h i i 0 R ).5 % % n n 5 R ).5 o.m 5.5.|.r v 6 y y U n 5 7 ",
"L } + I 1 f 5 r l [ C 5 5 }.|._.v |.h.6 6 u 6 f.e.6 f.6 6 j 8 2.l 8 2.8 8 i 8 _.v 6 _.5 5 n 5 V ",
"p.Z b | g o.1 C A | r 5 5 z |._.v 3.4.|.k.% 5 G ).6 G 6 6 % 5 f.e.6 /.6 3.z |._.v 5 r 5 5 y 6 r ",
"6.=.q.+ ^ h 1 w A 6 F r r y 6 _.v 3.P 4.4.z |._.l.k.= r r ; 5 r l.r.'.c.c.z 6 _.J 5 F r C z 5 r ",
"2 s.t.} | [  ./ A W [ 5 5 5 6 _.v |.|.3.3.3.3._.v 3.|.r.r.r.r.c.v 6 6 6 6 6 5 r J 5 5 5 5 s s i.",
"< @.x x x A A ; j.A v J J J J K v v l e.e.b.J   v v v v v v J K J J J J J J J K J J J ..l l l u."};
