/* XPM */
static char * DOOR_xpm[] = {
"64 64 94 2",
"  	c #2F1D11",
". 	c #432914",
"+ 	c #422815",
"@ 	c #412715",
"# 	c #432916",
"$ 	c #452A18",
"% 	c #2F1C12",
"& 	c #3E2715",
"* 	c #2E2533",
"= 	c #27232A",
"- 	c #462A17",
"; 	c #492D17",
"> 	c #2F1B11",
", 	c #452A14",
"' 	c #452B14",
") 	c #462A14",
"! 	c #462B15",
"~ 	c #482B16",
"{ 	c #4E2E17",
"] 	c #52301A",
"^ 	c #271611",
"/ 	c #352012",
"( 	c #362012",
"_ 	c #351F12",
": 	c #341F13",
"< 	c #E5E6C7",
"[ 	c #E43C3C",
"} 	c #361F12",
"| 	c #352010",
"1 	c #372011",
"2 	c #382011",
"3 	c #4B2D17",
"4 	c #271612",
"5 	c #2F1A11",
"6 	c #2C1911",
"7 	c #2B1912",
"8 	c #2E1910",
"9 	c #2E1A10",
"0 	c #2A1811",
"a 	c #2B1711",
"b 	c #391F12",
"c 	c #4B2E17",
"d 	c #E4413F",
"e 	c #362010",
"f 	c #291611",
"g 	c #402714",
"h 	c #E53D3D",
"i 	c #472B15",
"j 	c #442A18",
"k 	c #E43D3D",
"l 	c #371F12",
"m 	c #351F13",
"n 	c #E54140",
"o 	c #E44340",
"p 	c #462A15",
"q 	c #AE424A",
"r 	c #C4B59F",
"s 	c #E24543",
"t 	c #2F1B10",
"u 	c #301C12",
"v 	c #E5BFA6",
"w 	c #E24844",
"x 	c #E2504C",
"y 	c #4C3018",
"z 	c #271712",
"A 	c #523745",
"B 	c #E5DCBF",
"C 	c #8A6578",
"D 	c #C6B19C",
"E 	c #472C16",
"F 	c #726B7E",
"G 	c #BD7C5E",
"H 	c #B27055",
"I 	c #AD6B52",
"J 	c #7C473E",
"K 	c #945747",
"L 	c #5D3738",
"M 	c #8A4E41",
"N 	c #BA7758",
"O 	c #EA9033",
"P 	c #FEAE34",
"Q 	c #F6757A",
"R 	c #FF9B9E",
"S 	c #A7634A",
"T 	c #DA7732",
"U 	c #DB4B53",
"V 	c #492D33",
"W 	c #DD8648",
"X 	c #ECBF7B",
"Y 	c #E3A954",
"Z 	c #E19A4F",
"` 	c #E6A14F",
" .	c #DF8F4B",
"..	c #DA8D4C",
"  . + + + @ # $ % & * * * * * * * = = = = * * * * = = = = * * * * = = = = * * * * = = = = * * * * = = = = = - ; > , ' ) ! ~ { ] ",
"^ / ( _ _ _ : = = * < < < < < < [ [ [ [ < < < < [ [ [ [ < < < < [ [ [ [ < < < < [ [ [ [ < < < < [ [ [ [ [ [ = * * } | ( 1 1 2 3 ",
"4 ( 5 5 6 7 = [ [ < < < < < < [ [ [ [ < < < < [ [ [ [ < < < < [ [ [ [ < < < < [ [ [ [ < < < < [ [ [ [ [ [ [ [ < < * 8 9 0 a b c ",
"4 _ @ _ : = [ [ [ [ < < < < < [ [ [ [ < < < < [ [ [ [ < < < < [ [ [ [ < < < < [ [ [ [ < < < < [ [ [ d [ [ [ [ < < < * e e a 1 ~ ",
"f _ g : = [ [ [ [ [ < < < < < [ [ [ [ < < < < [ [ [ [ < < < < [ [ [ [ < < < < [ [ [ [ < < < < [ [ [ h [ [ [ [ [ < < < * e 9 1 i ",
"f _ j = [ [ [ [ [ [ [ < < < < < [ [ [ [ < < < < [ [ [ [ < < < < [ [ [ [ < < < < [ [ [ [ < < < < [ [ k [ [ [ [ [ < < < < = 9 l ! ",
"f m * < < [ [ [ [ [ [ [ < < < < [ [ [ [ < < < < [ [ [ [ < < < < [ [ [ [ < < < < [ [ [ [ < < < < [ [ n o [ [ [ [ < < < < [ = ( p ",
"^ * < < < < [ [ [ [ [ q r r < < < [ [ [ [ < < < < [ [ [ [ < < < < [ [ [ [ < < < < [ [ [ [ < < < < [ s s q [ [ [ < < < < [ [ = t ",
"u * < < < < < < [ [ q q q r < < < < [ [ [ [ < < < < [ [ [ [ < < < < [ [ [ [ < < < < [ [ [ [ < < < v w x q q [ < < < < [ [ [ = y ",
"z * < < < < < < < r q q q A [ < < < < [ [ [ [ < < < < [ [ [ [ < < < < [ [ [ [ < < < < [ [ [ [ < < B C D q q q < < < < [ [ [ = E ",
"= [ [ < < < < < < r r F A A [ [ [ < < < < [ [ [ [ < < < < [ [ [ [ < < < < [ [ [ [ < < < < [ [ [ [ < F F A q r < < < [ [ [ [ < * ",
"= [ [ [ [ [ < < < r r F * = * = = = = * * * * = = = = * * * * = = = = * * * * = = = = * * * * = = = = * A r r < < [ [ [ [ < < * ",
"= [ [ [ [ [ [ [ [ < < = G H I I I I I G G H I I I I I G G H I I I I I G G H I I I I I G G H I I I I I G = [ [ [ [ [ [ [ [ < < = ",
"= [ [ [ [ [ [ [ < < < = J G I I I I G K J G I I I I G K J G I I I I G K J G I I I I G K J G I I I I G K = [ [ [ [ [ [ [ < < < = ",
"* [ [ [ [ [ [ < < < [ = L J G G G G K M L J G G G G K M L J G G G G K M L J G G G G K M L J G G G G K M * [ [ [ [ [ [ < < < [ = ",
"* < [ [ [ < < < < < [ = L L N O P G M M L L N Q R G M M L L N O P G M M L L N Q R G M M L L N O P G M M * < [ [ [ < < < < < [ = ",
"* < < < < < < < < [ [ * L L S T O N M M L L S U Q N M M L L S T O N M M L L S U Q N M M L L S T O N M M * < < < < < < < < [ [ * ",
"* < < < < < < < [ [ [ * L L S S S S M M L L S S S S M M L L S S S S M M L L S S S S M M L L S S S S M M * < < < < < < < [ [ [ * ",
"= < < < < < < [ [ [ < * L V V V V V L M L V V V V V L M L V V V V V L M L V V V V V L M L V V V V V L M = < < < < < < [ [ [ < * ",
"= [ < < < [ [ [ [ [ < * V V V V V V V L V V V V V V V L V V V V V V V L V V V V V V V L V V V V V V V L = [ < < < [ [ [ [ [ < * ",
"= [ [ [ [ [ [ [ [ < < = G H I I I I I G G H I I I I I G G H I I I I I G G H I I I I I G G H I I I I I G = [ [ [ [ [ [ [ [ < < = ",
"= [ [ [ [ [ [ [ < < < = J G I I I I G K J G I I I I G K J G I I I I G K J G I I I I G K J G I I I I G K = [ [ [ [ [ [ [ < < < = ",
"* [ [ [ [ [ [ < < < [ = L J G G G G K M L J G G G G K M L J G G G G K M L J G G G G K M L J G G G G K M * [ [ [ [ [ [ < < < [ = ",
"* < [ [ [ < < < < < [ = L L N O P G M M L L N Q R G M M L L N O P G M M L L N Q R G M M L L N O P G M M * < [ [ [ < < < < < [ = ",
"* < < < < < < < < [ [ * L L S T O N M M L L S U Q N M M L L S T O N M M L L S U Q N M M L L S T O N M M * < < < < < < < < [ [ * ",
"* < < < < < < < [ [ [ * L L S S S S M M L L S S S S M M L L S S S S M M L L S S S S M M L L S S S S M M * < < < < < < < [ [ [ * ",
"= < < < < < < [ [ [ < * L V V V V V L M L V V V V V L M L V V V V V L M L V V V V V L M L V V V V V L M = < < < < < < [ [ [ < * ",
"= [ < < < [ [ [ [ [ < * V V V V V V V L V V V V V V V L V V V V V V V L V V V V V V V L V V V V V V V L = [ < < < [ [ [ [ [ < * ",
"= [ [ [ [ [ [ [ [ < < = G H I I I I I G G H I I I I I G G H I I I I I G G H I I I I I G G H I I I I I G = [ [ [ [ [ [ [ [ < < = ",
"= [ [ [ [ [ [ [ < < < = J G I I I I G K J G I I I I G K J G I I I I G K J G I I I I G K J G I I I I G K = [ [ [ [ [ [ [ < < < = ",
"* [ [ [ [ [ [ < < < [ = L J G G G G K M L J G G G G K M L J G G G G K M L J G G G G K M L J G G G G K M * [ [ [ [ [ [ < < < [ = ",
"* < [ [ [ < < < < < [ = L L N Q R G M M L L N O P G M M L L N Q R G M M L L N O P G M M L L N Q R G M M * < [ [ [ < < < < < [ = ",
"* < < < < < < < < [ [ * L L S U Q N M M L L S T O N M M L L S U Q N M M L L S T O N M M L L S U Q N M M * < < < < < < < < [ [ * ",
"* < < < < < < < [ [ [ * L L S S S S M M L L S S S S M M L L S S S S M M L L S S S S M M L L S S S S M M * < < < < < < < [ [ [ * ",
"= < < < < < < [ [ [ < * L V V V V V L M L V V V V V L M L V V V V V L M L V V V V V L M L V V V V V L M = < < < < < < [ [ [ < * ",
"= [ < < < [ [ [ [ [ < * V V V V V V V L V V V V V V V L V V V V V V V L V V V V V V V L V V V V V V V L = [ < < < [ [ [ [ [ < * ",
"= [ [ [ [ [ [ [ [ < < = G H I I I I I G G H I I I I I G G H I I I I I G G H I I I I I G G H I I I I I G = [ [ [ [ [ [ [ [ < < = ",
"= [ [ [ [ [ [ [ < < < = J G I I I I G K J G I I I I G K J G I I I I G K J G I I I I G K J G I I I I G K = [ [ [ [ [ [ [ < < < = ",
"* [ [ [ [ [ [ < < < [ = L J G G G G K M L J G G G G K M L J G G G G K M L J G G G G K M L J G G G G K M * [ [ [ [ [ [ < < < [ = ",
"* < [ [ [ < < < < < [ = L L N Q R G M M L L N O P G M M L L N Q R G M M L L N O P G M M L L N Q R G M M * < [ [ [ < < < < < [ = ",
"* < < < < < < < < [ [ * L L S U Q N M M L L S T O N M M L L S U Q N M M L L S T O N M M L L S U Q N M M * < < < < < < < < [ [ * ",
"* < < < < < < < [ [ [ * L L S S S S M M L L S S S S M M L L S S S S M M L L S S S S M M L L S S S S M M * < < < < < < < [ [ [ * ",
"= < < < < < < [ [ [ < * L V V V V V L M L V V V V V L M L V V V V V L M L V V V V V L M L V V V V V L M = < < < < < < [ [ [ < * ",
"= [ < < < [ [ [ [ [ < * V V V V V V V L V V V V V V V L V V V V V V V L V V V V V V V L V V V V V V V L = [ < < < [ [ [ [ [ < * ",
"= [ [ [ [ [ [ [ [ < < = G H I I I I I G G H I I I I I G G H I I I I I G G H I I I I I G G H I I I I I G = [ [ [ [ [ [ [ [ < < = ",
"= [ [ [ [ [ [ [ < < < = J G I I I I G K J G I I I I G K J G I I I I G K J G I I I I G K J G I I I I G K = [ [ [ [ [ [ [ < < < = ",
"* [ [ [ [ [ [ < < < [ = L J G G G G K M L J G G G G K M L J G G G G K M L J G G G G K M L J G G G G K M * [ [ [ [ [ [ < < < [ = ",
"* < [ [ [ < < < < < [ = L L N O P G M M L L N Q R G M M L L N O P G M M L L N Q R G M M L L N O P G M M * < [ [ [ < < < < < [ = ",
"* < < < < < < < < [ [ * L L S T O N M M L L S U Q N M M L L S T O N M M L L S U Q N M M L L S T O N M M * < < < < < < < < [ [ * ",
"* < < < < < < < [ [ [ * L L S S S S M M L L S S S S M M L L S S S S M M L L S S S S M M L L S S S S M M * < < < < < < < [ [ [ * ",
"= < < < < < < [ [ [ < * L V V V V V L M L V V V V V L M L V V V V V L M L V V V V V L M L V V V V V L M = < < < < < < [ [ [ < * ",
"= [ < < < [ [ [ [ [ < * V V V V V V V L V V V V V V V L V V V V V V V L V V V V V V V L V V V V V V V L = [ < < < [ [ [ [ [ < * ",
"= [ [ [ [ [ [ [ [ < < = G H I I I I I G G H I I I I I G G H I I I I I G G H I I I I I G G H I I I I I G = [ [ [ [ [ [ [ [ < < = ",
"= [ [ [ [ [ [ [ < < < = J G I I I I G K J G I I I I G K J G I I I I G K J G I I I I G K J G I I I I G K = [ [ [ [ [ [ [ < < < = ",
"* [ [ [ [ [ [ < < < [ = L J G G G G K M L J G G G G K M L J G G G G K M L J G G G G K M L J G G G G K M * [ [ [ [ [ [ < < < [ = ",
"* < [ [ [ < < < < < [ = L L N O P G M M L L N Q R G M M L L N O P G M M L L N Q R G M M L L N O P G M M * < [ [ [ < < < < < [ = ",
"* < < < < < < < < [ [ * L L S T O N M M L L S U Q N M M L L S T O N M M L L S U Q N M M L L S T O N M M * < < < < < < < < [ [ * ",
"* < < < < < < < [ [ [ * L L S S S S M M L L S S S S M M L L S S S S M M L L S S S S M M L L S S S S M M * < < < < < < < [ [ [ * ",
"= < < < < < < [ [ [ < * L V V V V V L M L V V V V V L M L V V V V V L M L V V V V V L M L V V V V V L M = < < < < < < [ [ [ < * ",
"= [ < < < [ [ [ [ [ < * V V V V V V V L V V V V V V V L V V V V V V V L V V V V V V V L V V V V V V V L = [ < < < [ [ [ [ [ < * ",
"= [ [ [ [ [ [ [ [ < < = W X Y Z ` Z Y X W X Y Z ` Z Y X W X Y Z ` Z Y X W X Y Z ` Z Y X W X Y Z ` Z Y X = [ [ [ [ [ [ [ [ < < = ",
"= [ [ [ [ [ [ [ < < < =  .W X Y Z Y X W  .W X Y Z Y X W  .W X Y Z Y X W  .W X Y Z Y X W  .W X Y Z Y X W = [ [ [ [ [ [ [ < < < = ",
"* [ [ [ [ [ [ < < < [ = `  .W X Y X W Z `  .W X Y X W Z `  .W X Y X W Z `  .W X Y X W Z `  .W X Y X W Z * [ [ [ [ [ [ < < < [ = ",
"* < [ [ [ < < < < < [ = ` `  ...X Y Z ` ` `  ...X Y Z ` ` `  ...X Y Z ` ` `  ...X Y Z ` ` `  ...X Y Z ` * < [ [ [ < < < < < [ = "};
