/* XPM */
static char * floor_xpm[] = {
"64 64 9 1",
" 	c #DD8648",
".	c #ECBF7B",
"+	c #E3A954",
"@	c #E19A4F",
"#	c #E6A14F",
"$	c #DF8F4B",
"%	c #DA8D4C",
"&	c #E8AF55",
"*	c #E6BD7A",
" .+@#@+. .+@#@+. .+@#@+. .+@#@+. .+@#@+. .+@#@+. .+@#@+. .+@#@+.",
"$ .+@+. $ .+@+. $ .+@+. $ .+@+. $ .+@+. $ .+@+. $ .+@+. $ .+@+. ",
"#$ .+. @#$ .+. @#$ .+. @#$ .+. @#$ .+. @#$ .+. @#$ .+. @#$ .+. @",
"##$%.+@###$%.+@###$%.+@###$%.+@###$%.+@###$%.+@###$%.+@###$%.+@#",
"#@+. .&@#@+. .&@#@+. .&@#@+. .&@#@+. .&@#@+. .&@#@+. .&@#@+. .&@",
"@+* $ .&@+* $ .&@+* $ .&@+* $ .&@+* $ .&@+* $ .&@+* $ .&@+* $ .&",
"+* @#$ .+* @#$ .+* @#$ .+* @#$ .+* @#$ .+* @#$ .+* @#$ .+* @#$ .",
"*+@###$%*+@###$%*+@###$%*+@###$%*+@###$%*+@###$%*+@###$%*+@###$%",
" .+@#@+. .+@#@+. .+@#@+. .+@#@+. .+@#@+. .+@#@+. .+@#@+. .+@#@+.",
"$ .+@+. $ .+@+. $ .+@+. $ .+@+. $ .+@+. $ .+@+. $ .+@+. $ .+@+. ",
"#$ .+. @#$ .+. @#$ .+. @#$ .+. @#$ .+. @#$ .+. @#$ .+. @#$ .+. @",
"##$%.+@###$%.+@###$%.+@###$%.+@###$%.+@###$%.+@###$%.+@###$%.+@#",
"#@+. .&@#@+. .&@#@+. .&@#@+. .&@#@+. .&@#@+. .&@#@+. .&@#@+. .&@",
"@+* $ .&@+* $ .&@+* $ .&@+* $ .&@+* $ .&@+* $ .&@+* $ .&@+* $ .&",
"+* @#$ .+* @#$ .+* @#$ .+* @#$ .+* @#$ .+* @#$ .+* @#$ .+* @#$ .",
"*+@###$%*+@###$%*+@###$%*+@###$%*+@###$%*+@###$%*+@###$%*+@###$%",
" .+@#@+. .+@#@+. .+@#@+. .+@#@+. .+@#@+. .+@#@+. .+@#@+. .+@#@+.",
"$ .+@+. $ .+@+. $ .+@+. $ .+@+. $ .+@+. $ .+@+. $ .+@+. $ .+@+. ",
"#$ .+. @#$ .+. @#$ .+. @#$ .+. @#$ .+. @#$ .+. @#$ .+. @#$ .+. @",
"##$%.+@###$%.+@###$%.+@###$%.+@###$%.+@###$%.+@###$%.+@###$%.+@#",
"#@+. .&@#@+. .&@#@+. .&@#@+. .&@#@+. .&@#@+. .&@#@+. .&@#@+. .&@",
"@+* $ .&@+* $ .&@+* $ .&@+* $ .&@+* $ .&@+* $ .&@+* $ .&@+* $ .&",
"+* @#$ .+* @#$ .+* @#$ .+* @#$ .+* @#$ .+* @#$ .+* @#$ .+* @#$ .",
"*+@###$%*+@###$%*+@###$%*+@###$%*+@###$%*+@###$%*+@###$%*+@###$%",
" .+@#@+. .+@#@+. .+@#@+. .+@#@+. .+@#@+. .+@#@+. .+@#@+. .+@#@+.",
"$ .+@+. $ .+@+. $ .+@+. $ .+@+. $ .+@+. $ .+@+. $ .+@+. $ .+@+. ",
"#$ .+. @#$ .+. @#$ .+. @#$ .+. @#$ .+. @#$ .+. @#$ .+. @#$ .+. @",
"##$%.+@###$%.+@###$%.+@###$%.+@###$%.+@###$%.+@###$%.+@###$%.+@#",
"#@+. .&@#@+. .&@#@+. .&@#@+. .&@#@+. .&@#@+. .&@#@+. .&@#@+. .&@",
"@+* $ .&@+* $ .&@+* $ .&@+* $ .&@+* $ .&@+* $ .&@+* $ .&@+* $ .&",
"+* @#$ .+* @#$ .+* @#$ .+* @#$ .+* @#$ .+* @#$ .+* @#$ .+* @#$ .",
"*+@###$%*+@###$%*+@###$%*+@###$%*+@###$%*+@###$%*+@###$%*+@###$%",
" .+@#@+. .+@#@+. .+@#@+. .+@#@+. .+@#@+. .+@#@+. .+@#@+. .+@#@+.",
"$ .+@+. $ .+@+. $ .+@+. $ .+@+. $ .+@+. $ .+@+. $ .+@+. $ .+@+. ",
"#$ .+. @#$ .+. @#$ .+. @#$ .+. @#$ .+. @#$ .+. @#$ .+. @#$ .+. @",
"##$%.+@###$%.+@###$%.+@###$%.+@###$%.+@###$%.+@###$%.+@###$%.+@#",
"#@+. .&@#@+. .&@#@+. .&@#@+. .&@#@+. .&@#@+. .&@#@+. .&@#@+. .&@",
"@+* $ .&@+* $ .&@+* $ .&@+* $ .&@+* $ .&@+* $ .&@+* $ .&@+* $ .&",
"+* @#$ .+* @#$ .+* @#$ .+* @#$ .+* @#$ .+* @#$ .+* @#$ .+* @#$ .",
"*+@###$%*+@###$%*+@###$%*+@###$%*+@###$%*+@###$%*+@###$%*+@###$%",
" .+@#@+. .+@#@+. .+@#@+. .+@#@+. .+@#@+. .+@#@+. .+@#@+. .+@#@+.",
"$ .+@+. $ .+@+. $ .+@+. $ .+@+. $ .+@+. $ .+@+. $ .+@+. $ .+@+. ",
"#$ .+. @#$ .+. @#$ .+. @#$ .+. @#$ .+. @#$ .+. @#$ .+. @#$ .+. @",
"##$%.+@###$%.+@###$%.+@###$%.+@###$%.+@###$%.+@###$%.+@###$%.+@#",
"#@+. .&@#@+. .&@#@+. .&@#@+. .&@#@+. .&@#@+. .&@#@+. .&@#@+. .&@",
"@+* $ .&@+* $ .&@+* $ .&@+* $ .&@+* $ .&@+* $ .&@+* $ .&@+* $ .&",
"+* @#$ .+* @#$ .+* @#$ .+* @#$ .+* @#$ .+* @#$ .+* @#$ .+* @#$ .",
"*+@###$%*+@###$%*+@###$%*+@###$%*+@###$%*+@###$%*+@###$%*+@###$%",
" .+@#@+. .+@#@+. .+@#@+. .+@#@+. .+@#@+. .+@#@+. .+@#@+. .+@#@+.",
"$ .+@+. $ .+@+. $ .+@+. $ .+@+. $ .+@+. $ .+@+. $ .+@+. $ .+@+. ",
"#$ .+. @#$ .+. @#$ .+. @#$ .+. @#$ .+. @#$ .+. @#$ .+. @#$ .+. @",
"##$%.+@###$%.+@###$%.+@###$%.+@###$%.+@###$%.+@###$%.+@###$%.+@#",
"#@+. .&@#@+. .&@#@+. .&@#@+. .&@#@+. .&@#@+. .&@#@+. .&@#@+. .&@",
"@+* $ .&@+* $ .&@+* $ .&@+* $ .&@+* $ .&@+* $ .&@+* $ .&@+* $ .&",
"+* @#$ .+* @#$ .+* @#$ .+* @#$ .+* @#$ .+* @#$ .+* @#$ .+* @#$ .",
"*+@###$%*+@###$%*+@###$%*+@###$%*+@###$%*+@###$%*+@###$%*+@###$%",
" .+@#@+. .+@#@+. .+@#@+. .+@#@+. .+@#@+. .+@#@+. .+@#@+. .+@#@+.",
"$ .+@+. $ .+@+. $ .+@+. $ .+@+. $ .+@+. $ .+@+. $ .+@+. $ .+@+. ",
"#$ .+. @#$ .+. @#$ .+. @#$ .+. @#$ .+. @#$ .+. @#$ .+. @#$ .+. @",
"##$%.+@###$%.+@###$%.+@###$%.+@###$%.+@###$%.+@###$%.+@###$%.+@#",
"#@+. .&@#@+. .&@#@+. .&@#@+. .&@#@+. .&@#@+. .&@#@+. .&@#@+. .&@",
"@+* $ .&@+* $ .&@+* $ .&@+* $ .&@+* $ .&@+* $ .&@+* $ .&@+* $ .&",
"+* @#$ .+* @#$ .+* @#$ .+* @#$ .+* @#$ .+* @#$ .+* @#$ .+* @#$ .",
"*+@###$%*+@###$%*+@###$%*+@###$%*+@###$%*+@###$%*+@###$%*+@###$%"};
