/* XPM */
static char * EAST_WALL_xpm[] = {
"64 64 9 1",
" 	c #623428",
".	c #9F5B24",
"+	c #A95F28",
"@	c #B3662A",
"#	c #44262D",
"$	c #7C3F23",
"%	c #A76027",
"&	c #5F302A",
"*	c #532B2A",
" .....+@ .....+@ .....+@ .....+@ .....+@ .....+@ .....+@ .....+@",
"#$$$$$$%#$$$$$$%#$$$$$$%#$$$$$$%#$$$$$$%#$$$$$$%#$$$$$$%#$$$$$$%",
"#$&&**$%#$&&**$%#$&&**$%#$&&**$%#$&&**$%#$&&**$%#$&&**$%#$&&**$%",
"#$.$$*$.#$.$$*$.#$.$$*$.#$.$$*$.#$.$$*$.#$.$$*$.#$.$$*$.#$.$$*$.",
"#$.$$&$.#$.$$&$.#$.$$&$.#$.$$&$.#$.$$&$.#$.$$&$.#$.$$&$.#$.$$&$.",
"#$@..&$.#$@..&$.#$@..&$.#$@..&$.#$@..&$.#$@..&$.#$@..&$.#$@..&$.",
"#$$$$$$.#$$$$$$.#$$$$$$.#$$$$$$.#$$$$$$.#$$$$$$.#$$$$$$.#$$$$$$.",
"####### ####### ####### ####### ####### ####### ####### ####### ",
" .....+@ .....+@ .....+@ .....+@ .....+@ .....+@ .....+@ .....+@",
"#$$$$$$%#$$$$$$%#$$$$$$%#$$$$$$%#$$$$$$%#$$$$$$%#$$$$$$%#$$$$$$%",
"#$&&**$%#$&&**$%#$&&**$%#$&&**$%#$&&**$%#$&&**$%#$&&**$%#$&&**$%",
"#$.$$*$.#$.$$*$.#$.$$*$.#$.$$*$.#$.$$*$.#$.$$*$.#$.$$*$.#$.$$*$.",
"#$.$$&$.#$.$$&$.#$.$$&$.#$.$$&$.#$.$$&$.#$.$$&$.#$.$$&$.#$.$$&$.",
"#$@..&$.#$@..&$.#$@..&$.#$@..&$.#$@..&$.#$@..&$.#$@..&$.#$@..&$.",
"#$$$$$$.#$$$$$$.#$$$$$$.#$$$$$$.#$$$$$$.#$$$$$$.#$$$$$$.#$$$$$$.",
"####### ####### ####### ####### ####### ####### ####### ####### ",
" .....+@ .....+@ .....+@ .....+@ .....+@ .....+@ .....+@ .....+@",
"#$$$$$$%#$$$$$$%#$$$$$$%#$$$$$$%#$$$$$$%#$$$$$$%#$$$$$$%#$$$$$$%",
"#$&&**$%#$&&**$%#$&&**$%#$&&**$%#$&&**$%#$&&**$%#$&&**$%#$&&**$%",
"#$.$$*$.#$.$$*$.#$.$$*$.#$.$$*$.#$.$$*$.#$.$$*$.#$.$$*$.#$.$$*$.",
"#$.$$&$.#$.$$&$.#$.$$&$.#$.$$&$.#$.$$&$.#$.$$&$.#$.$$&$.#$.$$&$.",
"#$@..&$.#$@..&$.#$@..&$.#$@..&$.#$@..&$.#$@..&$.#$@..&$.#$@..&$.",
"#$$$$$$.#$$$$$$.#$$$$$$.#$$$$$$.#$$$$$$.#$$$$$$.#$$$$$$.#$$$$$$.",
"####### ####### ####### ####### ####### ####### ####### ####### ",
" .....+@ .....+@ .....+@ .....+@ .....+@ .....+@ .....+@ .....+@",
"#$$$$$$%#$$$$$$%#$$$$$$%#$$$$$$%#$$$$$$%#$$$$$$%#$$$$$$%#$$$$$$%",
"#$&&**$%#$&&**$%#$&&**$%#$&&**$%#$&&**$%#$&&**$%#$&&**$%#$&&**$%",
"#$.$$*$.#$.$$*$.#$.$$*$.#$.$$*$.#$.$$*$.#$.$$*$.#$.$$*$.#$.$$*$.",
"#$.$$&$.#$.$$&$.#$.$$&$.#$.$$&$.#$.$$&$.#$.$$&$.#$.$$&$.#$.$$&$.",
"#$@..&$.#$@..&$.#$@..&$.#$@..&$.#$@..&$.#$@..&$.#$@..&$.#$@..&$.",
"#$$$$$$.#$$$$$$.#$$$$$$.#$$$$$$.#$$$$$$.#$$$$$$.#$$$$$$.#$$$$$$.",
"####### ####### ####### ####### ####### ####### ####### ####### ",
" .....+@ .....+@ .....+@ .....+@ .....+@ .....+@ .....+@ .....+@",
"#$$$$$$%#$$$$$$%#$$$$$$%#$$$$$$%#$$$$$$%#$$$$$$%#$$$$$$%#$$$$$$%",
"#$&&**$%#$&&**$%#$&&**$%#$&&**$%#$&&**$%#$&&**$%#$&&**$%#$&&**$%",
"#$.$$*$.#$.$$*$.#$.$$*$.#$.$$*$.#$.$$*$.#$.$$*$.#$.$$*$.#$.$$*$.",
"#$.$$&$.#$.$$&$.#$.$$&$.#$.$$&$.#$.$$&$.#$.$$&$.#$.$$&$.#$.$$&$.",
"#$@..&$.#$@..&$.#$@..&$.#$@..&$.#$@..&$.#$@..&$.#$@..&$.#$@..&$.",
"#$$$$$$.#$$$$$$.#$$$$$$.#$$$$$$.#$$$$$$.#$$$$$$.#$$$$$$.#$$$$$$.",
"####### ####### ####### ####### ####### ####### ####### ####### ",
" .....+@ .....+@ .....+@ .....+@ .....+@ .....+@ .....+@ .....+@",
"#$$$$$$%#$$$$$$%#$$$$$$%#$$$$$$%#$$$$$$%#$$$$$$%#$$$$$$%#$$$$$$%",
"#$&&**$%#$&&**$%#$&&**$%#$&&**$%#$&&**$%#$&&**$%#$&&**$%#$&&**$%",
"#$.$$*$.#$.$$*$.#$.$$*$.#$.$$*$.#$.$$*$.#$.$$*$.#$.$$*$.#$.$$*$.",
"#$.$$&$.#$.$$&$.#$.$$&$.#$.$$&$.#$.$$&$.#$.$$&$.#$.$$&$.#$.$$&$.",
"#$@..&$.#$@..&$.#$@..&$.#$@..&$.#$@..&$.#$@..&$.#$@..&$.#$@..&$.",
"#$$$$$$.#$$$$$$.#$$$$$$.#$$$$$$.#$$$$$$.#$$$$$$.#$$$$$$.#$$$$$$.",
"####### ####### ####### ####### ####### ####### ####### ####### ",
" .....+@ .....+@ .....+@ .....+@ .....+@ .....+@ .....+@ .....+@",
"#$$$$$$%#$$$$$$%#$$$$$$%#$$$$$$%#$$$$$$%#$$$$$$%#$$$$$$%#$$$$$$%",
"#$&&**$%#$&&**$%#$&&**$%#$&&**$%#$&&**$%#$&&**$%#$&&**$%#$&&**$%",
"#$.$$*$.#$.$$*$.#$.$$*$.#$.$$*$.#$.$$*$.#$.$$*$.#$.$$*$.#$.$$*$.",
"#$.$$&$.#$.$$&$.#$.$$&$.#$.$$&$.#$.$$&$.#$.$$&$.#$.$$&$.#$.$$&$.",
"#$@..&$.#$@..&$.#$@..&$.#$@..&$.#$@..&$.#$@..&$.#$@..&$.#$@..&$.",
"#$$$$$$.#$$$$$$.#$$$$$$.#$$$$$$.#$$$$$$.#$$$$$$.#$$$$$$.#$$$$$$.",
"####### ####### ####### ####### ####### ####### ####### ####### ",
" .....+@ .....+@ .....+@ .....+@ .....+@ .....+@ .....+@ .....+@",
"#$$$$$$%#$$$$$$%#$$$$$$%#$$$$$$%#$$$$$$%#$$$$$$%#$$$$$$%#$$$$$$%",
"#$&&**$%#$&&**$%#$&&**$%#$&&**$%#$&&**$%#$&&**$%#$&&**$%#$&&**$%",
"#$.$$*$.#$.$$*$.#$.$$*$.#$.$$*$.#$.$$*$.#$.$$*$.#$.$$*$.#$.$$*$.",
"#$.$$&$.#$.$$&$.#$.$$&$.#$.$$&$.#$.$$&$.#$.$$&$.#$.$$&$.#$.$$&$.",
"#$@..&$.#$@..&$.#$@..&$.#$@..&$.#$@..&$.#$@..&$.#$@..&$.#$@..&$.",
"#$$$$$$.#$$$$$$.#$$$$$$.#$$$$$$.#$$$$$$.#$$$$$$.#$$$$$$.#$$$$$$.",
"####### ####### ####### ####### ####### ####### ####### ####### "};
