/* XPM */
static char * west_wall_xpm[] = {
"64 64 232 2",
"  	c #2F1D11",
". 	c #432914",
"+ 	c #422815",
"@ 	c #412715",
"# 	c #432916",
"$ 	c #452A18",
"% 	c #2F1C12",
"& 	c #3E2715",
"* 	c #3D2715",
"= 	c #402916",
"- 	c #422B17",
"; 	c #2F1D12",
"> 	c #432A17",
", 	c #3F2916",
"' 	c #412B17",
") 	c #2E1C12",
"! 	c #3D2615",
"~ 	c #422817",
"{ 	c #442A17",
"] 	c #2F1B11",
"^ 	c #402714",
"/ 	c #402715",
"( 	c #412813",
"_ 	c #432A16",
": 	c #452C16",
"< 	c #422915",
"[ 	c #432815",
"} 	c #462A17",
"| 	c #492D17",
"1 	c #452A14",
"2 	c #452B14",
"3 	c #462A14",
"4 	c #462B15",
"5 	c #482B16",
"6 	c #4E2E17",
"7 	c #52301A",
"8 	c #271611",
"9 	c #352012",
"0 	c #362012",
"a 	c #351F12",
"b 	c #341F13",
"c 	c #271712",
"d 	c #331F13",
"e 	c #332013",
"f 	c #342012",
"g 	c #332012",
"h 	c #3F2815",
"i 	c #331F12",
"j 	c #412816",
"k 	c #341F12",
"l 	c #341F11",
"m 	c #261611",
"n 	c #452A15",
"o 	c #251411",
"p 	c #361F12",
"q 	c #352010",
"r 	c #372011",
"s 	c #382011",
"t 	c #4B2D17",
"u 	c #271612",
"v 	c #2F1A11",
"w 	c #2C1911",
"x 	c #2B1912",
"y 	c #342013",
"z 	c #2E1B13",
"A 	c #2C1A12",
"B 	c #2D1A12",
"C 	c #412815",
"D 	c #281912",
"E 	c #2E1B11",
"F 	c #2D1B11",
"G 	c #3F2816",
"H 	c #2E1A11",
"I 	c #271610",
"J 	c #2B1911",
"K 	c #442B17",
"L 	c #251410",
"M 	c #2E1910",
"N 	c #2E1A10",
"O 	c #2A1811",
"P 	c #2B1711",
"Q 	c #391F12",
"R 	c #4B2E17",
"S 	c #2A1A12",
"T 	c #3D2714",
"U 	c #342111",
"V 	c #3E2814",
"W 	c #2B1B11",
"X 	c #281911",
"Y 	c #3F2615",
"Z 	c #251510",
"` 	c #442914",
" .	c #362010",
"..	c #291611",
"+.	c #2F1C11",
"@.	c #2E1C11",
"#.	c #281712",
"$.	c #341E13",
"%.	c #3E2714",
"&.	c #261610",
"*.	c #261511",
"=.	c #361F10",
"-.	c #472B15",
";.	c #442A18",
">.	c #412A17",
",.	c #412A16",
"'.	c #3C2614",
").	c #261612",
"!.	c #452B17",
"~.	c #3F2814",
"{.	c #482E17",
"].	c #371F12",
"^.	c #351F13",
"/.	c #291911",
"(.	c #342010",
"_.	c #271411",
":.	c #462A15",
"<.	c #301D11",
"[.	c #271711",
"}.	c #261712",
"|.	c #251511",
"1.	c #241410",
"2.	c #2F1B10",
"3.	c #301C12",
"4.	c #3D2815",
"5.	c #3F2915",
"6.	c #432917",
"7.	c #462C16",
"8.	c #482C16",
"9.	c #4C3018",
"0.	c #3E2815",
"a.	c #472C16",
"b.	c #402915",
"c.	c #301C11",
"d.	c #2D1B10",
"e.	c #2A1611",
"f.	c #472C15",
"g.	c #3D2614",
"h.	c #3F2614",
"i.	c #352111",
"j.	c #442916",
"k.	c #342113",
"l.	c #452C18",
"m.	c #432918",
"n.	c #472C18",
"o.	c #362113",
"p.	c #352113",
"q.	c #352013",
"r.	c #291912",
"s.	c #311E11",
"t.	c #281711",
"u.	c #2F1C10",
"v.	c #301E12",
"w.	c #422916",
"x.	c #432816",
"y.	c #462B17",
"z.	c #291913",
"A.	c #362111",
"B.	c #301D12",
"C.	c #422816",
"D.	c #2B1811",
"E.	c #372212",
"F.	c #2B1812",
"G.	c #311D12",
"H.	c #472E17",
"I.	c #412A14",
"J.	c #341E12",
"K.	c #291A12",
"L.	c #321E13",
"M.	c #402A16",
"N.	c #482D17",
"O.	c #372113",
"P.	c #3E2816",
"Q.	c #412716",
"R.	c #3C2714",
"S.	c #462D17",
"T.	c #3C2613",
"U.	c #311D11",
"V.	c #311E12",
"W.	c #3E2716",
"X.	c #2F1B14",
"Y.	c #452A17",
"Z.	c #2B1B10",
"`.	c #332010",
" +	c #432A14",
".+	c #2C1C11",
"++	c #271912",
"@+	c #3A2514",
"#+	c #422913",
"$+	c #331F11",
"%+	c #442A16",
"&+	c #3A2513",
"*+	c #442B18",
"=+	c #422813",
"-+	c #4B2F19",
";+	c #2C1A10",
">+	c #2C1912",
",+	c #472D17",
"'+	c #452B15",
")+	c #2D1B13",
"!+	c #291612",
"~+	c #442B14",
"{+	c #281511",
"]+	c #251611",
"^+	c #311C12",
"/+	c #402913",
"(+	c #4A2E17",
"_+	c #331E13",
":+	c #362013",
"<+	c #2E1A13",
"[+	c #2E1B10",
"}+	c #442A14",
"|+	c #281A11",
"1+	c #3C2713",
"2+	c #281A12",
"3+	c #3B2614",
"4+	c #351F10",
"5+	c #3B2613",
"6+	c #3D2814",
"7+	c #492E18",
"8+	c #2A1812",
"9+	c #291A10",
"0+	c #2D1A10",
"a+	c #331E12",
"b+	c #271710",
"c+	c #342110",
"d+	c #291610",
"e+	c #372111",
"f+	c #2E1E11",
"g+	c #301C10",
"h+	c #291511",
"i+	c #301B11",
"  . + + + @ # $ % & & & * * = - ; & & & & & = >   & & & & & , ' ) ! ! * * & ~ { ] ^ @ / ^ ( _ : ] + + < [ # } | ] 1 2 3 4 5 6 7 ",
"8 9 0 a a a b = c b d d e f f = c f g g g g g h c g g g g g g h c g i i i i d j 8 k k a k l l < m k a 9 9 a a n o p q 0 r r s t ",
"u 0 v v w x y j c d z ) A A f h c g ] ] B A f C D f ] E A A g h c g E F x x i G u k H H w x l < I f H H J J p K L a M N O P Q R ",
"u a @ a b S b * u g & f g A g T D U V U U W f T X f V U f W f T c g T g g S i ! u d Y k k w k ^ I l ( a a J a . Z a `  . .P r 5 ",
"..a ^ b y z d * c f T g g E U V X f T f f +.f T X g T f f @.g T #.i T g g E g ! u i * $.k H a %.&.l ( l a H 9 + *.a . =. .N r -.",
"..a ;.& & z d & c g >.T V +.f T X f ,.T T @.f %.X g ,.T T @.g T X f ,.'.T E g T ).i >.* Y H k ^ m l !.~.( H k < *.a {.. 1 N ].4 ",
"..^.y y b d f & c g f U U f f T X g f f f f f %./.f f f f g g T X g g f k g g T c g i i d $.k ^ 8 k l l (.k a C _.p 9 a a  .0 :.",
"8 c c c u c c   c #.D X X X X   /././././././.<./././././././.<.X X X X X X [.+.c c }.).u u u ] 8 m &.I I *.*.+.*._.|.Z o L 1.2.",
"3.h & & 4.& = >.<.V V T T %.C _ <.%.%.%.%.T h ,.<.T T T T T h ,.<.%.T T T T 5.= +.T T * ! ! j 6.] ^ %.^ ( ~.# 7.@.< . . . ` 8.9.",
"c y b e f f g C D U f g 9 f f h /.f f f f f f h /.f f f f f f h /.f f f g g g 0.[.g g g i i i G 8 k a k l l (.# *.9 a a 9 a =.a.",
"c y z % A A f b.D U +.c.F F f h /.f +.+.F F f h /.f +.+.d.d.f 0./.f +.+.F W g 0.X k E E A x i G u k H H J J q # *.k H H O e.a f.",
"c y 0.y f A U V D f %.f f F f %./.f %.f f F f T /.f T f f d.f T /.f T f f F g T X f g.g g A i ! u $.h.k k J l ( *.a < a p P a ` ",
"c y h y f +.U V D i.%.f f +.f %./.f T f f +.f T /.f T f f +.f T /.f T f f +.f T X g T i g E g ! u d h.k a H l ( *.a C 9 p M a j.",
"c k.l.h &   U V D 9 _ %.%.+.f %./.f ,.T T +.f T /.f ,.T T +.f T /.f ,.T T +.f T X g ,.T T E g * u d m.h.^ B l ( m a n.< + H p . ",
"#.o.p.q.q.i.U V r.i.9 9 9 f f %./.f f f f f f T /.f f f f f f T /.f f f f f f T /.g g f i g g T ).i d k k a k ( 8 l a 9 9 p a . ",
"D D D D r.r.D s.r.r./././././.<./././././././.<./././././././.<./././././././.<././.X X X t.c   }.).u u 8 8 m u.8 m *.*.*._.|.E ",
"v.w.b.C 5.h ,.K s.~.~.%.%.%.C _ <.%.%.%.%.%.C ,.<.%.T T T T h ,.<.T T T T T h ,.<.T %.T T T G >.  ! ! * h.h.x.K u.( ( C < < y.| ",
"z.o.o.o.p.p.A.< r.i.i.i.9 9 f h /.f f f f f f h /.f f f f f f 0./.f f f f f f h /.f f g g g k 0.c g i i d k k = I q (.a a 9 p n ",
"z.o.% B.F F A.< r.i.c.c.F F f h /.f +.+.F F f h /.f +.+.F F f 0./.f +.+.d.d.f 0./.f +.+.W W g 0.c g F z x J k C.&.l d.H D.J a K ",
"z.o.# E.o.F A.C r.i.~.i.9 F f %./.f %.f f F f * /.f %.f f F f T /.f T f f d.f T /.f T f f W g T c g * i d F.k ^ m l ( l a J 9 # ",
"z.o.# E.o.G.A.C r.i.~.i.9 c.f %./.f %.f f +.y * r.y * y y % f T /.f T f f +.f T /.f T f f @.g T c g T i d z k ^ m l ( (.a H 9 # ",
"z.o.H.I.b.G.A.C r.i.K %.%.+.f %./.f _ * * % y * r.y >.* * % y T /.f ,.T T +.f T /.f ,.T T @.g T t.g >.! ! z J.h.8 l !.( ( H 9 . ",
"z.E.E.E.E.o.A.C r.i.i.9 9 f f %./.f y y y y y * r.y y y y y y * /.f f f f f f T /.f f f f f g T X g g g i d $.h.8 k l q k a 9 [ ",
"z.r.K.K.K.x x s.r.r.r././././.<././.r.r.r.r.r.B.r.r.r.r.r.r.r.B.r././././././.<././././././.X   X [.c c ).u u ] 8 m I 8 m *.*.+.",
"L._ _ I.b.b._ !.s.~.~.%.%.%.C _ <.* * * * * G >.B.* * * * * G >.B.T T T T T h ,.<.T T T T T 0.M.  g.T T ! ! j { ] %.^ ( ( C { N.",
"z.o.E.E.O.o.A.,.r.i.i.9 f f f h /.y y y y y y P.r.y y y y y y P.r.y f f f f f 0./.f f f f f f 0.X g i g g i d Q.8 a k l (.a k !.",
"z.o.B.B.E E A.,.r.i.c.+.F F f h /.y % % F F y P.r.y % % F F y P.r.y % +.d.d.f 0./.f +.+.d.d.f 0.X g E E A x d Q.8 a H N w D.k K ",
"z.O.I.E.o.E A.~.r.i.%.f f F f T r.y * y y F y * r.y * y y F y * r.y * f f d.f T /.f T f f d.f R.X g '.g g x i * 8 k / l q D.k . ",
"z.O.I.o.p.B.i.~.r.9 %.f f +.f T r.y * y y % y * r.y * y y % y * r.y * f f +.f T /.f T f g +.f T X g g.g g B i * 8 k / l q H k . ",
"r.o.S.b.b.B.i.~./.f _ %.T +.f T r.y >.* * % y * r.y >.* '.% e '.D y >.* T +.f T /.f ,.T T.+.f T X g w.'.T B i * 8 k { ^ ( E k . ",
"r.o.E.p.p.A.i.~./.f f f f f f T r.y y y e e e '.D e e e e e e '.D y y y y f f T X g f g g f f T X g i i g g i * 8 k k l q f k . ",
"D D K.r.D r.r.U./././././././.<.r.r.r.D D D D ; D D D D D D D ; D D D D D /.X <./.X X X X /./.<.X X X [.c }.).) 8 8 8 &.8 m *.+.",
"V.b.b.5.h ~.w._ <.%.%.T T T h ,.B.* '.'.'.'.W.= ; '.'.'.'.'.W.= ; '.'.'.T.T.& =   T.T.T.T.T h ,.  T T '.T R.G > X.h.^ / ( b.Y.N.",
"D p.p.i.i.i.i.b./.f f f f f f 0.D e e g g g g * D g g g g g g * D g g g g g g %.X g g g g f f 0.X g g i g g i G u k a l q f 0 !.",
"D p.3.; F E 9 h /.f +.+.d.d.g %.X g ) ) W W g * D g ) ) W W g * D g ) ) Z.Z.`.%.X g +.+.Z.d.f h X g +.E S S i G u k H H w J a !.",
"D q.0.i.U F 9 %./.f T f f d.f T.X `.'.g g W g '.D g '.g g W g '.D g '.g `.Z.`.T.X g T.g g d.f T X g T i g S i * u k @ k q J 0  +",
"D q.& i.U +.9 %./.f T f f +.g T.X `.'.g g ) g '.D i '.i i ) i '.D i '.`.`.@.`.T.X `.T.g g +.f T X g T i g .+i * 8 k ^ l q E 0 _ ",
"++q.- V V +.f %./.f ,.T T +.g T.X `.= '.'.) i '.D i G @+@+z i '.D i , T.T.@.`.T.X `.= T.T.+.f T X g w.'.T .+i * u k !.( #+E 0 _ ",
"c q.f f U f f %./.f f f f g `.T.X `.`.i i i i '.D i i i i i i '.D i i `.$+$+`.T.X `.g g f f f T X f k g g i i * 8 k k q 9 9 0 %+",
"c D #.c D X X <./././././.X X   X X X X D D D ; D D D D D D D ; D D D X X X X   X X X X X /./.  X X t.c c ).u % 8 8 8 8 8 8 m B.",
"% 4.& & %.T h _ <.T T T T.T.& b.  T.T.T.T.T.* , ; '.'.'.'.@+* G % &+T.T.T.T.& b.  T.T.T.T.T.h M.  T '.T T ! j *+] ^ / =+<  +7.-+",
"c b f f f U f h /.f f f f g `.T X `.$+$+$+$+i * D i i i i i i T X $+$+$+`.`.`.T X g g g f f f 0.X g i g f i d = 8 a k q 0 0 o.S.",
"c b ) @.A W f 5./.f +.+.Z.Z.`.T X `.@.@.;+;+$+T D i z z ;+;+$+T X $+@.@.Z.Z.`.T X g +.+.d.d.f 0.X k E E S x b j 8 a E ] ;+>+o.,+",
"c y 0.f f A U T /.f T f g Z.`.T.X `.T.`.$+;+$+T.X $+T.$+$+;+$+T.X $+T.$+$+Z.`.T.X g T.f f d.g R.X i T g i x b Y 8 a C 9 0 >+O.'+",
"c y & f f E U T X f T f f +.g T.X `.T.`.`.@.$+T.X $+T.$+$+@.$+T.X $+T.$+`.@.`.T.X g T f f +.g T X i T g i )+d ^ 8 a C 9 9 ] O.!.",
"!+q.*+4.& @.g T X g ,.T T +.g T.X `.b.T.T.@.$+T.X $+5.T.T.@.$+T.X $+5.T.T.@.g T.X f ,.T T @.g T t.i >.* ! )+b h.8 k 7.< < ] o.2 ",
"..q.y b f g g T X g g f f f g T.X g g `.`.`.$+T.X $+$+$+$+$+$+T.X $+`.`.`.g g T.X f f f f f g T [.g g i i d $.h.8 k q 0 9 9 o.~+",
"!+!+c c u #.c +.X X X /./././.  X X X X X X X   X X X X X X X   X X X X X X X   /././././././.+.[.c c ).u u 8 ] 8 8 8 8 {+*.]+<.",
"^++ j h * * = >.@.T T R.T T h =   T.T.T.T.T.& b.  T.T.T.T.T.T 5.  T.T.T.T.T.& = <.T.T T T T h w.+.T R.! ! * @ { E ^ ( /++ < 7.(+",
"!+0 a y b d f h c k f g f f f 0./.g g g g g g %.X `.$+`.$+$+$+T X `.`.`.`.`.g %.X g f f f f i h #.g i i i _+k + m l l f k 9  .y.",
"u :+v <+S x i , c g ] @.F F f 0./.g +.+.Z.Z.g T X $+@.@.;+;+$+T X `.@.@.Z.Z.g T X g +.+.F B i h t.f v E x D.J.C 8 l [+v D.w  .4 ",
"!+:++ a y x i * c g g.k f F f T X g T.g `.Z.$+T.X $+T.l $+;+$+T.X $+T.`.`.Z.`.T.X g T.f f F f %.X f %.f i J k h.I l ^ q 9 /.9 }+",
"8 :++ a k z i ! }.f h.k k +.f T X g T.`.`.@.$+T.|+$+1+`.`.@.`.1+|+`.1+$+$+@.`.T.X `.T.g f +.f %.t.f T k k z $.Y m k / (.k B 9 %+",
"8 0 n.@ %.z g & c U _ %.T +.f T X g b.T.'.) i '.2+g , 3+3+) g 3+2+g G '.'.@.`.T.X g = T.T +.f T t.f >.Y ! )+$.h.m k '+( h B 9 # ",
"..0 0 a y b i R.#.f g f f f f T.X `.`.$+$+$+$+@+D i i i i i i @+D i i $+$+`.`.T.X `.g g f f k h.O k k k k _+$.h.8 k l 4+k k 9 # ",
"u u 8 u u c !+  #.O O /./././.  X X X X X X X +././.r.r.r.r./.c./.X X X X X X   X X X X /./.O c.t.t.#.c u u [.] m &.I m m |.*.+.",
"<.w.+ @ Y & = > c.T %.T T T & b.  T.T.1+5+5+6+5.  5+5+5+5+5+6+5.  5+5+5+5+1+6+b.  T.T.T.T T h ,.  %.T & ! g.@ { E ^ ^ ( ( C { 7+",
"8 :+0 a f b k C 8+a f f f g `.T X $+$+$+(.(.(.V 9+(.(.`.`.(.(.V |+`.`.`.`.$+$+T X `.g g f f g 0.t.k f k k $+J.C I 4+l q k k 9 Y.",
"[.9 E v J >+k @ #.a ] +.d.Z.`.T X i z z A A k 0.K.f % % F F f 0.K.f X.E ;+;+`.T X g +.+.d.F f h t.k v H >+F.$.j 8 a N 0+D.O 9 7.",
"[.0 + ^.b x f T D 9 %.f f Z.`.T.X `.5+g g W g 3+2+g 3+g g B i @+D i @+i i A i T.X g T.f f F f g.t.J.g.i a+F.b h.8 k ( (.a /.9  +",
"b+o.< a y X.b %.#.a T f f @.`.T.X $+&+`.(.% f '.K.g '.g g % f 3+2+g R.g $+@.`.T.X f T f f +.g T X g T i i z k ^ 8 4+( f a H  .. ",
"!+A.N.+ ^ z b Y #.g ,.T T +.g T.X $+5.&+&+@.`.T.9+(.= T T ; f T 9+c+I.1+1+@.g T./.f ,.T %.@.f T ++f >.! * H k @ d+l 7.C C E  .}+",
"c e+r 0 a 9 q./ #.i.9 f f f g T.X `.`.$+$+$+$+T.X $+`.c+c+c+c+1+X g g g g g f T /.f f f f U U 6+++f y d k k a @ 8 q p a 9  .0 n ",
"8 t.......#.#.; 8+#.X /./././.<.X X D 2+2+|+/.  X X X X X X /.<./././././././.<./././.r.D D D f+#.#.++[.8 8 ..g+8 8 h+{+m *.*.i+"};
