/* XPM */
static char * DOOR_1_xpm[] = {
"64 64 23 1",
" 	c None",
".	c #2E2533",
"+	c #27232A",
"@	c #E5E6C7",
"#	c #E43C3C",
"$	c #E53D3D",
"%	c #E43D3D",
"&	c #BD7C5E",
"*	c #B27055",
"=	c #AD6B52",
"-	c #7C473E",
";	c #945747",
">	c #5D3738",
",	c #8A4E41",
"'	c #BA7758",
")	c #EA9033",
"!	c #FEAE34",
"~	c #F6757A",
"{	c #FF9B9E",
"]	c #A7634A",
"^	c #DA7732",
"/	c #DB4B53",
"(	c #492D33",
"          .......++++....++++....++++....++++....+++++          ",
"       ++.@@@@@@####@@@@####@@@@####@@@@####@@@@######+..       ",
"      +##@@@@@@####@@@@####@@@@####@@@@####@@@@########@@.      ",
"     +####@@@@@####@@@@####@@@@####@@@@####@@@@########@@@.     ",
"    +#####@@@@@####@@@@####@@@@####@@@@####@@@@###$#####@@@.    ",
"   +#######@@@@@####@@@@####@@@@####@@@@####@@@@##%#####@@@@+   ",
"  .@@#######@@@@####@@@@####@@@@####@@@@####@@@@########@@@@#+  ",
" .@@@@######@@@@@####@@@@####@@@@####@@@@####@@@@#######@@@@##+ ",
" .@@@@@@#####@@@@@####@@@@####@@@@####@@@@####@@@@#####@@@@###+ ",
" .@@@@@@@@#####@@@@####@@@@####@@@@####@@@@####@@@@@###@@@@###+ ",
"+##@@@@@@@@@#####@@@@####@@@@####@@@@####@@@@####@@@@#@@@@####@.",
"+#####@@@@@..........................................@@@@####@@.",
"+########@@.&*=====&&*=====&&*=====&&*=====&&*=====&.########@@+",
"+#######@@@.-&====&;-&====&;-&====&;-&====&;-&====&;.#######@@@+",
".######@@@#.>-&&&&;,>-&&&&;,>-&&&&;,>-&&&&;,>-&&&&;,.######@@@#+",
".@###@@@@@#.>>')!&,,>>'~{&,,>>')!&,,>>'~{&,,>>')!&,,.@###@@@@@#+",
".@@@@@@@@##.>>]^)',,>>]/~',,>>]^)',,>>]/~',,>>]^)',,.@@@@@@@@##.",
".@@@@@@@###.>>]]]],,>>]]]],,>>]]]],,>>]]]],,>>]]]],,.@@@@@@@###.",
"+@@@@@@###@.>(((((>,>(((((>,>(((((>,>(((((>,>(((((>,.@@@@@@###@.",
"+#@@@#####@.(((((((>(((((((>(((((((>(((((((>(((((((>.#@@@#####@.",
"+########@@.&*=====&&*=====&&*=====&&*=====&&*=====&.########@@+",
"+#######@@@.-&====&;-&====&;-&====&;-&====&;-&====&;.#######@@@+",
".######@@@#.>-&&&&;,>-&&&&;,>-&&&&;,>-&&&&;,>-&&&&;,.######@@@#+",
".@###@@@@@#.>>')!&,,>>'~{&,,>>')!&,,>>'~{&,,>>')!&,,.@###@@@@@#+",
".@@@@@@@@##.>>]^)',,>>]/~',,>>]^)',,>>]/~',,>>]^)',,.@@@@@@@@##.",
".@@@@@@@###.>>]]]],,>>]]]],,>>]]]],,>>]]]],,>>]]]],,.@@@@@@@###.",
"+@@@@@@###@.>(((((>,>(((((>,>(((((>,>(((((>,>(((((>,.@@@@@@###@.",
"+#@@@#####@.(((((((>(((((((>(((((((>(((((((>(((((((>.#@@@#####@.",
"+########@@..........................................########@@+",
"+#######@@@.&*=====&&*=====&&*=====&&*=====&&*=====&.#######@@@+",
".######@@@#.-&====&;-&====&;-&====&;-&====&;-&====&;.######@@@#+",
".@###@@@@@#.>-&&&&;,>-&&&&;,>-&&&&;,>-&&&&;,>-&&&&;,.@###@@@@@#+",
".@@@@@@@@##.>>'~{&,,>>')!&,,>>'~{&,,>>')!&,,>>'~{&,,.@@@@@@@@##.",
".@@@@@@@###.>>]/~',,>>]^)',,>>]/~',,>>]^)',,>>]/~',,.@@@@@@@###.",
"+@@@@@@###@.>>]]]],,>>]]]],,>>]]]],,>>]]]],,>>]]]],,.@@@@@@###@.",
"+#@@@#####@.>(((((>,>(((((>,>(((((>,>(((((>,>(((((>,.#@@@#####@.",
"+########@@.(((((((>(((((((>(((((((>(((((((>(((((((>.########@@+",
"+#######@@@.&*=====&&*=====&&*=====&&*=====&&*=====&.#######@@@+",
".######@@@#.-&====&;-&====&;-&====&;-&====&;-&====&;.######@@@#+",
".@###@@@@@#.>-&&&&;,>-&&&&;,>-&&&&;,>-&&&&;,>-&&&&;,.@###@@@@@#+",
".@@@@@@@@##.>>'~{&,,>>')!&,,>>'~{&,,>>')!&,,>>'~{&,,.@@@@@@@@##.",
".@@@@@@@###.>>]/~',,>>]^)',,>>]/~',,>>]^)',,>>]/~',,.@@@@@@@###.",
"+@@@@@@###@.>>]]]],,>>]]]],,>>]]]],,>>]]]],,>>]]]],,.@@@@@@###@.",
"+#@@@#####@.>(((((>,>(((((>,>(((((>,>(((((>,>(((((>,.#@@@#####@.",
"+########@@.(((((((>(((((((>(((((((>(((((((>(((((((>.########@@+",
"+#######@@@..........................................#######@@@+",
".######@@@#.&*=====&&*=====&&*=====&&*=====&&*=====&.######@@@#+",
".@###@@@@@#.-&====&;-&====&;-&====&;-&====&;-&====&;.@###@@@@@#+",
".@@@@@@@@##.>-&&&&;,>-&&&&;,>-&&&&;,>-&&&&;,>-&&&&;,.@@@@@@@@##.",
".@@@@@@@###.>>')!&,,>>'~{&,,>>')!&,,>>'~{&,,>>')!&,,.@@@@@@@###.",
"+@@@@@@###@.>>]^)',,>>]/~',,>>]^)',,>>]/~',,>>]^)',,.@@@@@@###@.",
"+#@@@#####@.>>]]]],,>>]]]],,>>]]]],,>>]]]],,>>]]]],,.#@@@#####@.",
"+########@@.>(((((>,>(((((>,>(((((>,>(((((>,>(((((>,.########@@+",
"+#######@@@.(((((((>(((((((>(((((((>(((((((>(((((((>.#######@@@+",
".######@@@#.&*=====&&*=====&&*=====&&*=====&&*=====&.######@@@#+",
".@###@@@@@#.-&====&;-&====&;-&====&;-&====&;-&====&;.@###@@@@@#+",
".@@@@@@@@##.>-&&&&;,>-&&&&;,>-&&&&;,>-&&&&;,>-&&&&;,.@@@@@@@@##.",
".@@@@@@@###.>>')!&,,>>'~{&,,>>')!&,,>>'~{&,,>>')!&,,.@@@@@@@###.",
"+@@@@@@###@.>>]^)',,>>]/~',,>>]^)',,>>]/~',,>>]^)',,.@@@@@@###@.",
"+#@@@#####@.>>]]]],,>>]]]],,>>]]]],,>>]]]],,>>]]]],,.#@@@#####@.",
"+########@@.>(((((>,>(((((>,>(((((>,>(((((>,>(((((>,.########@@+",
"+#######@@@.(((((((>(((((((>(((((((>(((((((>(((((((>.#######@@@+",
".######@@@#..........................................######@@@#+",
".@###@@@@@#..........................................@###@@@@@#+"};
